<?xml version="1.0" encoding="utf-8"?>
<svg xmlns="http://www.w3.org/2000/svg" xmlns:svg="http://www.w3.org/2000/svg" version="1.1" viewBox="0 0 375 580">
	<title>The second page of a letter written by Helen Keller. It reads: “one whom they love has been greatly honored. I do not understand very well what a bishop’s work is, but I am sure it must be good and helpful, and I am glad that my dear Friend is brave, and wise, and loving enough to do it. It is very beautiful to think that you can tell so.”</title>
	<path d="M199.5.2c-1.1-.4-2.5 0-3.7 0m-72 33.1c-1.1 0-4-.1-4.7-1.1-1.2-1.9.6-5.3-1.2-7-1.2-1-4.7-.4-6.2-.4v-.2l1.5-1.4a4.3 4.3 0 01-2.9-3.4h.3l.8.8v-12c0-2 .8-4 .4-6-.4-2.4-4.3-3.4-6.1-1.7-1.7 1.6-.6 5.8-.4 7.8.5 5.5 1.9 10.9 2.3 16.4.3 2.6-.8 5.9.2 8.4.5 1.3 2.1 1.3 2.6 0 .6-1.5-.2-3.8.7-5.1.9-1.3 4-1.3 4.6.2.8 1.9-.9 4.3.5 6 1.6 1.9 7.7 1.7 7.6-1.3m77.5-15l.8-.3c0 4.3.7 8.9 1.5 13.2.3 1.2.5 4 2.5 3.5 1.2-.4 1-1.8.8-2.7-.2-2.6-1-5.4 2.6-5 3.6.4 1.4 4.5 2.1 6.6.8 2 3.3 1.8 5 1.8 1 0 2.4.3 3-.4 2.2-2.5-4.2-2-4.8-2.8-1.3-2 .4-4.7-1-6.8-1.1-1.6-5.4-.8-7.2-.8-.4-5-1.6-9.6-1.3-14.6.2-2.3 1.2-6-.3-8-2-2.7-5 .5-5.6 2.5-1.2 4.2 1.3 9.5 2 13.7M0 3.2v1.3h.3L0 3M204.8 5l-1.6 1.3v1c-1.2-.6-2.3-1-2.4-2.6l4 .3M267 20.3c1.3.4 1.6 2.5 1.6 3.7l.3 6.8c0 1.1-.3 2.6.5 3.5 1.3 1.3 4.4 1 6 .8.7 0 2-.4 1.9-1.3-.3-2.3-4.6-.3-5.4-2.4-.7-1.7 0-3.9 0-5.6.2-2.6-.1-7-1-9.4h.8c.7-2.3.6-7.4-.5-9.6-1-1.6-4.3-2.3-5.6-.6-.7 1 0 3.2.2 4.3.7 3.2 1.3 6.6 1.2 9.8m-78.9-.8l.5-4c2 1 2.6 7.9 1.2 9.5-.8 1-3.5.6-3.7 2.2 0 .9.9 1.3 1.5 1.6 1 .4 2 .6 2.6 1.6 1 1.6.5 3.6 2.5 4.7 1 .6 3.7.3 3.7-1.2 0-1-1.5-.9-2.1-1.2-1-.5-1.2-1.6-1.1-2.6.3-3 4.2-1.7 4.6-4.2.3-1.8-3.3-.3-4-1.6-1.5-3.4.7-7.7-1-10.8-.9-1.7-4.7-1.9-5.6 0-.6 1.5.3 4.7 1 6m142 16.2l1.9-1.6v-1c-1.6-.6-5.2-.2-6-2-1.3-3.4 3-4.3 4.5-6 1.1-1.5-.4-4.6-1.3-5.8-.6-.7-1.1-1.6-2-1.9-.7-.2-1.6 0-2.4 0-.6 0-1.2 0-1.8.3-4.4 1.8-.3 6 0 8.7.1 2.3-1 5.3.4 7.4 1.5 2 4.6 1.1 6.7 1.9M188.4 20v.8h.2l-.2-.8m141.3 3.7c-1.4 0-4.3-.6-3.9-2.6.2-1 1.7-1 2.3-.4.7.7 1.1 2 1.6 3M106 20.6c-1.3 2.2-3 2.1-5.3 2.6v.3c2.8 1.1 5 .1 5.8-2.9h-.5M50.3 24l1-.2c-.6 2.5.3 3 1 5.3.5 1.4-.7 3-.3 4.5.4 1.7 4.3 4.2 5.7 2 1.2-2-2.5-2.1-2.7-3.6-.3-2.4 1.9-3 2.6-4.8.4-1-.4-1.5-1.2-1.3l-2.2.5 1.1-4.2h1l1.1 1.8c0-2.2-3.2-3.8-5.2-2.6-1 .5-1.5 1.8-2 2.6m260.4-.8l3.7.3c-.3-1.8-2.8-1.6-3.7-.3m-78.8-.7v.2l3.2.3-3.2-.5M82.6 24v.3l5.2-.8 12.7.3c-.9-1.3-3-.8-4.5-.8-4.4 0-9.4-.8-13.4 1m34.6-.8v.3l1.6.3c-.2-1-.8-.8-1.6-.6m110 0c-3.9 1.5-1.2 4-.8 6.4.3 1.3-1 2.6-.8 4 .4 2.2 4.9 3 6.6 2 3-1.8-3-2.7-3.2-3.7-.1-1.6 2-2.1 2.2-3.6.2-2.2-2-.7-2.8-1.6-.5-.6 2.6-4.9-1.1-3.5m-158.5 0c-.7 6 6 2.8 8.6 5 2.2 1.9.1 5.5 1.8 7 1 .8 3 .5 4.1.5 3.3 0 9.7 1.6 12.1-1.1 1.4-1.6.1-4.5 1.6-5.8 1-1 4.4.8 4.8-1.1.7-3.4-5.8-3-7.3-1.7-2 1.7.3 5-1.5 6.6-1 .9-3.1 1-3.7-.4-.5-1.3.9-7.2-1.7-6.7-3.9.8 1 7.4-4 7.5-.5 0-1 0-1.6-.2-2.4-1-.6-5.7-1.9-7.6-1-1.6-4-.5-5.5-.6-2-.1-3.7-1.4-5.8-1.4m235.2 4c-1.4-3.4-4.7-4.7-8.2-3.6-1 .3-2.9.6-3 2-.2 1 1 1.6 2 1.7 1.8 0 3.3-2 5.2-.7 2.5 2 0 6.3 2.7 7.8 3.4 1.7 3.6-6.5 5.8-7.5 1.5-.7 5.1.6 6-.8 1.6-2.4-2.9-2-3.9-2.1a6 6 0 00-6.6 3.2M70 23.5v.5h-.6v-.5h.6m66.4 0v.3h1.3l-1.3-.3m115 0v.5h.6v-.5h-.5m-245.6 4c3.6 1.7-.7 6.6 2.7 8.4 1 .5 2.8 0 4 0 1 0 2.5 0 3.1-.8 1.5-1.9-.5-4 1.6-5.8-1-4.7-11-8.7-11.4-1.8M23 24l-.2.8c-1.4-.2-5.4 1.6-3.4 3.2 2.1 1.6 5.7-1.2 7.3.4 1.4 1.5-.5 5 1.6 5.8 3.4 1.3 1-5.7 4.2-6 .9 0 2.7-.3 3.4.2 1.7 1.4.8 4.8 2.3 6.4 2.2 2.4 7.1 1.2 5.7-2.6l-2.1.5c-4 .4-.8-6-3.7-7.6-1.5-.8-4.5 0-6 .1-3 0-6.2-1-9-1.2m-5.2.1l.2.1h-.2m266.3 0c-4 .7-3.3 3.4-2.8 6.5.2 1.4.3 3 1.5 4 1.4 1.3 4.1.4 5.8 0 2.6-.5 1.8-3.1 1.4-5.1-.7-3.4-1.7-6.2-6-5.4m-138.6.3c-1 0-7.6.7-4.7 2.6 1.4 1 4.2 0 5 1 1.5 1.5-.6 7 2.9 7 2.8-.1-.2-5.9 2.4-6.9 3.5-1.4 4.4.5 4.8 3.5.1 1 .2 3.2 1.8 3 1.2 0 1.2-1.5 1.2-2.5 0-2.3 0-4.4 3-4.2 3 .2 2 4 2.7 5.8 1 2.4 5 2.3 7.1 1.7.9-.3 1.7-1.2 1-2-1-1.5-4 .2-5.4-1-2-1.6.6-5.4-2-6.8-1.5-.9-4.3-.3-6-.3-2.8 0-5.8.2-8.5 0-1.8-.2-3.4-1-5.3-1m91.6.7c-.7.4-.9 1.3-.2 1.8 1.4 1.2 4.7.3 5.8 1.5 1.2 1.5-.4 4.4 1 6.2 1.6 2 4.1-.2 5.7 1.2 1 .9.8 3.2 1 4.4.4 2.9.4 5.8.8 8.7.1 1.5.7 4 .2 5.5-.4 1.4-2 .6-2.3-.5-.5-1.6.6-4.8-.4-6.2-.7-.8-2.1-.4-2.5.5-.6 1.4-.5 7 .6 8.2 1 1 5.3 1.1 6.6.6 1.6-.8.6-5.5.6-7 0-5.7-1.5-11.4-2.3-17-.3-1.8.2-5.2-.9-6.8-.8-1-2.3-.3-2.7.8-.3.7 1 6.6-1.3 6-1.4-.2-.5-5.5-.9-6.6-.6-2.4-3.7-.9-5.4-1.1-1-.2-2.4-.8-3.4-.2m-106.7.1c-3.8.8-4.4 7.7-1.7 10.1 1.2 1 3.5.7 5 .4 3-.7 2.3-2.8 2.4-5.3 0-1 .6-1.7.4-2.7-.5-2.1-4.2-2.9-6-2.5m153.4 1.5c2 0 4.6 3.4 3.2 5.4-.6.8-2.3.5-2.6-.4l-.4-2.4c-.2-.9-.2-1.7-.2-2.6M10.1 33c.2-1.5-.6-3.8.3-5.1.7-1 2 0 2.5.7 1.8 2.6 0 5.3-2.8 4.4m121.1-4.9c2.2-.5 2.5 4.6.5 5-2.5.7-2.4-4.5-.5-5m-54.7 4.7l.2.2-.2-.2m.2.5l.3.3-.3-.3m11.7 37.3c1 .3 2 .1 3.1.2l2.2.1c1.3.1 4.5-.8 2-2.4-1.7-1-9.3-1.5-10.6.3-.8 1.3.4 4 .3 5.5 0 1.1-1.2 2.1-2 1-1.1-1.6.2-4.3 0-6-.2-6.2.5-12.3-.2-18.5-.3-2.1.2-6.6-2.3-7.6-3-1-1.1 4.8-.9 6 1.4 6.9-.3 14.1.2 21.1.1 2-.9 5.7.5 7.1 1.9 1.9 6.5 2 7.7-.7.6-1.5 0-4.4 0-6m162.4 6.8c-.3-2.8-2.3-2.1-3.7-3.8-1.4-1.9-.8-4.4-1.1-6.5-.4-3.2-1.3-6.3-1.8-9.6a77 77 0 00-2.1-10.8c-.2-.8-.7-3.8-2.2-2.6-.8.5-.3 1.9-.2 2.6.6 2.5 1 5 1.7 7.4 1.2 5.2 1 10.7 2.1 15.9 1 4.5 2.2 7.4 7.3 7.4M21.4 70.9c.3 1.8-.5 5.3.6 6.8.8 1.3 5 1.5 6 .4 1.2-1.2-.1-2.1-1.3-2h-2.4c0-2.3.4-7-2.3-7.8-1.6-.5-4.9 1-5.9-.4-.7-1.2-.2-3.6-.2-5-.1-4-.3-8-.3-12.1 0-1.5.6-5-.6-6-2.4-1.8-2 4-2 4.9.3 7 .4 13.5-.2 20.4-.2 1.4.1 7.1 2 7.3 2.3.3.8-4.6 1.6-5.7 1-1.3 3.6-.8 5-.8m262-2.4h1.8l-1.3.8c0 1.3-.1 3.8.7 5 .5.6 1.6 1.3 2.3.6 1.8-1.6-1.5-5.8 2.3-6.1h2.1c.3 2.1.5 5.7 2.7 6.8 1 .5 5.8.6 5.5-1.3-.3-1.7-3.1-.6-4.1-1.3-2-1.4.4-5.4-2-6.4-1.6-.7-5.4.9-6.3-.6-.5-.7-.3-2-.5-2.8a129 129 0 01-1.9-8.7c-.2-1.2 0-3.5-1.2-4.3-1.9-1.1-1.8 2.3-1.6 3.2.6 5.1 1.5 9.8 1.5 15m-43.2 1.4l-2.3-.3c-.1-2.9-.7-7.3-1.7-10-.3-.8-2.3-2.5-3-1-.3 1 .7 2.7 1 3.6.5 2.1.5 4.5.5 6.7 0 1-1 2-.8 2.8.2.9 1.5 1.1 2 2 .5 1 2.3 6.5 4.4 4.3 1.4-1.5-2.3-3.7-2.2-5.4 0-1.2 1.8-1.5 2.1-2.7m-135.4-1.3c.1-1.8 2-2.6 2.2-4.3.2-1-1-1-1.7-1-1.4 0-2.3 1-3 2.1-.6 1-1.5 2.5-1 3.7.2.9 1.1 1.5 1.2 2.4.1 2.6-1.1 9.7 4.4 7.3 2.5-1.2-1.3-3.2-1.2-5 0-.7 4.2-5.5.7-5.4l-1.6.2m243.7-4.6c-1.4.2-1.6 2.2-1.5 3.3 0 1 1 1.6 1.2 2.6.4 2.7-.3 5.5 0 8.2.2 1 .9 3.3 2.3 3 1.2-.4.7-2.2.6-3l-.5-6.6c0-.7-.2-2 .6-2.4 1.2-.7 1.4 2 1.4 2.7.3 3 3.6 6.9 7.1 4.5.9-.6.6-1.9-.2-2.4-1.3-.8-3.2.3-4.1-1.4-1-1.6.9-4.5-1-5.8-1-.9-2.4.4-3.5-.4-1-.6-1-2.5-2.4-2.3m-230.8.2c-3 .8-2.5 5.2-2.4 7.6.1 1.6-1 3.4-.6 5 .5 2 4.8 2.5 6.4 1.7.8-.4.8-1.7 0-2-1.3-.7-4 .5-4-1.8-.2-2.5 2.3-2.8 2.8-4.6.4-1.5-2.2-.9-2.4-2-.4-2 2-1.4 2.6-2.5.8-1.4-1.6-1.6-2.4-1.4m-57.6 4.7c1.7-.7 2-3.7-.3-3.9-1 0-2.1.9-3 1.4L55 67.4l-1.4 1c-1 .7-1.2 1.8 0 2.5 1.8 1 5.6 1 5.2 4.1-.4 3-6.9-1.5-6.1 2 .6 2.7 7.1 3.2 8.5 1 1.5-2.4-.4-4.4-1-6.6-.2-.8.1-1.8 0-2.6m143.4 0c-.3-1.7 1.3-1.5 1.4-2.7 0-1.6-2.5-1-3.2-.4-2.2 1.9-1 3.6-.7 5.7.4 2.4-.8 6.8 2.7 7.6.9.2 1.8-.1 2.7-.2.7 0 1.6.2 2.3-.2.9-.4.4-2-.3-2.4-1.5-1-3.9.6-5-.7-2.4-2.6 2-4 2.6-5.3 1-1.6-1.7-1.7-2.5-1.4m158.2-.3a5 5 0 002.4.2l1.6-.5c.8-.3 3.2-1.4 1.5-2.4-2-1.3-5 .7-5.5 2.7m-181-2.6c-.8.5-.7 2.7-.4 3.6.4.9 1.4 1.3 2 2.2a13 13 0 011 7.6c-.2.7-.4 3 .6 3.2 1 .2 1.3-2 1.4-2.6.5-2.3 0-4.7-.2-7-.1-.9-.2-2 1-2.3 1.2-.4 1.8.8 2 1.9.5 3.2.4 5.5 4.3 6.2.7.2 1.6.4 2.2 0 .9-.5.5-1.8 0-2.5-1-1-3 0-3.9-1.2-1.3-1.8.6-5.4-1.3-6.8-1.7-1.3-3.3.6-5 .1-1.2-.4-1.8-3.6-3.6-2.4m123.7-.2c-5.5.5-2.6 10.7 1.4 10.4 4.2-.3 5.8-6 3.2-9.1-.7-1-3.4-1.4-4.6-1.3m61.2-.1l-.8.8.2-.8h.6m-50.3.4c-.5 0-.9.2-1.3.3-.7 0-3.2 1-1.3 1.7 1.3.5 3-.7 4.2.6 1.5 1.7.3 6.1 3.1 6.6 3 .4-1-8.8 3.2-7.3 1.3.5 1.5 2.4 1.8 3.5.5 2.3 1.2 4.2 3.8 4.6a4 4 0 001.8 0c.8-.2 1.2-1 .7-1.6-.9-1.1-2.5-.5-3.3-1.7-1.1-1.6-.3-4.5-2-5.9-.7-.6-1.9-.4-2.8-.4-2.5 0-5.4-.7-8-.4m20.7 0c-2 .5-1.3 2.9-1 4.3.8 3 2 6.5 5.8 5.6 2.3-.6 2.4-3.4 1.9-5.3-.8-2.9-3.3-5.3-6.7-4.5m-79.9.4l-2.6.2h-1.6c-1 0-3 1.5-1 1.9 1.8.4 6.3-.5 7.7.7 1.4 1 1 4.5 1.8 6 1 1.8 3 1.6 3.8 3 1.6 3 1.1 8.6 1.8 12.2.2 1 1 3 .2 4-.9 1-3.2 1-3.8-.4-.3-.8 0-1.7-.4-2.6-.3-.6-1.1-1-1.7-.4-1.6 1.6-.5 6 1.9 6.1 1.7.1 5.6 0 6.6-1.5.9-1.2 0-4-.3-5.2-.4-1.9-.3-3.8-.6-5.6-.4-2-1.3-4-1.3-6l-.1-8c-.1-1 .1-2.3-.6-3.1-.6-.8-1.8-.6-2 .4-.2 1 1.3 6.4-1.1 6-1.5-.3-1-3.9-1.2-5-.5-2.8-3-3-5.5-2.7m-130.6 1.2c-.7.5-.4 1.4.2 1.8 1.5 1 4.2.3 5.4 1.7 1.3 1.6-1.2 5.5 1.2 6.3 2.5.9 1.7-4.3 2.3-5.5.5-1.2 2.4-1.2 3.5-1.3 4-.3 1.7 3.7 2.3 5.7.7 2.2 2.7 2.1 4.6 2.1.7 0 2 .3 2.7-.2 2.3-2-4.2-2.6-4.6-3.2-1-1.8.7-4.4-1-6-1.5-1.3-4.4-.4-6.1-.4-2 0-4.5-.6-6.6-.8-1.1-.1-2.8-1-3.9-.2m97.3 9.8c1.8 1.7 4 1.2 6.3 1.2 1 0 2.4-.4 2-1.7-1.2-3-4.8-.3-6.6-1.8-1.4-1.1-.6-3.4-1.2-4.8-1-2.7-6.4-4.1-8.1-1.3-2.4 4 3 13.3 7.6 8.4M33.6 68c-2.7 1-.5 4.5-.2 6.2.2 1.3-.1 2.3.8 3.4 2 2.4 10 2 12.6.7.7-.3 1.3-1.3.4-1.9-1.2-.8-3.4.4-4.4-.7-1-1-.6-3.8-1.1-5.2-.9-2.4-5.8-3.2-8-2.5m140.7 11l-1.2 5 1 5.3.4 7.1c-1.4.2-3.7 1-4.5-.8-.5-1.3 1-5.9-.8-6.1-1.8-.3-2 2.8-2 4 .2 4 4.9 7.4 8.6 4.4 1.4-1.2.5-4 .6-5.7.1-3-1.2-5.5-1.3-8.5 0-3 1.4-6 .8-9.2-.3-2 1-5.4-1.1-6.4-1.7-.7-8-.8-9 1-.5.9.4 1.8.7 2.7.6 2.3.2 5.2 2.3 6.7 1.5 1.3 3.7.5 5.5.5m111-10.9l-.2.3.3-.3m53 .7c1.7-.6 2.7 3.8 1.2 4.4-2.1.7-2.8-3.9-1.3-4.4m-32.3.6c1.6-.4 1.9 3.5.3 3.9-2.2.4-2.2-3.4-.3-4M59.5 70.7l-1-1 1 1m158.6-.6c2.5-.7 4.3 5.3 1.5 6-2.2.5-2.8-5.6-1.5-6m-49.3.3c1 0 2.4-.5 3.4 0 3 1.3-.4 8.5-2.9 5.4-.7-1-.4-4.1-.5-5.4M39.2 76.2c-.8 0-2 .1-2.6-.3-1-.6-1.6-4-.7-4.9 1.7-1.6 3.4 1.4 3.5 2.8l-.2 2.4m29 22.5l-.7 5.2 1-.2c1 3.8 1.5 8 1 11.9-.2 1 .1 2.7-.8 3.5-.8.7-2.2.5-3 .5-.2-1.4 1.6-8.2-2-6.4-1.2.7-.8 2.2-1 3.4-.2 1.4-1 3.2 0 4.5 1.3 1.8 7.4 2.1 8.7 0 .9-1.5.2-4.1.3-5.8.3-5.6-.6-11-.6-16.5 0-2 1.2-6.2 0-8-.9-1.5-6.1-1.7-7.6-1.2-2.5 1-2.3 7-.4 8.6 1.4 1.2 3.5.5 5.2.5m-2.4-6.8c2.9-.8 3.7 3.8 1.5 4.5-3 1-3.3-4-1.5-4.5M297.7 112c-1.2 4 1.4 8.2 5.5 8.2 0-3-3.7-3.7-2.8-7.3.5-1.8 6.2-.4 5.3-2.9-.4-1-2-.5-2.8-.4-1.7.2-2.7-.3-3.2-2-.9-3.2-1.7-6.4-2.3-9.6-.1-.9-.4-2.7-1.8-2.2-1.2.4-.9 2.4-.6 3.3.7 2.7 2.3 7 2 9.8 0 .7-.9 1.1-1 1.9 0 .8 1 1 1.7 1.2m58.1-15.3c-.8.7 0 2.1.3 3 .7 2 1.8 5.4 1.6 7.6-.1 1.6-4.4 1-5.3 3.2-2.2 5 .7 9.7 5.8 9.7 1.1 0 2.5.3 3.4-.5 2-1.4.2-4.7 0-6.6-.1-1.7 1.6-1.8 1.6-3.2 0-1.2-1.7-1.6-2.2-2.6-.8-1.5-.8-3.9-1.3-5.6-.3-1.1-1.8-6.7-3.9-5M31.5 111.6c.2-1.7.8-4.2.7-5.8-.1-1.3-1-2.2-1.3-3.4-.2-1-.2-2-.2-3 0-2.6-1.8-2.5-2.1 0-.4 3 1.2 7.7 0 10.3-1 2.6-4.5 1.7-5 5-.2 1.7-.5 7 1.3 7.8 1.7.8 6.3.2 7.1-1.7.7-1.4.3-3.7.1-5.2-.1-1.6 1.4-3.2-.6-4m58.5-.2c-1.9-.2-3.6-.4-5 1.1-1.6 1.7-1.6 7.5.3 9 2.2 1.8 7.2 1 7.3-2.2l-.3-4.8c.8-.2 1.6-.6 1.5-1.5 0-.8-.9-1.4-1-2.2-.8-2.4-.9-5.4-1-8 0-1.5.9-3.6.1-5.1-.5-1-2-.6-2.5.2-.5 1-.4 2.9-.4 4l.2 3.6c0 2 .2 4 .8 5.9m73.5 4c-.2 1.1.8 5.8 2.4 5.7 1.8-.1 1.8-2.1.3-2.6 0-1-.7-3.1.1-3.8 1-.8 3.6 1.6 3.8-1.2 0-2.7-3-1.5-4-3-1.5-2.2-.9-6.1-1.3-8.7-.2-1.1-.9-2.5-2.3-1.9-1 .5-.8 2-.8 3 0 2.8 1.4 5.7 1.1 8.4-.1 1.1-2.2 2-1.8 3 .2.8 1.8.8 2.5 1m78.4-15.1c-1 .4-.8 1.6-.6 2.4.5 1.6 2 4.7 1.4 6.3-.6 1.6-4.5 1.2-5.5 3.3-2.6 5 3.3 11.1 8.3 8.9 2.4-1 .5-3.5.3-5.2-.2-1.9.8-3.1 1-4.8 0-1.8-1.4-4.5-1.9-6.4-.3-1.3-.7-5.4-3-4.5m15.5 7.7c-.8-1.6-4-2-4.2.3-.2 2.8 1.3 4.5 1.5 7.1.2 1.8-.6 3.4.7 5 .9 1.1 5.7 1.9 6.4.3 1-2.4-3.4-1.5-4.2-2.5-1.8-2 .9-4.6.6-6.5-.2-1-1.8-.9-2-2.1 0-.8.6-1.2 1.2-1.6m25 11.4c2.9 1.7 8 3.2 8.1-1.9 0-.7 0-1.4-.2-2-.6-1.7-3.2-2.5-3.5-4-.3-1.5 2.4-1.6 1.3-3.4-.8-1.4-2.7-.7-3.3.5-.5 1-1.2 3.2-.4 4.3.9 1.2 4.8 2.7 3 4.8-1.3 1.6-4.4-.5-5 1.7m-265.7.5c-.8 0-2.1.4-2.9 0-2.9-1.8 5.2-6.7 0-6.9l2.3-4.7c-2 .2-6 2.1-5.6 4.7.3 1.3 1.6 1.8 1.5 3.2-.2 1.9-2 4-.5 5.8 1.6 1.8 5.5.4 5.2-2M264 108.3c-1 .8-.4 2.7.2 3.4 2 2.5 3.3 4.8 3.2 8 0 1.1-.9 2.3-1 3.5-.2 1.1-.6 3.3 1.1 3.6 1.8.2 1.6-2 1.6-3.1 0-3 .2-5.6-.4-8.5-.2-.9-.4-2 .7-2.4 1.2-.5 1.7 1 1.8 1.9.1 1.5-.9 3.6-.2 5 .8 1.7 6.6 2.7 8 1.2 2.1-2.4-4.7-2.2-5.2-2.8-1.3-1.7.2-5-1.5-7-1.2-1.5-2.9.2-4.2-.8-1-.7-2.3-3.4-4.1-2m49.8 1c-1.2.1-2.7.2-3.5 1.2-1.5 2 .2 7.4 1.7 9 1.8 1.8 3.6.5 5.8.6 1.2 0 2.4.7 3.7.3.8-.3 1.2-1.1.7-1.9-.6-.9-2-.5-2.5-1.5-1.6-3 1-7.6-3.8-7.9l-2.1.1m19.6 2.6c1.3-.2 3.5-.8 4.6.2 2.1 1.9-.4 5.7 2.5 7.3 1.9 1 4.1.6 6.1.5.9 0 2-.5 1.3-1.6-1-1.6-4.5 0-6-1-1.7-1.5.2-5-1.5-6.7-1.1-1.1-4-.8-5.4-.7-2.6.1-5-.6-7.7-.4-1 0-3.4.2-4 1.2-.5 1 2 1.9 2.7 1.9 1.2 0 2.2-1.7 3.3-.8 1.8 1.2.6 4.4 1.5 6.1.6 1 2.4 1.8 2.9.3.5-1.8-.3-4.4-.3-6.3m-108-1.5c-3.8.4-7.8 1.2-11.6 1.2-.6 0-4-.4-3.4 1 1 2.2 5 .1 6.4 1.3 1.4 1.3-1.2 7 2.3 7 1.7 0 1.2-3 1.2-4-.3-3.2 1.2-4.7 4.6-4.2 2 .3 1.4 4 1.7 5.5.7 3.2 4.2 3.9 7 3 .9-.1 1.6-1 1-1.8-1.1-1.4-3.3 0-4.5-1-2.5-2.5 1-8.6-4.7-8m130.8.3c2.7-.7 4.6 6 2.5 6.6-3 1-3.7-.7-3.6-3.3 0-1-.1-3 1-3.3m-326.7.1v.6h-.6v-.6h.6m73 .4c-3.9 1.1-4.3 7.6-1.5 10.1 1 .9 3.7 1 5 .7 3-.8 1-3.8.8-5.9-.2-1.2.6-2.6.2-3.7-.4-1.4-3.3-1.5-4.5-1.2m99.7 7.3c-.7 0-1.6.3-2.3.2-3-.7.3-6-2.2-7.3-1-.6-5.9-.9-5.9.7 0 2.1 3.6.9 4.3 2 1.1 1.7-.6 4.4.4 6.2 1.1 2.1 4.7.7 6.5 1 1.3.2 6 1.2 6.9 0 .5-.8 0-2-.8-2.4-1-.4-2.4.3-3.3-.6-1.2-1.3.1-4.2-1-5.8-.6-.9-2.2-.7-2.6.2-.6 1.3 0 4.3 0 5.8m111.7-7.2c2.5-.3 3.7 6.7 1 6.8-1.9.1-3-6.6-1-6.8m-192.4 1.1l.3 3.2 3.7-1c0 1.7-.4 6.2 1.6 7 3.3 1 1.2-5 2-6.2.7-1.3 3.6-.9 4.9-.5 2.6.7 0 5.5 2.6 7 1.2.5 5.1 1.2 6.1-.1 1.5-2-3.8-2-4.4-3-1-1.8 0-4.1-.8-5.8-1.1-2.4-7.8-1.7-9.6-.6-.5-2-5-.3-6.4 0m27-.6c-2.7 1-2.7 7.5-.9 9.5 1.2 1.3 4.1 1 5.7.4 2.2-.9 1.4-3.2 1.3-5 0-1 .6-2.6.2-3.4-.7-1.6-4.8-2-6.3-1.5m93.4.2c1.9 0 3.4 6.4.8 6.5-3 .1-3.8-6.3-.8-6.5m-137.3 7.8c-3.7-.3-2-8.3-.6-3.7l.4 1.3c.2.8.2 1.6.2 2.4m47.1 0H150l-.2-5.8c2 1 1.8 3.8 1.8 5.8m-125.4-.2l-.3-2.4c0-.5-.2-1 0-1.6 1-5 7.8 3.5 3 4.2-1 .1-1.9-.2-2.7-.2m61.5-5.2c2.7-1.1 3.2 4.6 1.7 5.2-2.5.9-3.6-4.4-1.7-5.2m-48.5 4.8c-1.8.3-1.1 2 .5 1.6 1.5-.3 1-2-.5-1.6M28 121.4l-1-.8 1 .8m137.4 43.4c-.3-3.6-3.8-1.4-5.8-2.7-1-.7-1-3.3-1-4.4-.4-3.9-1-7.6-1.6-11.4-.6-4.2-1.2-8.5-1.6-12.7-.1-1.1.5-3.8-1-4.2-4.6-1.4-1.9 8.2-1.7 10.5.2 3.3 1.1 6.5 1.4 9.8.2 2.9.2 6.3 1 9 .4 1.4-.1 3.9 1 4.9 1.6 1.5 7 1.2 9.3 1.2m-1-35.2c-.7 5.2.4 9.7 1.3 14.8l1.5 10.4c.4 2.8.3 7.4 2.7 9.4 1.5 1.2 7.7 2 7.6-1-.1-2.8-5.4-.1-6.4-3.2-.6-1.8-.3-3.7-.5-5.5-.9-6-1.4-12.5-3.2-18.3-.7-2.2-.2-6.5-3-6.6m141.5 1.9v.8l.5-.3v-.3l-.5-.2m-74 1c-2 .8.1 5.4.3 6.9.6 3.4.7 7 1.2 10.3.3 1.4 1.4 2.5 1.2 4-.1 2.3-1.5 7.5.5 9.4 1 .8 2.4.3 3-.7.5-1.2.3-7.6 2.9-6 1.6 1 .7 3.3 1.3 4.7.7 2 6.1 3.5 7.8 2.1.7-.5.2-1.4-.4-1.8-1.2-.7-2.7.3-3.8-.5-1.7-1.2-.8-4.5-1.7-6.1-1.4-2.4-5.6.2-6.9-1.7-.5-.9-.2-2.4-.5-3.4-1-4.2-.7-8.7-1.6-13-.4-1.6-.8-5.4-3.4-4.2m47.9 24.9c0 1.9-.1 4.7 1.6 5.9 1 .8 5.8 1.6 5.8-.6 0-1.6-2-1.1-3-1.5-1-.4-1-1.5-1-2.5 0-1.8 3-1 2.7-2.6-.4-1.3-2.2-1.3-2.6-2.7-1.1-4.3-.7-9-2.3-13.2-.5-1.3-2-4-3.8-3.1-1.1.6-.9 2.4-.5 3.3 1.5 3.4 2.5 6.6 3 10.4.2 1.1.8 3.4-.5 4-1.2.8-3.4.1-4.2 1.4-1.4 2.1 4 1.4 4.8 1.2M41 163.2c0-1.4.3-3 1.2-4.2.5-.8 1.6-1.4 1.8-2.4.4-2-2.2-1-3-.5-.5-2.4 1.8-2.8 1.8-4.5 0-2.7-2.9-1-3.5.2-.6 1.2-1.4 3.8-1 5 .3 1 1.5 1.8 1.4 3-.2 1.8-2.7 4.3-.3 5.8 1 .6 5.1.3 6-.5 1.3-1.4-1.3-2.2-2.3-2.1l-2 .2m28.2-.3c-1.4.2-6.2 1.6-7 0-1.2-2 1.2-4.9-1-7-1.5-1.3-4.3.4-5.5-.8-1-1 .2-4.3-2-4.4-1.8-.2-2 3.4-1.9 4.6.2 1.8 1.8 2.7 2 4.2.3 3.7-2 7.4-2 11.1 0 1.3-.1 3.2.9 4 1 1 2.3.1 2.3-1 0-4 .4-7.6.7-11.4.1-1.5-.2-4.2 2-4.2 1.2 0 1.4 1.7 1.5 2.6.3 2.3-.7 5 2.3 5.7 2.7.6 7-.4 7.7-3.4m73.6-7.1c.1-1 1-1.6 1-2.4.2-1.3-2.2-1.1-2.8-.6-3.2 2.4-.2 5 0 7.5.2 2.1-2 3.4.7 5 1.3.9 6.9 1.2 5.8-1.5-.7-1.8-3.1-.2-3.6-1.8-.8-2.5 3.5-6.1-1.1-6.2m129 8.5c-.1-4-4-.8-5.8-2.8-1.5-1.7.4-5.4-1.3-6.8-.7-.6-1.8-.5-2.6-.7-2.3-.5-6.2-1.8-7.7 1-.6 1.3.3 3.4.7 4.8.2 1.1.3 2.5 1.2 3.3 1.3 1.2 3.2.8 4.7 1l10.9.2m54.8.5c.4-5.7-7-.8-10-3-2.6-1.6-.1-5.9-2.5-7.7-2.4-1.7-8.7-1.6-10.2 1.2-.7 1.2.1 2.7.2 4 0 1.3-.1 2.5.7 3.6 1.6 2.1 4.4 1 6.7 1.1 5.1.1 10 1.1 15 .8m-293.6-7.7c-1.7-3-7-3.6-9.3-1-1.6 1.8-2 5-4.5 5.8 0-1.9.5-6-1.4-7.1-1.4-.9-3 .3-4.4.1-.8 0-1.6-.8-2.3-.6-.6 0-.8.7-.7 1.2.9 3.2 5.5.7 6.5 3 .5 1.3-1.3 6.8.7 6.7 3.5 0 5.2-5 7.5-6.9 1.6-1.2 5.9-1 7.9-1.2m191.3 0c1.7 0 4.1.9 5.8.4 1-.3 1.9-1.7 1.3-2.6-.5-.8-1.6-.7-2.4-.7-2 0-5-.9-6.6.4-2.4 1.9-.5 5.9-2.5 7.6-.8.7-2.3.7-3.3.8-.7 0-1.5.3-2.1.2-2.1-.4-1.4-5-1.6-6.6-.1-.6-.1-2-.9-2.2-1-.2-1.9 1.2-2.1 2-1 2.8.8 7.1-3.9 6.7-.6 0-1.5-.1-2-.6-1.6-1.8.9-5.6-1-7.4-1.2-1.1-5.5-.3-7 0-.7.2-1.7.6-1.7 1.5 0 2.7 5 0 6.3 1.4 1.5 1.8-1 4.6 1.5 6.3 1.7 1.3 4.6.7 6.6.5 3-.2 6 0 9 0 1 0 3.7.3 4.6-.5 1.4-1.1 1.7-5.5 2-7.2m16.1-3.1l.3 1h-.3v-1m-168.3 1c-1 0-3.3 1.8-1.7 3 1.3.8 3.6-1.2 4.5.5 1 1.9-.8 4.4.3 6 1.6 2.3 4.9 0 6.6 1.5 1.2 1.1.3 3.3.1 4.6-.5 3.4.1 7-.3 10.3 0 .7.3 1.7 0 2.3-.4.7-3.5.6-4 0-1.3-1.6 1.2-4.4 0-5.8-.8-1-2.9.6-3.2 1.5-.3.7 0 1.8.1 2.6.1 1.1 0 3.2 1 4 1 1 6 .4 7.5.2 2.5-.4 1.7-4 1.6-5.8-.3-5.8-.4-11.8 0-17.5 0-1.6 1.5-5 .5-6.5-.8-1.2-2.5-.4-3 .7-.4 1.2 0 2.7-.3 4-.2 1.6-2.3 4-3.8 1.7-1.3-2 1-6-2-7-.6-.4-1.3-.3-2-.3-.6 0-1.3-.2-1.9 0m57 3c.7 0 5.6-.4 4.5-2.1-1.1-1.6-6-1.2-7.1 0-1.6 1.6 0 5.2-1.6 6.6-.7.7-1.9.7-2.8.8-.6 0-1.2.2-1.8 0-3.5-.7.7-6.8-2.4-7.8-3.5-1.1-2 4.9-3 6.4-.5 1-3.3 1.8-4.2.8-1.5-1.6 1-5.3-.8-7-1.3-1.3-8.2-1.6-8.1.6.1 2.7 4 .8 5.4 2.2 1.6 1.9-2 5.3.7 7 2.2 1.6 6 0 8.4 0 3 0 8.7 2.2 11.2-.7.9-1.1 1-2.4 1.2-3.7.2-1 .3-2 .3-3.2m129.4 3.7l-1.3-5.5c3-1.5 7.4 3.5 4.1 5.4-.8.5-1.9.2-2.8.1m49.3-5.9c3-1.4 3.7 1.9 3.5 3.8 0 .7.5 1.6-.2 2-3.6 2.1-5.8-4.7-3.3-5.8M15.8 173l2 .3c.1-1 .4-3.7-1-4-2.3-.7-1.3 2.9-1 3.7m37.6 0v.8H53v-.8h.5m-37.5.3c.5 3-.7 5.9-.4 9 .1 1.3.9 2.6 1 4 .7 4 1 8.5 1.3 12.6.2 2.5-1.2 5.9-.5 8.2 1 3 7.1.8 8.5-.6 1.3-1.3.7-3.8.7-5.5 1.5 0 7.5 1 6.8-1.5-.3-1-1.5-.8-2.3-.9-1.7-.1-6.1-1-7.1.7-1 1.6.7 3.8-.6 5.3-.6.8-2.3 1.2-3 .3-.8-1.5.2-5.7 0-7.6-.7-7.7-.5-15.5-2.3-23l-1 .8-1.1-1.8m203.7 34.1c3 .3 3-3.2 2.8-5.3 0-.7-.4-2 .5-2.3.9-.5 2.6.6 3.3 1.1 2.5 1.4 4.2 3.7 6.6 5.2.8.5 2 1.3 2.9 1 1.5-.4-.2-2.4-.7-3-1.4-1.4-3-2.7-4.5-4-.7-.5-2-1-2.2-2-.5-2.4 2-4.8.7-7.3-1-2-3.4-.7-3.8 1 3.4.3.2 7-2.5 3.9-1-1.1-.9-3-1-4.4-.7-4.1-1-8.2-1.5-12.2-.2-1.4 1-5.2-1.4-5.2-2.8 0-2 6-1.8 7.8.3 4 1.5 7.8 2 11.7.3 2.2 0 4.4.2 6.6.2 2.2 1 5.2.4 7.4m68.9-32.9c-.9.4-.6 1.7-.6 2.5l.5 6.8c.4 3.8 1 8.4.8 12.2-.3 2.7-1.3 6.6-.3 9.3.8 2 5 2.4 6.9 1.6 4-1.6 1.3-4.2 2.5-6.8 1-1.9 5.6.6 7.1-1 .9-1-.3-1.6-1.1-1.7-2.1-.3-7.8-1.3-9.4.4-1.2 1.3.4 4 0 5.6-.2 1-1.4 1.3-2.2.8-1.8-1.2-.6-4.4-.5-6 .1-5.8-.2-11.8-.6-17.5-.1-1.6 0-7.7-3.1-6.2M63 176.7c-.7 2-1.3 4.5-.6 6.6l.8-.2c-.4 1.8.5 3.4.8 5.2.8 4.8 2.3 9.4 2.5 14 0 2-1.2 5.7 1.8 6.2 4.1.8-.1-7.5 3.1-7.3 4.3.4 1 5 3.3 6.8 1.2 1 5.1.5 6.5 0 .7-.1 1.8-.7 1.5-1.6-.6-1.8-4 0-5-1-1.8-1.4.2-5.4-2.1-6.5-1.7-1-5.8.4-6.6-1.6-2-4.5-1.8-10.5-3-15.3-.6-2-.8-4.5-3-5.3m43.1 49c1.6.3 4 .5 5-1.1l-.8.3a45.2 45.2 0 01-1.5-13.3c0-3.4.9-7.3-.6-10.6l2.1-.4c5.4-1.1 1.4 5 3.3 7.3 1.3 1.5 7.5 1.8 8.7 0 1.5-2.4-4.6-1.4-5.2-2.7-.9-2 .6-4.4-1.1-6.1-2-2-6 .3-8.2-.8-.8-.3-1-1.5-1-2.3a48 48 0 01-.7-7.4c0-1.5.3-9-2.3-8.4-1 .2-.8 1.9-.8 2.6-.3 2.8 0 5.6 0 8.5 0 3.7.2 7.9.8 11.6.3 1.5 1.2 3 1.4 4.5.3 4.4.4 9 .4 13.5 0 1.6.7 3.1.5 4.8m-1.3-44.8l.2.3-1 1 .2-1.3h.6m-86.3 2.2l-.2.2.2-.2m323.9.7l1.8.6c-.3-1-1-1.1-1.8-.6m.8 13.8c-.1-1.7-.6-3.3-.6-5 0-1.8.5-4.5-.3-6-.6-1.3-2.2-1.2-2.8 0-2 3.4.7 8.9.4 12.6-.1 2-.7 4.8.5 6.6 1 1.3 3.3 1.6 4.9 1.3 1-.2 1.9-1.6.9-2.3-1.5-1.3-4.1-.4-3.2-3.7.5-1.7 2.4 0 3.4-.9 2.6-1.8-2.2-2.6-3.2-2.6M37.7 186c-1.2.7.2 3.8 1.6 3 1.4-.7-.3-3.8-1.6-3m215.1 2.9c-1 .8 1 2.8 2.1 2 1.3-.9-1-2.9-2-2M121.6 198l3.7.3.5-4.8c-3.6-.8-4.2 1.2-4.2 4.5m86 1.4c.8 2.2-.3 4 0 6.3.5 2.5 4.2 2.2 6 2.1.8 0 2.4-.2 2.2-1.3-.3-1.8-4-.7-4.8-2-1-1.6.6-4.2-.4-6.1-1.2-2.2-4.4.2-6-.7-1-.5-.7-2.2-1.6-3-.6-.4-1.5-.4-2 0-2.6 2.5.3 4.3.8 6.3.8 3.3-1 7.7-1 11 0 1 .8 2.5 2 2.2 1.4-.3 1.5-3.7 1.6-4.8.3-1.8.5-4 .2-5.8 0-.9-1-2.2-.3-3 .7-.9 2.3-1 3.3-1.2m57.1-4.4a4 4 0 00-1.5.6c-5.3 3.6 4.8 5.1 4.2 8.2-.3 2.2-4 1-5.3 1.7-1.4.9.4 2 1.3 2l1.6.1c.7 0 1.4.2 2.1.1 3.8-.5 3.8-5.4 1.3-7.5-.9-.8-2.9-1-3.4-2.2-.6-1.2 1.4-1.3 1.4-2.3 0-.8-1.1-.8-1.7-.7m-210 11.2c-2 0-4.5-.7-5.6 1.4 2.2 1.4 6 3 8.1.4 2.5-2.9-1.4-7.2-3.9-8.4v-.5l3-.5c-.4-3.3-5.9-3.1-6.3.2-.5 3.6 3.9 4.5 4.7 7.4m77.5-7.1v-.5l2.1-1c-1.4-2-6.9-1.6-6.2 1.5.6 2.8 5.4 1.3 5.3 4.8 0 2.4-3.7 1.3-5.2 1.6-.9.2-1.4 1.1-.7 1.9 1.4 1.4 5.7 1.9 7.3.8 2-1.5 2.7-6 .7-7.8-.8-.8-2.2-1-3.3-1.3m118.6-2.6c-1.2.7-.6 2.8-.8 4-.3 1.6-1.8 3.7-1.2 5.5.6 1.8 5.3 2.4 6.6 1.1.5-.4.5-1.2 0-1.7-.9-.8-2.4-.2-3-1.3-1-1.7.4-4.7.2-6.6 0-.9-.9-1.6-1.8-1m63.7 0c-.9.2-1.8.2-2.7.2h-1.8c-1.4.2-2.8 1.6-.8 2.2 1.7.6 5.2-.7 6.5.6 1.6 1.7-.9 5.1.7 7 1.1 1.2 2.7 1 4.2 1 3.4 0 6.6.2 10 .3 1.2.1 3.4.4 4.5-.2 1-.7.7-1.8-.3-2.3-1.9-1-5.6.8-7.2-.8-1.7-1.7 1.2-6-1.7-7.1-1.2-.4-2.4.2-2.5 1.4-.2 2.2 1.5 7-2.8 6.3-2.6-.4-1-4-1.1-5.7 0-3-2.7-3.1-5-2.8m-270.7 12c.2-3.2-1.6-1.6-2.9-3.5-1.2-1.8.4-6.8-1.2-8-1-.9-2.2.2-2.4 1.2-.5 2.6-1.7 8 .7 9.9 1.4 1 4.1.4 5.8.4m126-3.4l.2-8c-5.8-1.6-1.6 7.7-5.5 8.2-5.3.7-1.6-6.8-5-7.8-1.8-.5-6.1-1-7.7-.1-1.2.5-3.5 1.2-2 2.8 1.9 1.9 5.5 0 7.4 1.4 1.3.8.7 2.8 1 4 .4 1.3 1.9 2 3.1 2.3 1.3.3 2.5-.2 3.7-.1 3 0 9.7 1.7 12-1 1.4-1.5.2-3.8 1.3-5.4.5-.7 7.8-.8 4.8-3.2-1.5-1.2-6.7-1.1-7.8.6-2 2.7 1 6.2-3.7 6.5a6 6 0 01-1.8-.2m23.2-8.1c-1.3.1-3 0-4.1.8-2.2 1.7-3 7.3-.8 9.2 1.5 1.3 4 .9 5.7.7 3.7-.4 2.3-3.8 2-6-.2-2 .4-5-2.8-4.7m-104.7.9c-2.6.4-1.8 2.2-1.8 4 .2 3.3 1.3 7.7 5.5 7 4.5-.6 4.9-2.4 4.3-6.5-.2-1 0-2.4-.8-3.2-.6-.6-1.5-.2-2.2-.3-1.7-.2-3.3-1.3-5-1m2.6 1.4l-1-.3 1 .3m5 6.6c-1.5-1-2.4-4.6-2.9-6.4 2.6 0 3 4.4 3 6.4m97.3-.8h-2.6c0-1-.7-5.2.8-5.2 1.4 0 1.6 4.2 1.8 5.2m-99.2.2c-1 .4-2.4 1-3.4.3-.8-.6-1.6-4.5-.8-5.4 1.1-1.4 3.2 1.6 3.5 2.5l.7 2.6m187.3 4.8l-1.3-1 .3-2.4c-1.2 0-3.2 1.2-1.8 2.5.7.6 2 .7 2.8 1m39.3 7.3c-3 1.7.8 7.1 1.2 9.3.8 4.2 1 9.4 1 13.7 0 2.4-.8 5.1 0 7.4.8 2.6 4.6 2.8 6.7 1.7 3-1.6 1.7-3.6 2.4-6.1.7-2.4 3.4-.2 4.4-1.8 1.7-2.4-5.3-2.5-6.5-1.7-2 1.4.3 4.5-.8 6.3-.7 1.1-2 1.5-3.2.8-1.7-1.1-.5-4.6-.6-6.3 0-5.3.3-11.9-1.2-17-.3-1-1.4-7.4-3.4-6.3m-300.4 9.5c.4 1.8 0 3.3 0 5 .2 4 .8 8 .1 12-.3 1.5.3 3.8-1 5-1.1 1-4.1.9-4.7-.8-.3-.8.2-1.8-.4-2.5-.8-1-2.7-.8-3.1.4-1.7 5.4 7.1 8.1 10.5 5 1.6-1.3 1-3.8 1.2-5.6 1-6.4.3-12.6.3-19 0-1.7 1-6.6-.4-7.7-.9-.7-2.3-.4-3.3-.6-1.7-.2-5-.8-6.4.6-.8.7-.5 2.3-.5 3.2.2 4.4 3.7 6.2 7.7 5m-5.6-6.6c.8-.4 1.5-.5 2.4-.5h2.4c1.2.4 1.7 3.6 1 4.6-1.2 1.5-4.9.9-5.4-.9-.3-1-.2-2.1-.4-3.2m307.5-.2c0 .6.6 1.8.2 2.4-1.1 1.6-1.5-1.6-1-2.4h.8m-22 7.6c1-.3 1-.6.8-1.6l-.8 1.6m-99.5 13.3c-1.6 0-3.5-.1-4.7 1 1.2.8 4.6 1.3 5.2 2.4 1 1.7-1 4 .6 5.5.8.7 4.8 1.3 4.8-.5 0-1.3-1.8-1.3-2.5-2.2-.7-.9-.5-2.3-.5-3.3.9 0 3.2.7 3.2-.8 0-2.1-3.2-1.5-3.7-3.5-1-3-1-6.4-1.6-9.5-.2-1-.4-3-1.6-3.2-1-.3-1.3.9-1.2 1.6.1 2.3 1 4.6 1.2 7l.8 5.5m99.4-12.2c-1.5 1 .4 4.8.6 6 .3 1.3.8 2.5.8 3.8 0 1.4-1 2-1.2 3.2 0 1 1.1 2 1.4 3 .4 1.3 0 2.6.5 3.8.9 2 3.9 1.9 5.3.6 1.6-1.5-3-2-3.2-3.7-.6-3.2 3.2-2 3-4.3-.1-1.7-2.1-.5-3-1.2-.8-.8-.7-2.8-.8-3.8-.3-2-.5-4.4-1.5-6.3-.3-.7-1-1.7-1.9-1.1m-113.9 1.3c-1.8.8.4 3.9 2 3 2-1.1-.3-3.8-2-3m161.4 5c-1.6.8-2.5 5.2-1.8 6.6.4.9 1.6 1.2 1.8 2.2.3 1.6-1.7 3-1.8 4.5-.3 2.7 4.7 3.2 6.4 2 3-2-3.4-2.3-3.4-3.1-.1-2 2.6-3 2.6-4.7 0-1.3-2.9-.9-3.4-2.2-1.2-3 2.5-2 2.8-3.2.4-1.5-2.1-2.6-3.2-2m-213.8 0v1l1-1h-1m16.1 14.2c-1.2-.5-4.5 0-5.2-1-1.2-2 .8-5.4-1.2-7-1.5-1.2-3.6 1-5.1 0-1-.5-1.4-5.4-3-4.6-1 .6-.6 3.7-.6 4.7.1 1.2.9 2.2 1 3.4.4 3.6-.3 7.3-.4 10.9 0 1-.7 4.9 1.5 4.3 1.2-.4 1-3 1-4 .2-3.3-.2-7 .2-10.1.1-1 .7-2 1.8-2.3.8-.2 1.9-.2 2.2.7.7 2-.8 4.4.2 6.3 1.5 2.7 7 1.2 7.6-1.3m6.9-11.2c-1.7.5-4 3-2.7 4.9.6.9 2.2 1.1 2.5 2.2.3 1.2-.7 2.6-.5 3.9.5 2.7 4.3 3 6.5 2.2.8-.3 1.3-1.3.7-2-1.2-1.2-3.6.3-4.6-.7-1.4-1.6 1.4-4 1.4-5.4 0-1.7-3-.1-3.6-1.6-.5-1.3 1.7-1.7 1.7-2.8 0-.8-.9-.8-1.4-.7m134.1 4.9c1.3-3.1-1.4-4.6-3.8-2.3-2.8 2.7 3.9 4 4.7 5.2 2 3-4.6 1.3-4.3 3.4.2 1.7 4.1 1.6 5.3 1.2 3.7-1.5.8-6.8-1.9-7.5m-192.8-.5c.9-.1 2.5-.8 1.4-2-1.3-1.3-4.5-.3-4.4 1.7 0 2 2.4 3.5 3.8 4.6.4.4 1.8 1.4 1.3 2.1-1 1.8-8-1.5-8 1-.1 1.2 1.5 1.8 2.4 2 2.2.7 7.6 1.1 8.6-1.5 1.6-4.4-4.6-4.7-5.1-8m133.6 1.1l8.2-.5c0 1.7-1.1 6.5.8 7.3 2.6 1.1 1.8-5.8 1.8-7 1.5 0 5.4-1 6.4.3 1.3 1.7-.1 5.9 1.9 7 1 .6 7 .4 6-1.4-1-1.8-3.8-.3-4.5-2-.8-1.8 0-5-1.7-6.4-1.2-1-5-.4-6.5-.4l-16.7.2c-1.3 0-6.4-.8-7 .9-.3 1 .7 1.5 1.5 1.8 2 .6 4.2 0 5.6 1.7 1.4 1.6 0 3.8 1.2 5.3.9 1 2.4.3 2.9-.7.9-1.7 0-4.2 0-6m37.1 4.4c-.2-2-.2-5.9-2.2-7.2-1-.6-7-1.2-7.4 0-.5 2.6 5.1 1.9 6.1 2.8 1.8 1.7-.2 5.2 2 6.8 1.2.8 2.6.3 3.9.3 2.6-.2 5.1.3 7.7.2.8 0 3-.2 2.7-1.6-.7-2.5-4.4-.3-5.7-1.5-1.1-1 .1-8-2.6-7-2 .7.2 5.1-.8 6.6-.7 1-2.7.6-3.7.6m-222.2 4.2c-.4-3.6-2.7-1.3-4.4-3.2-1.7-2-.3-6.2-2.8-8-.7-.5-1.6-.4-2.4-.5-1-.1-2.6-.4-3.5.5-2 2.2-.9 8.5 1 10.3 1.5 1.3 4 .8 5.7.7 2.1-.2 4.3.2 6.4.2m63-11.6c-.2 1.5-.9 4 1 4.5.5-1.8 4-2.4 5.4-1.2 1.7 1.6.6 5.1 2.2 7 1.3 1.4 3.7.7 5.4.7 2 0 3.7.5 5.8.2.8 0 2.3.3 3-.3.8-.8-.2-2.2-1-2.5-1.3-.6-4.4.6-5.4-.4-.6-.6-.1-1.7-.2-2.4 0-2.9-.9-5.2-3.8-3.7.8 1.4 1.1 3.3.7 5-.3 1-1.6 1.6-2.5.9-1.9-1.6-.4-5.6-2.8-7-2.3-1.4-5.4.1-7.9-.8M55 244.4c-.3 1.4-.6 7 1.6 7 2.6 0-.5-6.2 3-6.7 2.4-.4 3.9.7 3.9 3.2 0 1 .2 3.5 1.6 3.7 2.5.4-.1-6.5 2.2-6.6 5.5-.2 2.7 4 5.3 6.5 1.8 1.7 3.6.4 5.7.6l.5-1.3c-1.1-.8-3.7-1-4.5-2-1.2-1.5-.3-5-2.6-5.7-3.3-1-7.5-.3-10.8-.6-2.9-.2-5.6-1.2-8.5-1.1-.8 0-7.7-.6-5.8 2 .4.7 1.7.7 2.3.7 2.2-.1 4-.2 6.1.3m130-2.8c-1 .5-.5 2.4-.6 3.4-.3 3.4.7 6.3 4.2 6.6 1 .1 1.8.4 2.6-.1.7-.4 1-1.4.5-2-1-1.2-2.7 0-3.8-1-1.2-1-1-4.1-1.3-5.6-.2-.8-.6-1.9-1.6-1.3m-91 .2l-.9 3.7h.3l.5-3.7m2.7.8l.2.8H96l.6-.8m-58.5.8c.4 1.4 1.3 4 .9 5.5-.4 1-2.4 1.2-3 .4-1-1-.8-4-.8-5.4l2.9-.5m1.6 4.5h.3l-.3 1.3v-1.3m20.4 2l1 .9-1-.8m30.4 1.3l-.3.8 1 .3-.2-1h-.5m-31.2.2v.2l2.3.3v-.5h-2.3m9.8.8v.2h.8l-.8-.2m146.3 8c-3.2.7-1.7 3.7-1.2 6 1.3 6 1.7 12.1 2.4 18.3.1 1-1.8 7.5.9 6.9 1.1-.3 1-2 1.4-3 1.3-3.7-1.4-8-.2-11.6.4-1 2-1 2-2.1s-2-.7-2.5-1.7a24 24 0 01-1.5-9.2c.3-2.4 4.7-.3 6.1-1.8.9-.9-.3-1.4-1-1.5-2-.4-4.5-.6-6.4-.2m41.2 30.5c.3-4-.7-8.5-1.5-12.4l-1.5-7.7c-.5-2.9-.6-5.8-1-8.7 0-1-.7-2-1.7-1.7-1.8.5-.7 5.9-.4 7.2 1 5.8 2.4 11.5 3.4 17.2.4 2.5-1.1 5.2 0 7.4.9 2 6.3 3 8.2 1.6 1-.6.3-1.8-.5-2.3-1.4-.8-3.4-.2-5-.6M180 260.6c-1.1 2.4-.1 5.7.2 8.2.9 5.7 1.4 11.4 2 17.2.3 2.1-.2 4.9.9 6.9 1 1.8 3 1.4 4.9 2 1-3.7-3-2.5-3.2-5.5-.5-7.2-1.3-14.4-1.9-21.7-.2-2.7.3-6.5-2.9-7.1m-39.1.5c-.5 3.2 1.7 6.4 2.2 9.5 1 5.4.4 11 1.8 16.2.5 1.9-.7 5.9 1.3 7 1 .6 1.7 0 1.8-1 .2-2.7-1-5.5 3-5.5 1 0 2 .2 2.6 1.3.7 1.8-.7 4.6 1.3 5.9 1.3.8 8.5 1 8-1.4-.4-2.4-4.7.2-6-1.2-2-1.8.3-5.6-2.6-7.2-1.7-1-5.6 1.3-6.7-.6-.7-1.2-.5-2.9-.8-4.2-.8-4.5-.7-9.1-2-13.5-.8-2.6-.7-5.3-4-5.3m62.2 25.4c.8 2 .1 5.2 1.3 6.9.9 1.3 5 1.7 6.2.6 1.4-1.5-1.6-2.2-2.4-2.2h-2.4c-.2-1.9 1.2-6-.8-7.1-1.8-1-5.2.9-6.5-.7-.7-.8-.7-2.7-1-3.8-.5-3-1.2-5.9-1.8-8.8-.2-1.1-.2-3-1-3.9-.6-.8-2-.7-2 .5-.2 1.5.6 3.8 1 5.3.8 3.3 2 7.1 2 10.6 0 1-.8 2-.7 3.1 0 1.4.8 2.6 1 4l1 14a37 37 0 001.7 8.5c.4 1.1.8 2.7 2.3 2.3 2.4-.7.5-6.7.3-8.4-.5-4-.6-8.7-1.8-12.7-.6-2-2-5.3-.4-7.3.8-1 2.9-.6 4-.9M61 269.8l.5.6v-.6h-.5m-4 .8v1.6h.3l.5-1.6h-.8m2.4.8c-1 .6-1 2.2-1.2 3.2-.6 3-.2 6.4-1 9.2-.6 2-4.7.1-6 2.3-.6 1-.1 2.7 0 3.8.1 1.3-.1 3.4.5 4.5 1 2 5.1 1.9 6.9 1 1.8-1 .7-3.8.8-5.5.5-5 .4-10.2 1.4-15.3.2-.9.4-4-1.4-3.2m64.3 5h.2l.8-.7 1 8.7c-2 .1-4.2-.3-6 1.4-1.7 1.7-2.1 8 .5 9.1 1.5.6 7 1 8-.6.7-1.2.1-3.5 0-4.9-.2-3.1 0-6.3-.3-9.5-.1-1.5.5-4.9 0-6-1.8-3.6-4 .7-4.2 2.6m206.7-3.5c-2.6 1.4 0 6.2-.5 8.2-.6 2.2-4.3 2-5.4 4.2-2.3 4.5 2.1 11.7 7.4 9 1.6-1 .9-3 .9-4.5 0-1.8.6-3.5.6-5.2 0-2.2-.7-5-1-7.2-.2-1-.1-5.4-2-4.5m-2.5.5l.5 1.4h.3l-.8-1.4m-153.4 18.8h-3.7l1-4.2 1.3-3.2h-2c.4-.8 1.9-1.2 1.9-2.4 0-2.3-3.2-.7-3.8.4-1.2 2 .2 3.8 0 5.8-.2 1.5-1.4 2.6-1 4.2.5 1.9 4.2 3.3 5.8 2 .7-.5.5-1.8.5-2.6m60.6-.2l-.3-.3c.3-1.6.5-6.4-1.1-7.3-1.7-1-9-1.4-9.6 1.2-.2 1 1 1 1.7 1 1.6 0 4.6-1.1 6 .2 1.3 1.5.2 4.7 1.4 6.5 1.4 2.1 8.1 1.3 10.6 1.3.9 0 2.5.3 3.2-.4.6-.6.4-1.5-.3-1.8-1.4-.6-3.5.1-4.7-.9-1.4-1.1-.2-4-.4-5.6 0-1-.7-1.8-1.7-1.3-1.8 1-.4 4.2-1 5.8-.6 1.4-2.6 1.3-3.8 1.6m44.4-7.8c-2.6.8-1.4 8 .1 9.5 1 1 2.7.6 3.9.6l7.1.3c1 0 2.4.6 3.4.1 1-.4.8-1.6 0-2.2-1.8-1.2-4.4.3-6-1-1-.8-.8-2.4-1.2-3.5-1.2-3-3.8-4.9-7.3-3.8m14.8-.2c.2 2.6 3.7 1.7 5.2 3.3 1.4 1.4.7 3.7 1 5.5.3.8.7 1.9 1.7 1.9s1.1-1.2 1.1-2c0-1.2-1.3-5.3 0-5.8.6-.2 1.3 0 2 0 5 .3 1.7 4 4 6.8 1.2 1.4 3.1.8 4.6.7.7-.1 1.6 0 2.3-.3.7-.3.7-1.4.2-2-1.3-1.2-3.7.4-5-1-1.3-1.8.8-5.4-1.7-6.4-1.4-.5-3.6-.1-5-.1-3.4 0-7 0-10.4-.6m-279.6 10l.2.3v8.8L14 313c-1.2 0-2.3 0-2.7-1.4-.3-1 .3-3.3-1-3.8-2.4-.8-1.3 5-.9 6 .8 1.6 2.7 1 4 1.1 1 0 2.1.2 2.7-.7.9-1.4.2-4.6.5-6.3.6-5.2.5-10 0-15.3 0-2 .3-4.2-.5-6-.8-2-6-3-7.9-1.9-1.3.8-.4 4-.2 5.2.8 4.2 2.2 5.7 6.6 4.3M96 288c0 1.6-.1 3.8.6 5.3.4.8 1.6 1.7 2.3.7 1-1.3-.2-4.5-.2-6 1.9 0 6-.3 7 1.6.7 1.3-.2 3.8 1 4.7 1.6 1 5.5.8 6-1-1-.5-3.4-1-3.8-2-1-1.8.5-5.2-2.3-6-1.2-.4-2.7 0-4 0l-8.1-.3c-1.5-.1-3.2-.8-4.5-.2-.9.3-2.7 2-1 2.6 2 .6 5 .5 7 .6m-56.8-3.2c-2.1.2-2.5 2.3-2.6 4-.3 3.3 0 7 4.1 6.5 4-.5 3.8-2.2 4-5.7 0-1.3.6-2.3-.3-3.4-1-1.2-3.8-1.6-5.2-1.4m-17 .2c-2 1-1 4-.9 5.6.1 1.1-.4 2.4.1 3.4 1.1 1.8 5.8 1.6 7.4.8 1.6-.9 1-3 .8-4.4-.2-3.8-3-7.3-7.3-5.4m53.9 0c-2.6.8-2.9 8.2-1 9.8 1.8 1.6 4.6.1 6.7.1 2 0 3.9 1.3 5.9.5 1-.4.7-1.8 0-2.4-1-.7-2.6.2-3.4-.9-1.2-1.5-.5-4-1.2-5.7-.5-1-5.8-1.7-7-1.4m253.7 6.2c-2.4.2-4.5-3-3-5.2 1.6-2.7 3.3 1 3.3 2.5 0 1-.1 1.8-.3 2.7m-319.7-4.6c2.9-1.5 6.5 4.2 3.5 5.5-2.4 1-3.2-.9-3.7-2.8-.2-.7-.7-2.3.2-2.7m115.5 0c0 1.4.6 3.7 0 5-.4 1-3.7 1-4.4.2-.8-.9-.4-4.5.7-5 1-.5 2.7-.1 3.7-.1m158.2.2v.6l-1 .2c.2.8.7 1.2 1 2 1 1.9-1.7 2.6-3 1.7-1-.6-1.5-3.9-.5-4.7.8-.7 2.6-.1 3.5.2m-260.4 5.6v-5.8c2.8.1 4.5 1.3 4 4.2 0 .5 0 1.2-.4 1.6-.8.7-2.6.1-3.6 0m33.6-4.2c-.2 1.1.4 2.6 0 3.6-.3 1.1-2.6 1.8-3.4 1-.7-.8-1-5-.1-5.6 1-.6 2.6.5 3.5 1m20.2-1.1c1.1.2 3 .5 3.6 1.7 1.1 2.1-3.3 5.7-4.2 3-.3-.7 0-1.8.2-2.6 0-.7.1-1.4.4-2.1m-37.9.4c2.8-1 4.3 4.3 2.1 5.2-3.2 1.4-5-4-2-5.2m270.9.4l.2.3v.2l-.2.3h-.3l-.3-.3v-.2l.6-.3m-41.3 9c1.7-1 2.3-5.6.4-6.9-1.3-.8-1.2 1.8-1.1 2.4l.2 1.8c.1 1 .2 1.8.5 2.7m-102.8-6h.2-.2m-51 2.8v.5h.9v-.5h-.8m-13.8 1.3v.3l1-.5-1 .2m-28 .3l.7 1-.7-1M215 330.2c1 0 3.9-.2 4.6.4 1.4 1.3.2 5 .2 6.7l3.7.3-.3.8 1.3-.2c4.8-1.4-1.5-3-1.8-3.8-.7-1.7.4-3.8-.4-5.5-1.3-2.8-6.3.5-7.7-2-1.2-2.1-1.2-5.4-1.5-7.8-.5-3.6-1.4-7.1-1.8-10.6-.1-1.5.5-5.7-.5-6.7-1.4-1.5-3 .7-2.8 2.2 1 5.9 2.3 12.2 2.7 18.2.3 3.7.6 7.5 1.2 11.1.2 1-.1 2.3.2 3.2.4 1.2 2.2.8 2.6-.3.6-1.7.3-4.2.3-6M21.2 305c-1.8.7-1 6 0 7.3 1.3 1.9 4.2.3 5.3 2 .7 1.1.2 3.5.2 4.8 0 3.6 0 7.4-.2 11 0 1.4.5 3.3 0 4.6-.5 1.6-4.5 1.9-5.8 1-2-1.3-.2-5.5-2-6.6-2.2-1.4-1.5 3.8-1.5 4.5.2 1.1.4 3 1.2 3.9 1.6 1.7 6.9 1.2 8.9.4 3-1.2 2-5.9 2-8.5.3-5.4-.1-11-.4-16.4-.1-2 1-4.3.3-6-.7-1.7-6.5-2.7-8-2m1.6 1.8c2.8-1.3 6.1 3.2 3.3 4.7-3.2 1.6-5.6-3.7-3.3-4.7m102 1.7l.3.8c-1.6.2.7 5.2.7 6.3.2 5.3.9 11 1.7 16.2.2 1.4-.1 4 .7 5.2.9 1.2 3.7 2 5.1 1.5 1-.3 1.6-1.8.7-2.5-.8-.7-2.8-.6-3.8-.8 1.4-6-.7-13-1.3-19-.2-2 .5-5.5-.4-7.2-.7-1.4-2.4-.8-3.6-.5m127 3.7c.2 5 2.3 10.6 1.9 15.6-.1 1.4-1.5.9-2.2.2-1.4.5-2.5 3-.5 3.6 1 .3 2.7-.7 3.4.3 1.4 1.8-.5 4.4 2.2 5.8 1.9 1 5.1-.5 4.5-3-.3-1.2-2.1 0-3-.5-1-.7-.8-2.4-.8-3.5.8 0 3 .1 3-1 0-1.7-2.9-1.3-3.5-2.7-1.6-4 .8-14.8-5-14.8m-82.6 1.8v.3h2.4c-.7-.9-1.4-.7-2.4-.3m30.5 21.5c0-1.1-.8-4.2.3-4.8 1-.5 3 1 3.6 0 1.6-2.2-2.8-2.7-4-2.4-.7-3-.9-6-1.3-9-.2-.9-.3-2.7-1.3-3-1.2-.4-1.5 1.5-1.4 2.2.2 2.8 1.5 6.8.7 9.5-.4 1.3-3.1 1-2.5 2.7.4 1.2 2 .4 2.6 1.4.5 1-.2 2.3.2 3.4.8 2.2 4.6 3.7 6.6 2 2.7-2-2.7-2.1-3.5-2m-29.4-8.2c-1.6 0-4.4-.3-5.6 1.2-.6.8 0 2.3.1 3.3.3 2.3 0 5.2 2.6 6.6 3 1.7 8 .3 7-3.7l-1.2-4.3c.8-.1 2.2-.4 2.2-1.5 0-1-1.8-1.5-2.2-2.4-1.2-2.8-.6-6.5-2.2-9-.6-1-2.1-1-2.4.2-.3 1.5.6 3.6.9 5l.8 4.6m60.6 1.3c.9 2.4.6 7.6 2.7 9.3.9.7 2.4.5 3.4.4 2-.2 4.2-.4 6.3-.1 1.4.1 3.5.6 4.7-.1 2.8-1.7-1.9-3-3.1-2.9-1 .1-2 .3-3.2.3 0-1.9.6-5-.3-6.6-1.7-3-8.2-1.5-10.5-.3m66.4 1.8c0 1.3-.5 2.1-.7 3.2-.2 1.4 1 5.6 3 3.6 2.4-2.6-.4-6.3 4.3-6.8.5 0 1-.2 1.6 0 2 .3 1.1 4.2 1.5 5.6.5 2.3 2.9 2.3 4.8 2.4.8 0 2.5.2 3-.6.8-1.8-4.7-1.8-5.2-2.9-.9-1.9.6-4.9-1-6.5-1.2-1-3.5-.6-5-.4-3.3.3-6.6-.2-10 0-1.3.1-2.8-.2-4 .4-1.6 1-.4 3.4-1.8 4.7 0-1.2.7-3.2.2-4.2-.9-1.9-7.2-1.9-9-1.5-.9.2-3.6 1.2-2.6 2.6.6.8 2 .2 2.6 0 1.2-.2 5.1-.3 5.8.8.8 1.2-.5 2.2-.6 3.3-.2 1.1.7 2.2 1.3 3 .5.4 1 1.1 1.7 1 3.2-.4 3-5 4.2-6.8 1.1-1.4 4.3-.9 5.9-.9m-181.2 31c-6.2-.8-.7-7.7-1.4-11.4-2.9 2.2-4.9 7-3.7 10.6.6 2 5.4 4 7.3 2.4 1.4-1.2 0-5.4.2-7.2.4-6.2-.8-12.7-1.8-18.8-.4-2.2-.4-5.5-1.6-7.5-1.2-2-7-2-8.5-.5-1.6 1.5-.7 7.4.8 8.8 2 2 6-1 7.4.7.9 1 .4 5.5.4 7-.1 5.3.9 10.6.9 15.9m199.7-31.5c2 3.9 5.4-.4 7.9 1 2 1.3-.1 5.1 1.7 6.8 1.8 1.7 4.3-.8 5.6.1.8.6.6 3.3.6 4.3.4 3.7.1 7.7.9 11.3.2 1.2.8 3.7-.4 4.5-4.1 3-2.2-4.6-5.4-3.2-1.4.6-1.5 4-.6 5 1.4 1.7 8.8 1.3 9.4-1 .5-1.6 0-3.4-.1-5-.2-4.1-.6-8.3-1.2-12.4-.2-1.9-1.2-3.7-1.2-5.6 0-1.5 1.9-7 0-7.7-1.2-.4-2 .6-2.3 1.6-.3 1.6.2 6.4-2.7 6-2-.3-.5-5.3-1.7-6.7-.7-.8-1.6-.7-2.5-.5-2.6.6-5.6.6-8 1.5m-272-1.7c-1.2 0-3.2.2-4 1.3-1.2 1.5.2 7 1.4 8.3 1.3 1.2 3.2.9 4.7.8 2.7 0 5.3.8 8 .2 1-.2 1.7-1.3.9-2.1-1.4-1.4-3.9.4-5.4-.6-3.2-2.3.5-8-5.6-7.9m10.9.1l.2 2.1c2.2.4 5.7-.5 7.6.8 1.5 1 1 4.8 2.2 6.3.7 1 1.7.7 1.8-.5.3-1.8-.4-3.9-.5-5.8 1.3 0 4.2-.4 5.3.4 1.3 1.2 0 3.9.9 5.4.6 1.1 2 1.5 2.3 0 .3-1.9 0-3.9 0-5.8 1.5 0 5.5-1 6.5.1.9 1 .6 2.5.7 3.6.5 2.6 2 3.4 4.5 3.8.5 0 1.2.3 1.8.2.9-.2 1.2-1.3.8-2-.9-1.3-3-.3-4-1.5-1.3-1.7.3-5.6-2.1-6.6-2-.8-5.2.4-7.4.3-6.8-.5-13.8-.8-20.6-.8m90.5 0c-2.6 1-1.5 7.5 0 9.1 2.2 2.2 7.5 1.2 10.3 1.3 1.2 0 2.8.3 3.9-.4.9-.6.6-1.8-.3-2.3-1.6-.9-3.7 1-5.1-.2-1.5-1.3-.7-4.7-1.6-6.4-.7-1.5-5.8-1.7-7.2-1.1m25.4 1.3l1.3 6.6c-1 0-2.5.3-3.4-.2-1.7-1-.9-4.7-.9-6.4h3m68.2 5.9c-.8.2-2 .9-2.8.5-1.5-.5-2-4.7-1.1-6 1.5-1.9 3.8 1 4 2.5v3m12-5.4v.2-.2m-205 6.1c-3.4.7-3.7-.8-3.7-4h-1c.6-1.3 2.5-3.3 3.8-1.2 1 1.5 1 3.6 1 5.2m66.6-.2c-1 .2-2.7.6-3.5 0-.8-.7-1-4.9 0-5.6 1.6-1.3 3.6 1.5 3.7 3l-.2 2.6m37.8-.3c-.8 0-2.3.5-3 0-1.1-.7-.8-4.3-1-5.5 3.6 0 4 2.6 4 5.5m61.3 7.5l.2.1h-.2m34 30.5l3.4.1c1 .2 2.5.8 3.4.4 1-.6.3-2.5-.5-3-1.6-.7-5.3.1-7.1.1-.7 0-1.6 0-2.2.5-1.2 1.3 1 4.5 0 6-.6 1.1-3 .8-3.7 0-1.2-1.2-.4-4.9-.4-6.5-.2-5.2-.4-10.7-1.2-15.8-.2-1.5.2-6.2-1.8-6.7-2.3-.6-1 4.6-.8 5.6 1.3 5.7 1.1 12.6 1.1 18.5 0 2-.8 6 1 7.5.8.7 2.2.5 3.2.5 1.2 0 2.7.2 3.7-.3 2.5-1 1.9-4.8 1.9-6.9M84.1 351.3c.2 7.7 1.6 15.4 1.4 23 0 1.2-.6 7.4 2 6.5 1.7-.6.8-4.3.9-5.7.1-1.6-.5-4.2.1-5.7.7-1.4 3.8-2.4 5.2-2.7-.8-2.4-3.9-.5-5.6-.3-.3-2.5-.3-5.1-.6-7.7-.2-1.4-.6-3.6 0-5 1-2.1 5.2 0 6.5-1.7.7-1-1-1.6-1.7-1.6-2.7 0-5.4.6-8.2 1m96.6 7.3c-1.2.3-1.3 2-1.3 3 .1 1.7.1 3.6.3 5.2.1 1 .7 2 .3 2.9-.4 1-1.9.6-2.7.6-1.5 0-3.2.7-4 2-.7.9-.3 2.2-.3 3.3.2 5.2 3.7 7.6 8.8 6.5 2.4-.5 1.8-2.6 2-4.4.3-4.5-.5-9.6-1-14-.2-1.3.3-5.6-2-5M18.4 371.1c-2.5 0-6.4-.9-8.4 1.1-1.5 1.6-1.6 8.9.7 9.7 2.3.8 6-.3 8.2-.9.9-.2 2.2-.6 2.5-1.5.5-1.3-.4-3.3-.4-4.7v-11.4c0-1 0-5.1-2.2-3.7-.8.6-.4 2-.4 3 0 2.7.3 5.6 0 8.4m180-10.9c-.3 1.4-.6 2.3.5 3.4.5.4 2.4 1.4 2.4 0 0-1.2-1.8-2.5-2.4-3.4h-.6m-75.6.8c-1.6.7-.4 2.6 1 2.2 1.7-.6.9-3-1-2.2m-92.4 18.8c.2-1.3.6-3.8 1.4-5 .6-.9 2.6-.5 2.5-2.1-.2-2-2.5-.5-3.4-1.4-1-1.2 1-3 .5-4.1-.5-1.3-2.8-.5-3.2.5a9.7 9.7 0 00-.3 5c.2.9 1 1.6 1 2.6 0 1.8-1.4 3.7-.7 5.6.7 1.7 4.2 2.2 5.5.8 1.8-2-2.4-2-3.3-1.9m76-6c0 2.2-1.2 6 .8 7.7 1.2 1 7.3 1.4 6.6-1.4-.4-1.9-4.4.5-5-1.9-.5-2 1.6-5.5-.6-6.8-2.3-1.4-5 1.8-7 1-1.1-.5-.8-6.9-3.1-4.9-1.6 1.4 0 5.3.3 7 .7 4-.6 8.7-.7 12.7 0 1.2.8 2.2 2 2 1.8-.3 1.4-5 1.3-6.2 0-1.8-1.3-7 0-8.3 1-1 4-1 5.4-1m227.2 5.8l-6.3-.5c0-1.2 0-2.6.6-3.6.4-.8 5-5.3.7-4.4l-1.3.3 1-2.9v-.5c-5.1-1.9-3.2 4.2-3.3 6.9 0 2-1.4 4.8.5 6.4 2 1.6 7.7 1.1 8.1-1.7m-71.4-5.5c4.6-.6 2.2 3.6 4 6.3.9 1.3 2.5 1.2 4 1.5.6.2 1.5.7 2.3.4 1.2-.4.4-2-.3-2.6-1-.8-2.6-.2-3.4-1.2-1.5-2-.2-7.4-4-7.5-.8 0-1.5.3-2.3.4-.3-1.7-2.7-5.5-3.8-2-.3.8-.6 2.5-.1 3.3.3.7 1.2 1 1.3 2 0 2 .5 4.5.5 6.5 0 1.4-.7 2.6-.6 4 .2 1.2 1 3 2.6 2.2 1-.5.5-2.4.4-3.3 0-3.3-.6-6.7-.6-10m-125.4-5.4c-1.3.5-3.7 2.7-3 4.3.3 1 1.7 1.6 2 2.7.6 2.6-2.2 6.7 2.6 6.6.5 0 1 0 1.5-.3 3-1.6-2.5-2.2-2-4 .5-1.9 3.4-2 3.3-4.2-.2-3.4-3.5.1-4.5-1.4-1.7-2.5 3-1.7 3.2-2.1 1-1.7-2.3-1.9-3.1-1.6m72.5 11c.7 2.4 5.4 3.4 7.2 1.5 1.7-2 1.7-4.6-.3-6.2-.9-.6-2.5-1-3-2-.4-1 1.4-1.5 1.1-2.6-.2-1-1.3-1-2.1-.7-6.5 3.1 5 6.4 2.2 9.3-1 1.1-3.6.3-5.1.6M64.6 375c0 2.2-1 5.6.6 7.4 1 1.1 6.3 2 6.4-.6 0-2.6-3.8 0-4.6-1.4-1-1.5.7-4.1-.1-6-1.2-2.3-3.7-.5-5.5-1.3-1.5-.6-1.4-2-2.5-3-.6-.4-1.4-.4-1.8.2-1.9 2.3 1.3 5.3 1.8 7.3.8 3.2-.4 7.6-.4 10.9 0 1.2.4 3.5 2 3.3 2.3-.3 1-3.6.9-5-.5-3.7-2.1-11.4 3.2-11.8m229.6 7.1c-.2-3.5-4-3.2-6.6-3.2 0-1.8.6-5.5-.7-7-1.5-1.7-8.9-1.7-10.2.2-1.3 1.7 1 8.8 3 9.6 1.5.6 3.4 0 5-.1 3.1 0 6.4.3 9.5.5m11.4-5h-.8c-.8-3.6-2.4-6.2-6.3-6-.8 0-2.7-.4-3 .5-1.1 2.8 4.1 1.8 5 3.1 1.3 1.7.8 5.5 2.7 6.3 1 .5 2-.6 2.7-1.2 1.8-1.7 3.4-4.8 5.5-6 1.3-.7 3-.2 4-1.3 2.2-2.3-3-1.8-4-1.5-2.4.8-4.8 3.9-5.8 6m-150.8-2.6c1.5 0 5-.8 6 .7 1.6 2-.7 5.3 1.7 7 1.2.8 3.8.5 5-.2.6-.3 1.6-1.2 1-2-.8-1.1-3 0-4-1-1.3-1.4 0-4.2-1.2-5.7-.7-1.1-1.8-.9-3-1-2.7-.3-5.4-.2-8.2-.6-1.7-.2-7.3-1.1-8 1.3-.5 1.8 5 .8 6 1.7 1.6 1.5 1 4.7 2.7 6.4 1 .9 1.9 0 2.2-1 .6-1.5 0-4-.2-5.6M46 371.6c-1.5.1-4 0-5 1.3-1.7 1.8.3 8 2 9.3 2 1.6 7.4.8 10 .9 1 0 2 .4 3 .2 1-.3 1.3-1.5.5-2.1-1.4-1.2-4 .6-5.6-.7-2.8-2 .8-9.5-4.9-9m151.9.5c-.7 0-1.2.6-1.2 1.3 0 1.9-.1 8.4 2.5 8.4 1 0 6.8-.6 4.2-2.6-.9-.7-2.5 0-3.1-.9-.9-1.2.1-6.3-2.4-6.2m-72.8 10c0-1.8 0-2.6-2-2.4l-.1-3.1c-.1-1-1.3-6.8-3.4-3.9-.6 1 .3 2.4.5 3.3.6 4 .1 6.5 5 6.1m-65.3-9.2v.1s-.2 0 0 0m219.6.4c2.9-.5 7.3 1.2 5 5-.5.8-3.2 1.5-4 .6-.5-.6-.4-2.2-.6-3a11 11 0 01-.4-2.6m-267 .5c3.3-.3 6.2-1 6.4 3 0 .6.4 1.8-.2 2.3-.7.6-5.8 1.2-6.4.4-.7-1 .2-4.4.2-5.7m163.5-.2c1.2 0 2.9-.4 4 .1 1 .4 1.5 4.4 1 5.3-1.3 2-4.2-.6-4.5-2-.3-1.1-.3-2.3-.5-3.4m-132 6.6l-.5-2.7c0-1.3.8-5 3-3 .7.8 1.3 4.4.5 5.2-.7.7-2 .5-3 .5m298.2-1.1c-1.6.4-2.9 6.6-1 6.3 1.7-.2 2.2-3.3 2.3-4.7 0-.8-.3-1.9-1.3-1.6M235 390.8c0 4.3 1 8.6 1.2 13 .2 4.1-.4 8.3.3 12.4.3 2.3-.8 5.8.7 7.9 1.9 2.5 7.4.5 9.4-.8-1.6-2.8-6 .3-7.3-2.7-.8-2 .2-4.7.1-6.8-.2-5-1-10.1-1-15.1 0-2.8 0-7.5-3.4-8M59.8 401.4v.3l1.6.5-1.6-.8m49.5 1v.4l1-.3h-1m-51 12.2c-1.7 0-5.6-.3-6.8.9-1.8 1.9-1.5 9.2 1.4 10 1 .3 2 .2 3 0s2.5-.2 3.3-1c1-1 1.2-3 1.3-4.4.5-3.5.2-6.7 0-10.3 0-2 .6-4.8-.5-6.6-.6-1-2.4-1-2.8.3-.4 1.6 0 4.4.4 6 .3 1.7.3 3.4.6 5M59 403l-.3 1h-.2v-1h.5m158.5.3c-1.3.3-.7 1.7-.6 2.6.3 1.7 2.3 5.8 1.4 7.4-1.1 1.8-5.3-.2-7 1.8-1.9 2.1-.8 8.1 1.4 9.7 1.5 1 5.2 1 6.9.6 2-.5 2.1-2.6 2.1-4.4 0-4.4-.4-8.7-1.3-13-.4-1.4-.6-5.3-2.9-4.7m69.7 0c-1.4.9.2 3.9 1.6 2.9 1.2-1 .1-4-1.6-2.9m-179.5.3l-.3 1 1 .3-.2-1.3h-.5m3.2.7c-2 0-.7 3.2 1 3 2-.2.4-3-1-3m1.3 2.4l-1-.8 1 .8m24.3 10.3l-.2-1.3h1l-.2 1.9c2 1.3-1 5 .3 7 1 1.7 7.5 1.7 7-.9-.4-1.7-3.3-.2-4.2-1.4-1-1.4 1.4-4 1-5.5-.5-1-2.4-.6-2.4-1.9 0-1.6 3.8-3.6.8-5.3-3-1.6-5 6.2-3 7.4m-11.2 5.3c-1.1 0-5.1-.6-4.9 1.4.3 2.3 6.9 2.7 7.5.5.4-1.5.2-4.5-.7-5.7-1.6-2-3.4-1.6-3-4.6 1 .5 3 1 2.6-.8-.7-3.2-5.7-1.1-6 1.3-.5 4.5 4.9 3.8 4.5 8m-98.7 2c-1.5-.6-2.8-1.5-4.5-1-.9-2.4-.7-4.7-1.1-7.1-.5-3.2-8.2-4-9-.6-.6 2-.4 8 1.7 9.2 1.6.8 3.8.2 5.5.4 2 .3 6.1 1.3 7.4-.8m234-9c-2-.6-4.7-2-6.7-1.8-6.7.7-1 17.6 4.8 9.6 1.4-1.9-.5-3.8-.2-5.7.2-1 1.5-1.3 2-2.1M322 422h-5.8c0-2.1.7-6.9-1.4-8.2-1-.6-2.3 0-3.4.2-2 .3-3.8.3-5.8.3-2.7 0-5.1-.4-7.7-.5-.7 0-1.4.4-1.2 1.3.5 2.6 5.2 1 6.7 1.7 2 .9-.4 7 2.5 7 1.6 0 1.3-3 1.3-4 0-3 1.7-4.4 5-3.6 3 .8.6 6.3 3.2 8.2 2.4 1.7 6.5.6 6.6-2.4m-49.2-1.9h-.5c-.6-2.4-1.4-5.5-4.3-6-1.4-.2-3.6-.5-5 .1-.6.3-1.5 1-1 1.8.8 1.3 4.4 0 5.7.8 2.4 1.2.8 7.6 3.5 7.7 3 0 4.3-6 6.2-7.4 1.5-1.2 3.1.4 4.6.2.9 0 1.7-1 1.4-1.9-.3-1.2-2.7-1-3.7-1.1-4 0-5.8 2.1-7 5.8m63.9 22.2c-3.9-1-5.6 5.8-2.7 7.4 1.5.8 7.1-.6 7.6-2.3.7-2.6-.3-6.2-.6-8.8-.7-4.8-1-9.7-1.2-14.5 0-2.2.6-6.3-.4-8.2-.7-1.4-2-.6-3.3-.9-2.4-.5-5.9-2.6-8-.3-1.6 1.5 0 7.5 1.1 9 1.9 2.6 7-.5 8.2 1.7.8 1.5 0 4 0 5.6 0 3.2.5 6.8 1 10 .1 1.4.7 4 0 5.3-.4 1-2 1.7-2.3.3-.4-1.3.3-3 .5-4.3m-229-26.7c-1.9-1-8.7-2.7-9.9-.2-.9 2 1.2 7.3-1.8 7.6-1 .1-3.3.4-3.8-.8-.7-1.5.8-7.7-2.3-7-2 .5-1.6 5.9-1.6 7.6-1.4 0-4.4.6-5.3-.9-1.1-1.9 1.5-6.2-1.6-7.2-1.3-.4-5.5-.6-6.6 0-.5.3-1.7 1-1.6 1.7.4 2.6 5.2.4 6.5 1.7 1.6 1.8-.7 4.5 1 6.5 1 1 2.6 1.2 3.9 1.3 1.7.1 3.3-.6 5-.6 3 0 7.4 1.7 10-.6 1.9-1.8 0-5.3 1.3-6.8 2.2-2.1 5.5 2.2 6.7-2.3m90-1.4c-5.4.5-10.6 0-15.9.4-1 0-5 1-3.3 2.7.8.8 2.2 0 3-.2 1.6-.4 4.6-.5 6 .2 2 1 0 7.4 3 7.4 1.8 0 1.1-3.6 1-4.6 0-3 1.9-3.7 4.8-3.4 3.1.4 1.5 4.6 1.8 6.3.5 3 4.6 3 7 2.3.8-.2 1-1.2.3-1.8-1-1.1-3.4 0-4.4-1.3-1.4-1.8.7-8.4-3.3-8m-32.6.2c-1.1.2-2.7.1-3.4 1.3-.4.7-.1 1.6 0 2.3.7 2 .8 5.7 2.4 7 1.3 1 3.8.4 5.3.3 2.8-.2 5.5.8 8.4 0 .8-.2 1.6-1 1-1.8-1.4-1.5-4.4.4-5.8-1-1.7-1.5-.4-5.2-1.2-7.1-.8-1.8-5-1.2-6.7-1m-51.3 7.8v-3.4c0-1 .3-2.5-.2-3.4-.4-1-2.2-.9-2.7 0-.6 1-.3 2.5-.3 3.7 0 2.6-.6 7.6 3.7 6.4 2.3-.7 2.1-3.7-.5-3.3m-88.1-4.7c1.8.5 4.6-1 6 .4 1.3 1.3-.5 7.5 2.2 7.4 2.5 0 1-5 1.6-6.2.7-1.3 4.5-1.3 5.8-1.4 0 2-.9 4.6 0 6.4.9 1.5 4.7 1.7 6 .6 1.5-1.2-.3-2.2-1.5-2.2h-1.8c0-1.7.7-6.2-1-7.2-.8-.5-3.3.6-4.4.6-3.2 0-11.5-3.2-12.9 1.6M290 422v-3.2c0-1.2-.2-2.4-1-3.3-.7-.7-2-.6-2.2.4-.2.8.4 1.8.5 2.6.3 1.8-.9 4 .3 5.6 1 1.2 4.9 1 5.9 0 2.4-2.8-2.3-2.2-3.5-2.1m-35.7-6.1l1.3 2.4c.3.6 2.1 4.9-.2 4-1.9-.6-2-5-1.1-6.4M18.8 423c-1-.2-2.8 0-3.6-.7-.8-.8-.8-5.4.3-6 3.4-1.7 3.8 5 3.3 6.7m149.7-6.8c.4.8.6 1.6.6 2.6 0 .6 0 1.2-.2 1.9-.8 5.8-6.3-2-4.2-3.7.8-.7 2.9-.5 3.8-.8m46.4 0c2.6-.5 4 .7 4.1 3.2 0 1 .5 3-.8 3.3-.9.3-3.5.3-4-.5-.9-1.3-1.3-5.5.7-6m115.3 0c2.4 0 7.4.8 6.1 4.2-.6 1.6-4 2.6-5.3 1.2-1.2-1.4-.8-3.8-.8-5.4m-276 1.4c2.7-1.1 3.7.6 3.5 2.8 0 .8.2 2-.7 2.5-3.5 1.9-5-4.3-2.7-5.3m100.7 6.2c-.3.8-.6 1.5-.6 2.4l.2 1.6c1 5.9 4.4-2.5.4-4m-48.1 45c2.9-.7 2.6-2.6 2.8-5 0-1 0-2.9 1.2-3.3 5.3-1.6 2.1 5.2 3.6 7.2 1 1.6 6 2 7.2.3.3-.7.4-1.6-.4-2-1.2-.6-2.8.8-3.8-.7-1.2-2 1-5.3-1.6-6.8-1.6-.9-6 .8-6.5-1.4-1.2-4-.4-10-.4-14.2 0-1.3.6-4.5-.6-5.3-3-2-2.3 5.6-2.3 6.9 0 8.1.4 16.2.8 24.3m167.5-20.4c-1.3 3.6-.3 8.7-.2 12.5 0 1.4 1 3.3-.2 4.4-3.3 3.4-1.8-4-2-5-.5-1.5-2.6-.3-3.1.6-1 1.7-1.1 6 .5 7.2 1.6 1.3 7.2.1 8-1.7.7-1.4-.2-4.2-.2-5.8.1-4.8 0-9.5 0-14.3 0-1.7.6-4.3-.3-5.8-.9-1.5-4.4-1.8-6-1.5-.6 0-1 .4-1.2 1-.4 1.5-1 6.8 0 8 .9 1.4 3.3.4 4.7.4m0-7.4v4.8l-2.1.5V441h2M233.7 461c1.7-.3 3-.7 4-2.1l-4-.6c0-4.5-1-9.5-1.6-14-.2-1.1-1.6-3.4-2.9-1.7-.6.9 0 2.8 0 3.8.1 3.8 1.7 8.2 1.2 12-.2 1.5-3.3.8-3 2.5.1 1.2 2.3.7 3 1.5 2 2.4-.2 5 4.1 5.6.7.1 2.1.4 2.5-.5.7-1.7-1.8-1.8-2.5-2.7-.9-1-.8-2.6-.8-3.8m-54.5-18v.2h1.6l-1.6-.2m4 18.2l3.7-.2c-.3-2.4-2.7-1.7-3.5-3.5-1.5-3.2-1-8.1-1.6-11.6-.3-1.5-2.1-3-3.4-1.2-.8 1.2.3 3 .7 4.1.6 1.7 1.8 6.7.8 8.4-.5 1-2.8.6-3.9 1-2.7 1-2.9 3.6-2.8 6.2.1 4.5 6.8 7.1 9.9 3.6 1.2-1.4.3-5 0-6.8m103.4-16.9c-1.3.7-.7 5.4-.7 6.6.2 5.2-1.2 9.9.2 14.8.5 2.1 4.6 2.4 6.2 1.5.6-.4.8-1.2.1-1.7-.8-.6-2 0-2.9-.7-4.1-3.6 4.6-4.5 4-6.7-.5-1.4-2.4 0-3.3-.3-.9-.3-1-1.4-1-2.1-.7-3-.2-6.2-.7-9.3-.1-.8-.8-2.6-2-2m-71 1l.9-.6-.8.6m-79.4 13l-1.3.3c-3.6 1.6 1 2.2 1.2 3.6.2 2-.8 4.4 1.4 6 1.4.9 5 .5 5.1-1.8 0-1.3-2.2-.7-2.9-1.4-1.1-1.2-.1-3.4.2-4.7 1.4 0 4.4-2 1.8-3-.8-.2-1.8.5-2.6.7 0-3.1-.4-7.2-1.4-10.1-.4-1-2-2.7-3.2-1.6-.7.6.1 2.2.3 3 .8 2.9.7 6 1.4 9m79.6-11.5c.6.6 3.6 2.3 4 .8.5-2-3.2-1-4-.8m98.5 3.7c1.2.4 1.7 0 1.8-1.3l-1.8 1.3M11.9 461.7c-.5 2.5-3 6.7 1.3 6.8.6 0 1.3.1 1.8-.2.8-.3.9-1.4 1.7-1.9v1.6h.2c1-2.6-2.5-1.8-4.2-2.4.6-1.1 1.1-2.7 2.2-3.5.6-.4 1.4-.4 2-1 .3-.3.5-.8.2-1.2-.8-1.6-4.9 1.5-4.7-1.4.2-2.1 3.1-.6 3.5-2.7-1.5-.5-3-1.2-4.5-.3-2.7 1.6-2.7 5.3.5 6.2m317.8-2.7c.1-1.7-.3-5.3-2.8-3-.5.4-.7.9-.9 1.4-.9 4.3 3.6 2.3 4.6 5 1.6 4.7-5.8 1-5.8 4 0 2.3 3.8 2 5.1 1.9 3.6-.4 6.5-5.5 3.4-8.4-1-.8-2.5-.8-3.6-.9M51 457l.8.8.2-.8-.2-.3-.8.3M313.5 468c1.3 0 2.8.5 4 0 3.7-1.5-.3-2.9-2.1-2.9l-.5-8.5c-4.3.2-2.6 8.9-1.4 11.4m-163.2-11c-1.4.3-4.5.5-5.3 1.8-.7 1.1.1 2.8.4 4 1 4 1.3 6.4 6.2 5.4 3.7-.7 1.3-5.3.8-7.6-.2-.9 0-1.8-.3-2.6-.3-.9-1-1.1-1.8-1M38 461.1c.5 2-.7 5.1.5 6.9 1.7 2.3 10.5-1.3 4-2l-1.9-.1c0-1.6.7-4.5-.2-5.8-1-1.6-3.7-1-5.3-1-4.1 0-9.2.8-13.2.2v-.3l1.3-.2c-1.3-1.9-5.4-1-3.5 1.2 1.7 2.1 4.3 1.6 6.7 1.4.7-.1 2-.6 2.7 0 1.3 1-1.4 6.7 1 6.7 2.6 0 1.5-4.9 2.5-6 1-1.3 4-.6 5.4-1m155.3-3.2c-3.1.6-2.1 3.6-2 5.9.1 4.1 2 5.7 6.2 4.8 3.5-.8 4-5.8 2.2-8.5-.6-1-5.2-2.5-6.4-2.2M94.7 488c0-1-.6-4.7-2.3-2.7-4 4.6 6.9 7 8 3 1.5-4.7-1-9.7-1.1-14.3-.2-4.6 1.8-10 .2-14.6-.7-2-1.8-.5-3.2-.7-1.5-.3-3-1.5-4.4-.2-1.5 1.3-1 7.4-.2 9.1 1 2.4 4.4.2 5.4 1.7.9 1.5-.3 5.1-.3 6.8-.1 3.6 4 12-2 12m-43.4-29.7c-1.7 1-.3 3.6-.1 5 .2 1.3-.3 2.8.4 4 1.1 2 4.8 1.7 6.5.7 2.4-1.5 1.4-3.2 1.3-5.5 0-.9.4-2-.2-2.9-1-1.5-6.4-2.2-8-1.3m21-.2c-2 .3-4.6.2-6.4 1-1.5.6-.8 2.1.5 2.5 2 .6 4.1-2 6-.7 1.8 1.3-.5 4.6.2 6.4.5 1 1.3 1.3 2.3 1.3 2.8.1 7.4 1 10-.2.7-.3 1.5-1.3.9-2-1-1.3-3.3.5-4.4-.8-1.3-1.5 1.8-6-1-7.1-1-.4-2 .3-2 1.4 0 1.7 1 6.5-2.2 6.2-1.2-.2-1.3-1.9-1.2-2.8.3-2.5.9-5.7-2.8-5.2M221 466l-1-4c0-1 0-2.3-1-3-.9-.9-2.4-.4-2.6 1-.3 1.5.8 6.6 1.9 7.8 1.1 1.2 4.3 1.2 5.4 0 1.8-2.1-1.5-2.3-2.7-1.8m-70 0c-3.1.7-3-4.4-3-6.4 2.2.4 2.4 4.6 3 6.4m-97.7-4.2l.8-1.6c.7.1 1.8.1 2.4.7.8.8 1.3 4.5.5 5.5-.6.6-2.4.1-2.9-.5-.8-1.2 0-2.9-.8-4.1m127.2 1.3h-1c.5.6 1.7 1.6 1.4 2.6-.4 1-3.2 1-3.8.2-.6-.8-.5-4 0-4.9.5-.8 2.5-1.2 3-.2.4.6.4 1.6.4 2.3m17-.8l.2 3.7c-2.3 1-3.6.4-3.5-2.1 0-.8-.8-2.7.4-3 1-.1 2 1 2.9 1.4m-103.5-1.3c1.6.4 4.3 3 3 4.8-1.9 2.5-3-.8-3-2.2V461m149 4c.5 1.6 2.6 2.8 3.4.7-1.2-.7-2-1-3.4-.8m71.2-.2v1h-.6v-1h.6m-121 .8v.5h-.5v-.5h.5m-16.9.8l-.3.2.3-.2m144.7 1l3.2.8-1-1.6-2.2.8m-201 36c-2.5-1.8-7.8-3.7-10.6-1.5-.5.4-.9.9-1 1.5 0 .8 1 8.1-2.1 5.4-1.3-1.2-.3-6.4-.1-8 .2-2.3-.8-4.9-1-7.2-.3-3.3.1-6.7-.2-10-.2-2 0-4.4-.5-6.1-.2-.7-.7-1.3-1.4-1.2-1.8.5-.6 6.6-.6 8 .2 5.2-.2 10.3-.1 15.4 0 1.6 1 2.8.8 4.5-.1 1.7-.4 6.8 1.7 7.5.7.2 1.6 0 2.4-.2 1-.1 3 0 3.7-.8 1.1-1.6-.6-5.5 1.3-6.5 2.4-1.2 6 2.2 7.7-.8m199.5-.5c1.3.2 3.8-.7 4.7.6 1.7 2.3-.8 9 4.5 8 1-.1 2.2-.8 2-2-.3-1.6-2.6-.6-3.2-2-.8-1.9.6-4.5-.7-6.4-1.6-2.3-6.1.4-8-1.3-1.2-1.2-1-3.8-1.4-5.4-1.4-5.6-2-12-2.7-17.7-3.8 0-2.2 4-1.8 6.6 1 7 2.3 13.9 3.2 20.9.1 1.2.8 8 3.2 5.9 1.5-1.4-.5-5.4.2-7.2M269 477.2c-2.7 1-1.9 5.2 1 4 2.5-1.1 2-5.2-1-4m92.5 1.7l.2.1h-.2m5.6 24c2 1.7 3.4 7.7 6.1 8 2.7.3 2-5.5 0-6.2-1.4 1.4-2.6-1.2-3.2-2.4-1.2-2.4 2.7-7.7.2-9.3-1.7-1.2-1.9 3.7-2.3 4.5-.6 1.4-1.4 1-1.9-.2-1.5-4-2.3-9-2.9-13.2-.1-1.1.8-4.5-1-4.5-2.3 0-1 5.7-1 7.1 0 5.7 3 10.7 3.8 16.1.3 2.1-.6 5.2 1 6.9 1 1 2 .5 2-.8.2-2-.8-4-.8-6m-119.4-22.5c-1.7 1-.3 6.5 0 8.1l1.7 13.5c.2 2.7 0 5.7.7 8.2.8 2.3 5.1 2.8 6.9 1.4.7-.6 1-1.8 0-2.3-1.3-.8-3.4.3-4.5-1-1.3-1.4-.1-3.8-.3-5.5l-2-15.6c-.2-1.6.3-4.3-.4-5.8-.3-.7-1.3-1.6-2.1-1m-36.4 22.2c0 1.1-.3 2.2-.3 3.4 0 .8.6 6.8 2.4 4 1.4-2.4.1-7 .6-9.5.2-1 1.4-1.8 1.2-2.7-.2-.9-1.4-.8-2-.8 0-3-.5-6-.6-9 0-.9-.3-2.5.4-3.3 1.2-1.1 5.5 1 6.1-.7.4-1-1.3-1.6-2-1.8-2-.5-5-.7-6.8.7-1.7 1.4-.9 3.9-.5 5.6.6 2.7.7 5.8.7 8.5 0 1.5-1 2.6-1 4 0 1.3.7 1.5 1.8 1.6m94-16.7a51 51 0 00.4 20.1c.4 2.5 1.8 6.6 5.3 4.5.6-.4 1-1.3.2-1.8-1.5-1.1-4-1.4-2.9-4.2.6-1.7 4.2-.4 4.2-2.2 0-2.6-3.7 0-4.5-1.9-.5-1.3-.2-3-.3-4.4-.2-3.5-.5-7-2-10.1h-.5m-103.7 3.7c-.5-1-3.9-3-4.6-1.2-.8 2 3.8 1.6 4.6 1.2m70.1-1.3c.5 3.7 1.7 7.3 2 11.1.1 3-.5 6.7.6 9.8 1 3.1 5.3 2 5.9-.8l-3.4-.3c-.1-1.2-.9-3.4.5-4.2 1.3-.7 4.9 1 5.1-1.3.3-2.7-4.3-.6-5.5-2-1.5-1.8-1.3-7-1.8-9.4-.4-2.2-1-3.8-3.4-3m1.3.3l-.2.3.2-.3M184 511c1.5.6 3 1.2 4.7.7.8-.3 2.3-1.8 1-2.4-.7-.4-2-.2-2.8-.2 0-1.1-.4-3.1.3-4.1.8-1.3 3-.6 3-2.5 0-.7-.3-2.7-1-3-1-.4-2.2.8-3-.5-1.3-2.4-.2-5.8-1.2-8.4-.3-.9-1.3-1.7-2.1-.7-1.5 1.7 0 6 .4 7.8.2 1 .4 2.5 0 3.4-.3.7-1.1 1-1 2 0 .9 1.2 1.3 1.5 2 .9 1.8.6 4.1.2 5.9m151.4-20.1c-1.8.9-.5 3 1.2 2.2 1.3-.7.2-3-1.2-2.2m-295.9 7.9v-.5c-2.2-.7-5.3 0-5.2 2.9 0 1 1 1.8 1.1 2.9 0 2.8-1.4 5.1.1 8 .8 1.3 3.6 1.9 5 .7 1.9-1.7-3.2-2.5-3.4-3.4-.8-2.4 2.3-4 2.7-5.9.2-.9-5.2-3.1-1.6-4.4l1.3-.3m89.5 2.6c.4-.9 2.7-1.3 2.7-2.3 0-1.6-5.8-.6-6.4.5-.6 1 .4 2.1.4 3.2.1 3.9-1.8 8.7 3.5 9.3.8 0 1.9.4 2.5 0 2.4-1.8-3.7-2.8-3.7-3.8-.2-2.6 2.3-2.1 3.3-3.8 1.2-2-.4-3.4-2.3-3m-79.7 3.4l4-.8c0 1.9-1.1 5.4.2 7 .8 1 6.2 2.9 6.5.9.5-3-3.1-1-4.1-2.6-1.1-1.8.7-6.9-1.4-7.9-1.4-.7-2.9 1.4-4.3.7-1-.5-1.7-3.5-3.4-2.1-1.2.9-.6 3-.3 4.3.4 2.1 1 4.4.8 6.6-.3 2.3-1.6 6-.7 8.2.4 1 2 1.4 2.6.2.5-1.2.3-3.2.3-4.5V511c0-2 .3-4.1-.2-6.1M23.8 506l5-2.4c-.6-4.2-5.4-.8-6.9 1.1-.5.6-.8 1.4-1.4 2-.5.4-1.1.3-1.7.4 1-3-.6-4.8-2.7-6.6-1.8.3-3.3-.8-5-.6-2.5.2.2 2.3 1 2.6 1.4.5 3 .3 4 1.5 1.6 2-.7 6.7 3 7.3 1.8.4 4.8-3.7 4.7-5.3m128-5.8v.5h.9v-.5h-.8m46 0c0 1.7.7 3.3.8 5 0 1.9-1 4.5.4 6 1 1.3 4.8 1.3 5-.7.2-1.8-2.5-.9-3.3-2-1.8-2.7 2.2-8.3-2.9-8.3m90.2.2c-5 1.7-1.2 12.9 4.5 10.9 2.5-1 2.3-3.7 1.8-5.8-.8-3.1-2.2-6.5-6.3-5.1m66 .3l.7.8-1 .8v-1.3c-3.2 0-6-1-9.3-.5-.9.2-3.5.9-2.5 2.2 1.2 1.6 3.9-.5 5.2.8 1.6 1.5.1 6.4 2.6 7 1 .3 1.5-1 1.5-1.8.2-1.7-1.4-6 1.9-5.2 1.4.3 1.6 2.4 1.6 3.6 0 2.4 1 4 3.7 4 1-.1 1.9-.5 1.8-1.6-.2-1.6-1.9-1.3-2.6-2.5-1.4-2.4.4-6.2-3.7-6.3m-212.4-.1c-1.5.1-3 .4-3.8 1.7-1 1.7.6 7.4 2 8.7 2.3 2.5 5.9 1.3 8.9 1.4 1.2 0 2.7.5 4 .1 1.3-.4 0-2.1-.6-2.6-1.1-.8-2.6-.2-3.5-1.5-1.2-1.8.5-6.1-1.6-7.4-.8-.5-2-.2-3-.3-.9-.1-1.6-.2-2.4-.1m45.7-.1l.3 1h-.8l.5-1m-25.9 3.1c0 2.5.2 8 3.2 8.7 1.5.3 2.7-.7 4.2-.9.8 0 1.6.6 2.4.8 1.1.4 7 1.3 6.4-1.2-.7-2.8-4.6-.5-6-2-1-1 1-8.2-1.7-7.3-1.9.6-1 4.4-1.6 5.9-.6 1.5-2.3 1.6-3.7 1.9-.4-2 .2-6.2-1.3-7.6-1.4-1.4-8.8-1.4-10.2 0-1.6 1.9 3.2 2.4 4 2.1 1.6-.4 2.7-.4 4.3-.4m65.9.3c0 2.1-.3 5.9 1.2 7.6.9 1 2.3.8 3.5 1 3.5.3 7.1.1 10.6.1-.1-1-.3-2.8-1.4-3.3-1.2-.5-4 .8-5-.5-.7-1.1.8-7.7-1.5-7.1-1.6.4-1.3 2.3-1.3 3.5 0 2.7-.6 4-3.5 4 0-1.8.5-5.9-.7-7.3-1-1.3-7-1.5-8.2-.3-1.4 1.5 1.7 2.8 2.8 2.7 1.2-.1 2.3-.4 3.5-.4M75 512.7c-1 4.6 0 9.2 0 13.8 0 1.4.8 3.7 0 5-.6 1-2.3.8-3.4.8 0-1 1.3-6.8-.8-5.8-2 1-3 5.5-1.5 7 1.7 1.8 6.3 1.2 8-.1 1.7-1.3.7-4.4.7-6.1 0-6-1.4-12-1.3-18 0-1.5 1.1-6.5-.9-7-1.3-.3-1.8 1.2-2 2.2-.4 2.8.4 4.7-2.7 6.1-.2-2 0-7-2-8.2-1.5-.9-6-.7-7.8-.7-.6 0-1.8.2-1.9 1 0 .9 1.3 1.1 1.9 1.2 1.7.2 4.5 0 6 .9 1.4 1 .7 3.9 1 5.3.7 3.6 4.1 3 6.7 2.6m260.7-10.6c-1.5.6-.3 3 0 4 .6 3 1.8 6.9 5.7 4.9 1-.5 1.3-1.6.6-2.4-.8-1-2-.2-2.8-.8-1.3-1-1-3.4-1.7-4.8-.3-.8-1-1.3-1.8-1m-308.8.1v.6h-.5v-.6h.5m103.2 0l-.3.3.3-.3m-68.6.3v.5h-.5v-.5h.5m83.7 1c0 1.7.7 4 0 5.6-.5 1.1-2.7.9-3.6.2-.9-.7-1.6-5.2-.6-5.9 1.2-.7 3 0 4.2.2m143.6-.6c2 .1 4 3.4 2.9 5.2-1 1.7-2.2-.2-2.4-1.2l-.2-1.6a20 20 0 01-.3-2.4m-267.8 4.7l-.1.2v-.2m49.1-.2l-.8.8.8-.8m-49.2.8l-.3 1h-.5l-.3-.2v-.5l1.1-.3m33.9.8v.6h-.6v-.6h.6m55.8 1l-1.3-.2c.6-.4.9-.4 1.3.3m230.9-.6l-.1.1v-.1M36.6 511l-1.3-1.3.3-.2 1 1.5m204.5-1v.5h-.5v-.5h.5m-75.9.8v.5l-.5-.5h.5m-138.6 36c1 0 5-.7 5.6-.1.8.7.4 2.3.3 3.2-.3 2 .4 4.6 2.5 5.2 1.3.4 7 0 4.9-2.6-1.1-1.3-3.7.1-4.5-1.5-1-2.3 1-5.4-1.5-7.1-2.1-1.6-5.4 1.3-7.8-.3-.8-.6-.6-4-.6-5-.1-4.7-.1-9.5-.6-14-.1-1.5.1-5.7-2-5.7-1 0-1.1 1.2-1 2 0 2 .5 4.1.6 6.3.3 7.1.6 14.3.6 21.4 0 1.7-1.2 6.2.4 7.4 1.3 1 2.7 0 3-1.3.8-2.6 0-5.3 0-8m251.7 9c-2.3 0-3.9-.8-6.1.3.7-1 2.8-2.6 1.4-4-1.7-1.8-5 .8-6-2-.6-1.8 0-3.8-.2-5.6-.5-5.5-1-10.8-1.7-16.2-.2-1.4.8-6.5-1.4-6.8-1-.2-1.2 1.1-1.3 1.8-.4 2 0 4 .2 6 .4 5.2 1.2 10.3 1.6 15.4.2 2.6-.5 6 .1 8.5.2 1 1 1.6 1.5 2.4l-6.4-.3v-.2c1-.5 2.2-1.7 1.2-2.9-1.2-1.3-3.7.6-5-.7-1.8-2 1.6-3.3 1.2-4.9-.4-1.4-1.7-.8-2.5-1.5-.5-.5-.6-1.6-1-2.2l2.2.8c-.6-2-3.6-3.3-4.2-.5-.5 2.3.8 3 1.4 5 .2.9 0 2 .1 2.9l-.8-.3c.4 1.6 0 4.8 1.7 5.7 2.1 1 6.3-.4 8.6-.4 6.4 0 12.4 1 18.8.1 1.4-.2 4.6.3 5.7-.6.8-.7.4-3 .4-4l-3.2 3.7 1-3.4-6.5-.5c-1.2-7.7-2.4-15.6-3-23.3 0-1.3 0-7-1.8-7-.9 0-.8 1.3-.8 2 0 2-.2 4.2 0 6.3.8 5.6 1.4 11.1 2 16.7.5 3.8.4 6.6 2.8 9.8m-3.2-26.8v.3h-.8l.8-.3m-210.6 3.5c-1 2-.2 3.5 0 5.5.2 3.3-1.3 5.1.5 8.2h-3.4c-.2 2.7.7 2.7 3.2 2.7 0 1.5-.5 3.5.6 4.7 1.5 1.9 5 1.7 5.7-.8-1.2-.7-4.9-1.5-3.4-3.8.5-.9 2.6-.5 2.4-2-.4-1.6-2.8-.6-3-2.6-.2-2.8.5-10.7-2.6-12m179.6 16.2c-.6 1.6-2 4-4.4 2.6-.9-.5-1.2-3-.2-3.6.9-.5 2.3.1 3.3-.1.8-.2 1.7-1 1.4-2-.9-2.3-5 .5-5.9-3-.6-2.4-.3-5-.7-7.4-.2-.9-.4-2.5-1.7-2.5-1.1 0-1.7 1.8-1.5 2.8.9 4.3 1.2 9 1 13.5 0 1.4-.3 4.8 1 5.8 1 .7 7.2.8 8-.2.8-1 0-4.7-.3-5.9m-5.4-15.7v.2-.2M9 548c.9 0 2.6-.4 3.1.5.6 1-.5 2.8-.5 4 0 2.2 3.5 2.3 5 2 1-.2 4-2 2.6-3.2-1.4-1.2-4.9.7-4.6-2.6.3-2.3 4.7-1.2 4.8-3.7 0-2.4-3.7.3-4.4-1.1-1.2-2.3.6-8-1.6-9.5-1.3-.9-2 .5-2 1.6-.1 2.5 1 5.8 0 8.2-.7 1.6-2.3 1.6-2.4 3.7m243.4-7.7l1.6.3c-.3-1-1-1.1-1.6-.3m-15.6 1.1v.8h-.8v-.8h.8m62.4 11.1l.8-1.8c-1.8 1-1.8 3-1.8 5 3.8 0 9 1.7 12.6 0 2.4-1 .9-7.1-.7-8.2l.5 2.6-5.3-4-.7-1.4 3.4-1c-1.1-2.2-5.9-3.3-6.3 0-.6 4.6 3.6 3.7 5.6 6 2 2.3-3.2 2.8-4.4 2.8-1.3 0-2.4-.2-3.7 0m-251.3 4c.5-.2 1-.7 1.6-.8 1 0 2.3 1.7 2.6 0l1 .3-.4.7 9.7-.2v-.3c-1.3-.6-2-.4-3.4 0 1.5-4-1.7-3.2-4.8-3.2-.1-2 .3-5.5-1-7.3-.6-.7-1.6-.6-2.4-1-1.9-1-5.4-3-6.7.2-.9 2-.2 7.3 1 9 .8 1 2.5 1.4 2.8 2.6m141.5-13l.3.3.8-.8-1 .5m1.5-.2v.2l1 .3-.2-.8-.8.3m13.3 4c1.5 0 4.8-.8 5.7.8 1.2 1.8-.1 7.2 2.5 8 2.2.5 8.1-.3 7.5-3.6-.3-1.7-3.4-4-4.9-4.7l2.7 4.2c-1 0-2.3.4-3.2 0-2.5-1-.6-5.6-3-7.3-1.2-.8-3-.3-4.4-.2-2.1.2-3.8-.2-5.9-.4-1 0-1.9.4-2.8.3-1.3-.2-1.8-1.6-3.2-1.3-1.5.2-1.6 1.7-.7 2.7 1.6 1.7 5 .2 6.1 2 1 1.5-.5 6.4 2 6.8 2.3.4 1.6-6 1.6-7.4m-23.3 8.2v.3a3.7 3.7 0 01-3-2.7c-1.3 1.3-3.2 4.7-5.3 2.1-.6-.7-.5-2-1.3-2.4-2.5-1.2-5 .5-5.2-3.6-.1-4.8 4.5-.5 5.8-2.8.5-.9-.6-1.6-1.3-1.9-1.7-.5-4.6-1.2-6.3-.4-1.1.6-.7 2.2-.8 3.2-.2 2.5-.6 9.6 2.6 10.3 2.9.6 5.6-.8 8.4-.9 10.4 0 21.4-1.7 31.8-.4l-.6-2.6-3.1 1.7-4.5-1.8-2.4 1.7c0-4.6-3.4-1.7-6-3.5-1.4-1-.3-4-.7-5.5-.6-2-4.8-2.8-6.5-2.8-4.5-.1-4.7 10.3-1.6 12m149-5.3c-.8-1.6-1-3.8-2-5.2-1.3-2-3.4-.9-5.2-.7-1.7.2-3.5-.6-5 .6-1.6 1.2-1 3.7-.7 5.3 1 5.2 3.8 7.5 9.1 6.3 1-.2 2.6-.4 3.2-1.1 1.5-1.7-.4-3.7.5-5.2m-246.8-2.9l10.3.3c1.6 4.3.4 8.7 6.3 8.7l-.5-.8c2.9-.8 3.2.3 3.2 3l-2.1-1.7c1.6 2.7.9 5.5 1 8.5.1 1.3.6 2.6-.4 3.6-.9 1-2.4.5-3.5 1-2.7 1.2-3.2 4-2.3 6.5 1.8 4.8 10.8 5.1 13 .3 1.8-4.4-.4-10.3-1.3-14.6-.4-1.7-.4-3.7-.7-5.5l-1 .2-.3-9.5c0-1-.3-2.4-1.4-2.7-.8-.2-1.3.7-1.4 1.4-.3 2 0 4.1-.1 6l-5 1.1c-.2-2 .3-6.6-1.5-8-1-.9-3.3-.4-4.6-.5-3.5-.2-7.7-2.3-7.7 2.7m2.1-2.9l-1.6.5 1.6-.5m35.5 8.7l-3.2 3c1.4-2.1 2.7-6.3 1.1-8.7-1.4-2.2-6.4-5-8.5-1.8-.6.9-.1 2.3 0 3.3 0 1.4-.1 3.8.7 5 2.6 4 8.4 3.7 9.9-.8m9.7 2.4l-1.5-.2v.2c3.4 1.5 8 1 11.6 1 1.1.1 2.8.7 3.8-.2 1-.9.4-3.3.7-4.5-1.9-.3-4.8 1.8-6.5.4-1.7-1.5.9-7.3-2.5-7-2.6.3.5 7.5-2.6 7.1-1 0-1.3-1.3-1.4-2-.3-1.9-.2-4.5-1.9-5.7-1.2-.9-7.9-.4-7.2 1.9 1 3 4.1.2 5.6 1.5 1.6 1.5 1.1 5.5 2 7.5M119 544.5c.4 1.4 1.6.9 2.3 0h-2.3m19.3.8l.5.5v-.5h-.5m-90.5.7c3-.3 4.3 6.2 1.8 6.6-2.7.5-2.7-1.6-3-3.6 0-1-.3-2.9 1.2-3m129.9 0l-.3 5.9h.3l.5-5.8h-.5m5 0c3.5-.9 5.1 5 2.1 6-3.8 1.4-4.8-5.1-2-6m-69.3.7c2-.7 3.4 5 2 5.7-3.5 1.7-3.9-5-2-5.7m25.7 0v.1-.1m181.2.2c3.1-1.5 6 2.8 2.8 4.5-3.3 1.7-4.9-3.5-2.8-4.5m-249.3 1.7c-.6 1.4-.7 2.4.5 3.4l-.5-3.4m98.7 1.3h1.3l.3.8c1-1.8-.4-2.2-1.6-.8m81.7-1l.5 1.6h.3l-.8-1.6m59.6 2.6l-.8 3.2-1.6-.3 2.4-2.9m-133.4.5l.3.3-.3-.3M72 553c-2.2 3.2-4.4 2-7.4 3.2v.3c2.1 0 8.5.4 7.4-3.5m37 .7h.1-.2m-46.3.4c-.8.6.5 2.3 1.3 1.7.9-.8-.4-2.4-1.3-1.7m44.6-.3l.2.6h.3l.2-.6h-.7m21.4.3v.8h.3l-.3-.8m126.5 1v.6c-.9.1-1.1 0-1.4-.8l1.4.3m15 .8v.2l-2.3-.8 2.3.6m9-.7l-.1.2v-.2m-143.8.1v.6h-.5l.5-.6m33.9.3v.3h-3.7v-.6l3.7.3m14.3-.3v.3h-.8l.8-.3m-77.8 2.1v3.5h-.3l.3-3.5m.1 5.5v.2-.2m-6.2 7.8v.5l-.5-.5z"/>
</svg>
