<?xml version="1.0" encoding="utf-8"?>
<svg xmlns="http://www.w3.org/2000/svg" xmlns:svg="http://www.w3.org/2000/svg" version="1.1" viewBox="0 0 375 580">
	<title>The first page of a letter written by Helen Keller. It reads: “So. Boston, May 1, 1891. My dear Mr. Brooks; Helen sends you a loving greeting this bright May-day. My teacher has just told me that you have been made a bishop, and that your Friends everywhere are rejoicing because.”</title>
	<path d="M210.3 40.3l2.5.9c-.7-1-1.4-1.6-2.5-.9m-15.7 4.1h.3l1.5-2.6c-1.8-.4-1.8 1.2-1.8 2.6m10.3-3c-3.3 1.7-2.5 4.8-2.7 8.3-.1 2.3-1 4.6-1.4 7-.3 3-.4 6.1-1 9h-.4c-.2-3-.2-6-.2-9 0-2-.1-4.1-.4-6-.3-2 0-4.4-.2-6.5-.1-.8-.8-2-1.8-1.3-1.3.7-.4 4.1-.4 5.3.2 5.7.6 11.9 1.3 17.5.2 1.8.4 4.8-1 6.2l.9 2.4 2.4-.4.6-4.7 2.4-12.3 9-.4c.2 4 0 8.2.2 12.2.1 1 .8 3.8-.2 4.6-1.3 1-4.9.2-6.5.2.2 3 7 4.1 8.7 1.9 1.3-1.8 0-5.7-.1-7.8 0-4.7.3-9.3 0-14-.1-1.5-1-2.7-1.2-4.1-.3-2.3.2-5-1.5-7-1.5-1.8-4.6 0-6.5-1m-47 16.5v.8c1.8.4 3.6.7 5.5.4 1 0 1.8-1 2.8-.4 2.3 1.6.7 8.5 1 11.2 0 1 .4 2.9-1 3.4-.7.3-1.5-.2-2.3-.2-1.6 0-6.2-.4-7.5.2-1 .5-.7 4 .2 4.4 1 .6 3.6 0 4.8 0 2 0 5.5.4 7.2-1.1 1.3-1.2 1-3.3 1-4.8 0-4.1.6-8.7.4-12.8-.2-3.8-4.8-2.8-6.9-5-.6-.6-.6-1.7-.6-2.6-.2-4.8 5.6-3.8 9-3.5 0-1 .4-2.8-.4-3.6-.8-.6-2.3-.5-3.1-.5-2.5 0-6.6-.7-8.1 1.7a19.6 19.6 0 00-1.7 8.2c0 1.4 1 3.2-.3 4.2m53.8-4.3l-7.9.8c.4-2.6-.3-7.3 1-9.4.9-1 4.4-1.4 5.2-.2 1.4 2 1.5 6.3 1.7 8.8m39.4 2l.8-.4.6 9c0 .9-.7 1.6-.6 2.4.1 1 1 2.2 1.3 3.3.4 1.5.3 3.3 1.3 4.6 1 1.7 6.4 1.3 5.5-1.3-.5-1.4-2.4-.3-3.4-1-1.2-.6-1.2-2.7-1.4-4 1.8-.1 4 0 5.6-.8.7-.4 2-1.9.9-2.5-1.8-.7-4.9 1.6-6.2-.3-.6-.7 0-1.8-.2-2.6-.3-3-1-6.4-.4-9.4l-2-1.5V51c1.6 0 2.3 1 3 2.4.7-1.6-1-4.4-2.8-3.1-1.7 1.2-1.6 3.5-2 5.3M256 54v1h.2l-.2-1m-96.8 1.3l-.3.3.3-.3m.4 1l1 2.1-1-2m2 1.4l-.2 1h-.3v-1h.6m1 .5v.5h-.5v-.5h.5m113.7 5c-1.2.1-2.4 1.2-3.8 1.3-1.4 0-3.6-1-4.8 0-1.4.9-1 2.6-1 4 .3 2.1 0 5 1.8 6.5 2 1.8 7.2.4 7.8-2.4.2-1.7-.4-3.4-.5-5.1 0-1.6 1-2.7.5-4.4m1.4 0v.2h.8l-.8-.2m7.4.6c-1.9 1-3.1 0-5-.4v.4h.9l-1.4 1.2c-.7 1.1.4 2 1.4 2 1.7.6 5.3-.5 6.5 1 1.7 2.3-.2 6 3 7.5 1-2.2-.3-4.6.6-6.5.7-1.5 6-1.7 7.2-.7 1 1 .5 3.4.7 4.7.7 3.8 4 3.6 7 3l-.6-2 .8 1.2c3.3-1.9-3.9-2.1-4.3-3.1-.7-2 .4-4 0-5.9-1-3-6.2-3.2-8.7-2.8v1h-.2c-.1-1.4-3.3-1.8-3.6-.3l-1-.9-3.3.6m-6.2-.3l.3.2h-.2m12.5 0v.6h-1.8v-.5h1.8m8 .8h-.9l.3-.5.6.5m-55.7 8.7c-1.5 0-5.6-.7-6.3.6-.5 1 .3 1.7 1 2 1.5.6 5.9 1.2 7-.2.4-1 0-2.6-.2-3.5-.2-1-.3-1.9-.6-2.7-.7-1.4-2.1-2-3-3 .7 0 2.3-.7 1.3-1.7-1.4-1.6-3.6 1.1-3.5 2.4.2 1.8 1.8 1.8 2.8 2.7 1 .8 1 2.2 1.5 3.4m-64.2-8.2c-1.3.2-3.3 0-4.1 1.4-.5 1-.2 2.4-.2 3.5 0 3.3-.2 7.7 4.3 6.9 3.5-.6 4.1-5.9 3.4-8.8-.4-1.6-1.5-3.4-3.4-3.1m48.2 0c-1.6 0-4.4 0-5.3 1.5-.6 1-.2 2.7 0 3.8.3 3.2.3 5.7 4.4 5.4 4.1-.4 4.6-2.8 4.1-6.2-.4-2-.7-4.8-3.2-4.5m-56 0l.2.4-.2-.3m98 8.2l-.7-6.3c1 0 2.7-.6 3.6 0 1 .7 2.1 4.7 1 5.5-.7.6-2.8.5-3.8.8m-40.8-.8l-1.3 1c-.8 0-1.8 0-2.4-.4-.8-.7-1.5-4.7-.7-5.5.4-.4 1.2-.4 1.6-.3 3.1.3 3 2.7 2.8 5.2m-48-4.7l-.5 5.6h-3c-.2-2.9-.7-6.8 3.5-5.6m133.2.8v1l1.4.8 1.8-.2V70l-3.2-1.3m-115 1.3v.5l-.5-.5h.5m115.7.4v.2-.2m1.6.7c-1.6 1 .3 8.7 2.3 7.5 1.6-1 0-8.8-2.3-7.5m-129 .3c-1 1 1.3 3 2.3 2.1 1.3-1-1-3.3-2.3-2m42.4.7l-.2.3.2-.3M172.3 76l1.3-.3-1.3.3M347 85.5h2.2c-.8-.9-1.7-1.3-2 0m6-.8l.6.8.3-.3-.3-.5h-.5m-11.7 14.7c-.3 2.5 0 5.1.2 7.6s-.6 5-.4 7.6c0 .8 0 2.2 1 2.6 1 .3 1.7-.4 1.8-1.3.3-1.8-.3-4.2 0-6.1.3-5.9-.2-11.5.1-17.3.1-1.8 1.2-5.1 0-6.9-1-1.2-4.6-.8-6-.5-3 .5-2 4.1-2 6.4.3 4.2-.5 9 5.3 7.9m9.6-13.9c-2.2 1.4.6 4.5.6 6.2.1 6.8.2 13.6-.2 20.1 0 1 .2 6.2 2 5.7 2-.5 1-5.6 1.1-7 .5-7.4-1-14.9-.4-22.3.1-1.4-1.3-3.8-3-2.7M210.8 110c.6-5.2.8-10.6 1-15.8 0-1.6 1-4.2.3-5.7-1-2-7.2-.5-9.2-1-.6-.2-2.5-1-2.8 0-.4 1.2 1.5 1.5 2.3 1.7 2.8.6 5.1 0 7.8 0a98.6 98.6 0 01-.8 11.7c-.3 2.8-1 5.6-.3 8.3.7 2.6-1.7 6.1-1 8.9.3 1.1 1.5 1.6 2.1.5 1.1-1.7 1.2-4.1 2.3-6 2.6-4.9 3.1-11.9 4.8-17.4.4-1.4 1-6.8 3-6.3.8.1 2.7.5 3.1 1.2.9 1.7.3 4.6.1 6.2 0 5.1 0 10.2-.2 15.2 0 1.1-2.2 8.2.8 7.7 1.5-.2 1.4-5.1 1.7-6.2 1.8-5.9 3-12 5.1-17.7.4-1 1.5-5.2 2.7-5.3 3.1-.3 2 4.2 2 5.8-.3 5 .2 9.8.3 14.7 0 1.6-.7 3-.5 4.6.3 2 2.7 7.3 5.7 4.7.7-.6.6-1.7-.2-2.2-2-1.3-3.8 0-3.6-3.3 0-1.2.6-2.3.6-3.5 0-4.1-.6-8.2-.4-12.3.2-2.3 1.4-6.2.5-8.4-.5-1.4-6-3.1-7.2-2-.6.7 0 2.3-.2 3-.7 2.7-1.8 5.3-2.6 8-.8 2.9-2 5.7-2.3 8.7-1.7-4.2.2-10.7 0-15.3-.2-1.2.3-3.7-1-4.6-.6-.6-1.7-.2-2.5-.3-1.2-.2-3.9-2.3-5-1-.7.7-.5 5-.8 6.5-.8 4.1-2.1 8.7-3.5 12.5-.7 1.5-1 3.1-2 4.4M308.2 87c-1.6.5.8 5.5.8 6.9 0 2.8.8 5.7 1 8.6 0 3.5-.5 7.2.2 10.7.3 1.2 0 6.1 2.5 5.7 2-.5 1-5 .6-6.4-.5-2 0-3.9-.4-6l-1.6-13.5c-.2-1.3-.7-6.9-3.1-6m33.7 9.8l-2.8.5a27 27 0 01-.3-8.6c.3-1 2-1.8 2.8-1 1.8 2 0 6.8.3 9.1m-20.4 10.6c-3.9 0-3.6 3.6-3.8 6.5 0 1.7-.3 4 2 4.6h1.8c6.1-.4 0-5.5 2.4-8.2 1-1 3.6-.3 5-.8 2-1 2.2-5 2.7-7 .2-.8.5-2-.3-2.7-2-1.2-6.2.8-7.7-.7-.5-.5-.4-1.6-.5-2.3-.2-2.2-.8-4.6-.8-6.7 0-.9-.4-2.4-1.5-1.9-1.3.6-.5 3-.7 4.2-.3 1.9.6 2.9.8 4.6.4 3.5.6 7 .6 10.4m31-18.5v.8h-.6V89h.7m-143.5 1v.7h.5v-.5h-.5m80.4.2c-1 .5-2.4 3.1-2.3 4.4.2.7 1 1.3 1.3 2 .6 2 .6 4.9.6 7 0 3-1 6.4.2 9.5.6 1.3-.2 4 1.3 4.8 2.9 1.3 1-4.8.7-5.7-1.6-7.1.5-14.9-1.8-22m50.5 10l-.3 1 .3-1m-10.6 1l-1.3 6.6c-1-.2-3 0-3.9-.7-1-1-1-4.5.1-5.3 1.2-.8 3.8-.7 5.1-.4m-93 2.3v.1m.6 2.4l-.2.3.2-.3m18.3 13h.2c1.3 1.5 7.7 2.3 7-1-.5-2-4.4.1-5.7-1.4-1.5-2 .3-5-1.3-7-.8-1-1.7 0-1.8 1.1-.3 2 .4 4.3.5 6.5l-.9-.5c-4.6 2.4-3.3-4-4.6-6.3 2 .2 3.7-1 5.5-2v-.5c-1.2-.3-2.1-.2-3.3 0-1 .3-2.6.3-3.3 1.3-1.6 2-.3 8.4 1.5 10 1.3 1 5 1 6.2 0m7-7.3l-.2-2c1.3.6 4 0 5.1 1.1 1.9 2-.6 9 3.5 9.3 1 0 2.3-.2 3.3-.5 0 3-.5 5.7-.3 8.5.2 3 1.3 7.2.5 10-.3 1.4-3.2 1.6-4.1.8-.8-1-.8-3.3-1-4.6-2.7.1-2.6 4.1-1 5.9 1 1.2 6 1.2 7.5 1 1.9-.6.6-3.9.5-5.2l.2-7.1c0-1.4-.5-2.8-.4-4.3.2-2 .9-4.6-1.1-5.8.6-2.2 2.7-8.7-.5-9.7-1 2.2-.2 4.8-1.2 6.7-.6 1-2.1 2-3 .8-1.2-1.9.9-7-1.9-8a11 11 0 00-7 .6c-1.7 1-.5 2.4 1 2.6m58.3-3c1.9 1 1.1 4.4 1.3 6.2-3 0-2.2-4.2-1.3-6.1m22.6 0l-.6 1 .5-1m-131.5 1.3l-.3.2.3-.2m149.7 5.4h.3l.3-1c5.1-.5-1-5.4-1.4-2.8-.2 1.2 1 2.5.8 3.8m-59.2-4.4c-3 1-1 6.4-1 8.4-.1.9-.6 2.7 0 3.4 1 1.4 1.4-3.7 1.5-4v-3.4c0-1.5 0-3-.5-4.4m60.3.3v.5h-.5v-.5h.5m-137.5.3l-.2.2.2-.2m-14.8 2v.3-.2m64.5.3v.6h-.5v-.6h.5m-19 1.7c.2 0 0 .2 0 .2m-62 11.5c-.8 2.7-.3 6.1-.1 8.9.2 5.1.5 11.3-.7 16.4-.3 1.5-1.1 6.6 1.4 6.8 2.2.1 1.4-2.9 1.6-4.1.5-2.2 1.7-4.1 1.9-6.3.2-1.8-.1-4.7.9-6.1 1.2-2 6.7-1.3 7.6.7l.8-.3-.8 9.7-1.7 3.6-6.2.5c1.1 2.5 6.4 3.5 8.5 1.5.8-.8 1-2.6 1.3-3.6a26 26 0 00.9-10.9c-.3-1.7-.5-3.2-2.3-3.8.8-2.4 2-9.1-.3-11-1-.7-2.4-.5-3.5-.6-1-.1-2.9-.5-3.7.1-.8.7-.5 2.7-.8 3.6-1 3.7-2.3 9-2.3 12.8h-.3l-.5-17.6-1.6-.3m-59.3 6.1v-.4c-1.3-.4-1.4-1.4-.3-2.3 0 2.2 3 3.8 5 4 1 0 2.7-.6 3.4.8.5 1-.1 3 0 4.3.2 3 .7 6.1.6 9.2 0 1.7-.8 3.2-.8 4.9 0 1-1 6.1 1.7 5 1.3-.5 1.4-3.8 1.8-5 .5-1.6 1.6-3.1 2.3-4.7 1-2.1 1.5-4.9 2.1-7.3.2-.7.7-5 1.9-5 1 .2.6 3.7.8 4.5.9 3.8.8 7.8.5 11.6 0 1.5-1 4.1-.2 5.4 1.8 2.6 3.6-2.3 3.9-3.4.7-2.8 2-5.4 2.7-8.2.7-3.5.9-6.7 2.6-10h.2c1.3 2.9.3 6.6 1 9.8.7 2.2 0 4.3.3 6.4.2 1.7 0 4.5 1 5.7 1 1 4.5 2.3 4.7 0 0-1.6-1.6-1.1-2.3-2-.8-.6-.7-2-.9-2.8-.8-4.3-.8-9-1-13.4 0-1.3.7-3 0-4.4-.4-1.1-2.5-1.6-3.6-1.4-1.7.2-2 2.8-2.3 4.3-.6 3.3-.9 9.7-3.6 11.9-.9-3.7-.4-8-.6-11.7 0-1.2.2-3.3-.7-4.1-1-1.3-4.3-1-5.1.4-.6.9-.3 2.1-.4 3.2-.4 2.5-2.5 6.6-1.4 9l-2.4 2.7v-12.6c0-1.3.7-3.4-.4-4.5-1.3-1.2-4.8-1.4-6.4-2-1.7-.3-5.1-2.2-6.9-.8-2.4 2 1.6 3 2.8 3m70.3-3c.3 2 1.4 7.3-.3 8.8-1.4 1-4 .7-5.6 1l-.2-.3 2-9.8 4.1.3m-5 1v.7h-.6v-.6h.5m59 .6c-1.7.4-1 3.6-1 4.8-.7 5.3 0 10.8.1 16 0 1 .2 5.8 1.9 5.3 1.7-.4.6-4.5.6-5.8.1-5.3-1-10.9-.4-16.3.2-1 .6-4.5-1.2-4.1m-180.4 8h1.1v.3l-.8.3c.5 1.6 2.4 6.8 1 8.2-1 1-4.2.2-5.6.6-3 1-3.3 7.2-2.2 9.6.5 1.3 2 1.3 3.3 1.5 2.5.4 6.9 1 7.2-2.5.2-1.4-.3-2.5-.4-3.8l.2-11c0-2.3 1.1-4.4 0-6.7-.8-1.7-2.7-1.5-3.6 0-.6 1-.4 2.4-.2 3.5m-74.7 0v-1.5l1 1.8H9l3.3 1v1.2h.2l.8-1v8.6l-.5 9.8c2-.3 2.3-2.2 2.9-4 1-3.4 2.4-6.6 3.4-9.8.4-1 1.4-5 2.6-4.8 1 .2.4 3.5.3 4.1l-1.7 11c0 .7-.7 3.1.4 3.5 1.5.5 3-2.5 3.5-3.6 1.5-3.7 2.9-7.5 4.7-11 .4-1 1-3.5 2.3-3.4 1.4.1.6 3.7.4 4.7-.4 3.4-1.4 6.6-1.5 10 0 1.4-.5 2.6.7 3.7 1.2 1.3 5 1.5 5.5-.7.5-2.8-3.5-1-3.5-2.8 0-.7.6-1.3.7-2 .3-3.5.1-7.2.4-10.7.1-2.4 1-4.3.5-6.8-1.4.3-3.8-.2-5 1-1 .9-1 3.1-1.3 4.5a15 15 0 01-4.4 7.6c.2-1.7 0-3.3.3-5 .5-2 1.7-4.9 1.2-7-.4-1.4-4.5-1.5-5.3-.4-2.8 3.3-1 9.2-4.7 12 .5-2.4.9-9.4-.6-11.5-.9-1.5-2.3-1-3.8-1-2.4 0-6.1-1.2-8.5.2-1.7 1 0 2.3 1.2 2.3m272-2.9v.2-.2m-6.2.4l-.3.2.3-.2M7 140.5h.1s-.3 0 0 0m187.5 3.5l-.3.2.3-.2m-101.4 7.8c-.3-1.3-.5-2.9.4-4 .5-.6 2.7-.8 2.4-2-.6-2.5-4.5.6-5 1.7-1.3 2.4 0 5.1-.4 7.6-.2 1.6-1.2 3.4-.5 5.1.6 1.5 5.2 1.9 6.2 1 2.8-2.2-3.8-2-3.7-3.7.2-2.8 3-2.6 4-4.7 1.4-2.5-2.4-1.5-3.4-1m114.7-6.8l-.3.3.3-.3m-83.5 8.7c0 2-.6 5.4.6 7 1 1.2 5.4 1 6.2-.2.6-1 .1-3-1.2-3-1 0-1.8 1-2.8 1 0-2 1.2-7.6-2-8.2-1 0-2.2.6-3.2 1-.2-1.2-1.6-6.4-3.6-5-1 .8-.9 3.6-1 4.7 0 2 1.4 3.3 1.7 5 .4 2.7 0 5.8 0 8.3-.1 1-.8 6.2 1.4 5.2 1-.4.6-2.7.7-3.5.5-3.2-1.4-12.2 3.2-12.4m88.9-6.6v.2c.3 2-1.4 4.7 1.1 5.7-1.6 3-1.2 7.2-1.5 10.6-.1 1-.3 3.3 1.2 3 1.3 0 1.3-1.8 1.4-2.7 0-3.4.9-6.7.9-10l4.8-.4c0 1.5 0 2.9-.2 4.3-.2 2.3 3.5 4.7 4.8 2.4.4-.7-.5-1.5-1-2-1.3-1.9-.3-5.7-2-6.8-1.4-1-4.4.3-6 .3 0-2.3-.1-7.1-3.5-4.6m-5.8-.2v.3-.3m-27.3 11c.7-1.6 1.4-5.8-1-6.4-1.2-.4-3 .7-4 0-1-.4-1-3.7-3-3-1 .4-1.1 2.7-1 3.7.3 1 1.3 1.4 1.4 2.5.2 3-1 6.4-.8 9.7 0 1-.2 3.5 1 4 1.6.3 2.3-2.1 2-3.2 0-2.7-.6-5.6-.5-8.4.1-1-.3-2.4.8-2.9 5.1-2.7 1.6 5.4 4 6.7.9.5 4.5.1 3.8-1.5-.4-.7-2-1-2.7-1.3m84.7-9.4c-5 1.5-1.7 3.9 0 6.8 1.3 2 2.8 6.5 6.2 5.2 1-.3 1.3-1.3.8-2.2-.6-1-2-.5-2.6-1.2-1-.8-3.1-4.2-3.1-5.3 0-1 .8-1.6.6-2.5-.2-.8-1-1-1.9-.8m14.4.8c-1.7-2.9-5.1.4-4.4 3 .6 2 5.8 2 5.5 4.1-.4 3.3-5.4-.5-5.7 2.2-.2 2.6 6.3 2.3 7.3.5 1-2-.4-5.4-2-6.6-.7-.5-2.1-.8-2.4-1.6-.3-1 1-1.4 1.7-1.6m-173 1c-1.3.1-2.6.2-3.5 1.2-1.7 1.8-1.9 7.7 0 9.4 2 2 7.8.8 10.5 1 1 0 2.3.4 3.1.1 1.2-.3 1-2.1.3-2.7-1.4-1.3-3.8.6-5.1-.7-2.6-2.5 2.9-8.3-3-8.5h-2.4m125.6.2c-2.3.9-1.7 4.1-1.5 6.1.2 1 0 2.5.6 3.4 1.3 1.6 5 1.3 6.6.6 2.4-1 2.5-7 1-8.8-.9-1-5.5-1.7-6.7-1.3m13 0c-2.6 1-2 7-.7 8.7 1 1.5 5.4 1.6 7 1 1.8-.7 2-6.9 1-8.4-.8-1.4-5.9-1.8-7.2-1.3M43.5 179c-3 .2-3.6-.6-3-3.7 0-1 .6-3.6-1.1-3.4-1.4.1-1.7 2.6-1.9 3.6-.4 3-.6 6.6 3.2 7.3 3.5.6 5.4-2 5.9-5.1.6-5-.4-10.3 0-15.4.2-3.8 1.8-7.7 2-11.4-2 0-3.9.2-3.9 2.6 0 1 1 4.1-.7 4.4-1.1.3-.8-2.6-.7-3.2 0-.9.5-1.7.2-2.5-.7-1.4-4.8-1.9-6.2-1.2-.7.3-.8 1-.3 1.6 1 1 2.9.7 3.8 1.6 1.2 1.5-.5 4.5-.2 6.2.4 2 3 .5 3.8 2 .6 1.5 0 3.6 0 5l-1 11.7m173-28.1h-.1m76.7.4l-1.5-.4c-3.4-.6 0 5 1.3 2.5.2-.6 0-1.5.2-2.1m-47.9 6.4c.4-1-.3-4.3.7-5.1 2.5-1.8 6.2 3.4 4 5.1-.9.8-3.6 0-4.7 0m-139.4-5c3-.6 3.3 5.8 1.4 6.3-3.7 1-3.8-5.8-1.4-6.2m-31.8 6c-.1-1-.3-2-.3-3.2 0-2.5 3.6-4.3 5.5-2.3.7.6.5 2 .6 2.9.1.7.7 2-.2 2.7-1.2.7-4.2 0-5.6 0M156 153v.1m80.9 5c-1 .2-2.8.8-3.7 0-.7-.4-1-4.5-.2-5 2.7-2 3.8 3.7 3.9 5.2m-51-2.8c-2.2.8.4 3 2 2.3 2-1-.5-3-2-2.3m107.5 3.3c-1.9.3-3 4.6-2 6.1.9 1.5 1.8-1 2-1.8l.2-1.6c0-1 0-1.8-.2-2.7m-69.3.4c.2 0 0 0 0 0m-198.4.9v1h.5v-1h-.5m249.5 1v.3l.8.2v-.8l-.8.3m-175.6.5v.4l1.4.2-1.4-.6m-28.5.6v.6h.5l-.5-.6M326 169c-.9.6-.7 1.7-.7 2.4l1.2 7.2c.6 3 .4 6.5.7 9.6.2 1.8 1.1 3.8 1 5.5-.2 2.8-1.6 6.2-1 9 .6 2 3.8 2.7 5.4 1.6.6-.4 1-1.4.2-1.9-1.5-1-3.2.2-3.3-2.4 0-2.2 1-4.4 1-6.5 0-5.6-1-11.3-1.7-16.9 0-1.5.4-9.8-2.8-7.6M290 197c4.7 1 7-.5 10.6-3.3-.2 3.4-1 6.6 1 9.7 1.1 2.1 5 1 5.2-1.3-1.8 0-3.3-.5-3.8-2.5-1.2-5.4.5-11.8-.5-17.4-.2-1.4 0-5-1.7-5.5-1-.3-1.6.7-1.6 1.5-.2 2.3.6 4.7.4 7-.4 2.8.9 7.6-2.8 9-2 .6-4.3-.1-6.3-.3 0-5.8 2.9-13.6.5-19-2.1.6-4 .5-6.1.5-.8 0-1.8 0-2.2.7-1.2 2.3 5.6 2.7 6.2 4.5.3 1.5-.3 3-.5 4.4-.5 4.4-1.7 9.2-1.6 13.5 0 1.5-.2 3.4.5 4.6.5 1 1.9 1.7 2.6.5 1-1.6 0-4.9 0-6.7M47.4 179v1.8h.5V179h-.5m-10.9.2l.3 1.1h.2l-.5-1m10.3 4.8v.3l1.4-.8-1.3.5m272.7 20.7c-.4-2-2.8-1.5-3.2-3.3-.7-2.8 4.6-8.2-.3-7.6 0-1.1 2-3 1.3-4.1-1-1.7-2.5.2-3 1.1-.7 2 0 4.1 0 6.3-.3 3.4-1.9 7.9 3 7.9l2.2-.3m23.3-7.3c-1.5 1.1-2 5.7-.4 7.2 1.8 1.3 4.8.5 4.8-1.8-.5 0-1.1-.2-1.6-.5-4.2-2 1.5-5 1.7-7.2.1-1.6-2-1.6-2.5-.2h-1.4c0-.9.1-2 .7-2.9.4-.5 1.6-.7 1.7-1.4.2-1.2-2.8-1-3.4-.6-3 1.3-2.2 6.4.4 7.4m12.3-1.3c.2.9 1 1.6 1.3 2.6.2 1.5-1.5 5.3.9 5.8 1.7.3 1.8-2 2-3.1.1-2.7 0-5 3.4-5.2 1.4-.1 1.8 1 1.9 2.2 0 2-1.3 4.6.2 6.2.7.9 1.8.7 2.8.8 3 .4 5.4.3 6-3l-6.3-.4c1-3.6 1.4-6.5-1-9.2-2.6 0-5.2.4-7.7.3-1.6 0-4.4-.6-6-.1-3 .9 1.2 3 2.5 3m-66-2.4l-.3.2.3-.2m-225 20.5l.8-1.2c2.2 1.2 1.4 6.2 1.3 8.4 0 1 .6 2 .7 3.2.4 5.2.4 10.2 2 15.3-4.9-1-4.7 1.9-6.1 5.7-.4 1-2 3-.8 4.2 2.2 2.3 9.7.6 9.8-3 .3-3.7-1-7.5-1.3-11.2-.3-7.2 1-15.5-1-22.4-1-3.6-4.6-1.2-5.5 1m130-2v2l1-.4.3 1.4-1-.4.2 3.5 1-.2c.7 5.4.8 10.7 1.1 16 .1 1.7.9 3.2 1 5 0 1.5.2 5.8-1.3 6.8a5.1 5.1 0 003.6 3l1.4-.9-.3 1c2.2.6 4.7.7 6.2-1.3-1.5-.3-5.7-.3-6.8-1.6-1-1.6-.2-5.4 0-7 .2-2.6.8-5.8.6-8.2-.3-2.3-1-4.5-1.4-6.8-.2-2.6-.6-11.3-4.6-10.3l-1-1.6m3 6.4l-.4.4.3-.4M77 223.8l.6.8-.6-.8m175.8 2.2l.6 1.3c3.1 3.8 4.1-3-.6-1.3m107.9-.3c-1 4.5.3 9.8.8 14.2-.4-.2-.8-.3-1.3-.3-4.6 0 1.4 3 1.6 3.6.6 1.7-.4 3 .7 5.1 2 3.4 5.2.4 5.9-2.2h-3.6l.5-4.7c1 .2 4.8-.4 2.5-1.8-1-.5-2.5-.3-3.5-.3.2-2-.7-2.8-1-4.6-.7-2.6.7-8-2.6-9M199.2 232v.3l-.8.3v-.8l.8.3m-196 16.5v.3c5.2 4 9-2.2 7.5-7-.6-2.2-3-1.7-2.3-4.7 1 .1 2.7-1 1.3-2-3-2-4.6 4.8-4.1 6.7.2 1 1.6 1.2 2.5 2 .7.6.8 1.5.4 2.3-1 2-3.6 1.3-5.2 2.4m345.7-3c-1.8.7-.5 3.1.6 4 1.1 1 4 1 5.6.6 1-.2 2.8-1.8 1.5-2.9-1-1-4.1-1-5.3-.5-.2-2.5 3.3-9.7-1.6-6 0-1.1 0-2.4 1-3 .6-.4 2 0 2.3-.9.6-2.3-4.2-1.2-5 0-1.3 2.6.3 3.8 1 6 .3 1-.1 2-.1 2.8m-328.1-5.7c.3-1 2.9-5.1 0-4.1-3 1-1.9 5-2 7.2 0 1.7-.5 3 0 5 .1 1.3 1.3 2.4 2.5 2.5.7 0 1.3-.2 2-.3 1 0 3.8-.8 2-2.2-1.2-1-4.6.1-4.5-2.4.2-2.4 4.4-3.5 3.9-5.4-.4-1.4-3-.4-4-.3m321.4 6l-.6.8c-.4-2 .8-3.6.6-5.5 0-1-1-1.7-1-2.7-.3-.7.2-1.7-.4-2.3-1.5-2-3.7 0-4 1.8-.4 2.4 1.6 3.8 1.9 6 0 1.6-1 2.7-.2 4.3 2 4.1 5.1 1 3.7-2.4m-26.4 3.5c.4 1.5-.3 2.8-.2 4.3.3 2.8 2.1 7.5 1.3 10.2-.4 1.4-2.7 1-3.4.2-.8-.8-.5-2-.5-3-2.6.4-2.5 2.7-.8 4.5 1.1 1.3 4.7 1.5 6.2.6 1.9-1.1.6-4.8.3-6.5-1-5.1-1.3-10-1.8-15.3-.2-2.1.4-3.9-.8-6h-.3l-.8.9c.6-3-3.6-2.6-4.9-.7-.8 1.2.2 2.7.3 4 0 1-.4 2-.3 3 .4 3.1 2.8 4.7 5.7 3.8m9.2-7.1l3-.9c0 2.2-.6 5.8.6 7.7.6 1 3.7 1.7 4.5.7.7-.9.3-2.5.3-3.4l-2.1.8c0-2.3-.4-4.5-.3-6.8 0-.8.4-2-.6-2.2-1.4-.6-4.1 1.5-5.7 2 0-1.7-1.6-4.7-2.8-1.7-.6 1.4.1 3 .4 4.4.4 3.3 1 6.4 1 9.7 0 .9 0 3.5 1.6 3.1 1-.4.3-2.5.4-3.4 0-1.3.8-2.6.8-4 0-2-1-4-1-6m14.6-4.9v.9l-.6-.9h.6m-257 6.8c0 1.2.1 2.8-1.2 3.4-.8.3-3.3-.4-3.5 1-.4 2.3 5 1.7 5.9.9 1.4-1.3 1.8-5.2.5-6.6-1-1.1-2.7-1-3.4-2.5 2-1 1-3-1-2.2-5.2 2-.3 5.5 2.6 6M149 247c.4-2 1.1-4.8.7-7-.1-.8-.8-2.5-1.9-1.5-2.6 2.5 0 6.6-4.5 8l-.3-.3c.4-1.5 1.6-6.6.4-7.7-.6-.5-1.4 0-2 .2-1.4.7-5.3-.3-5.9 1.3-1 2.3 4 1.4 4.6 2.3 1.6 1.7-1.5 5 .9 6.7 1.8 1.5 7 1 9.4 1.3 1 0 2 .5 2.9 0 3.3-2-3.3-3.1-4.3-3.3m86.3-3c-2.1-1-.9-3.4-2.6-4.6-1.6-1.1-5.2-.6-6.8 0-1 .3-2 .6-1.5 2 1 2.2 3.6 0 5.3.7 1 .5 1.1 2.2 1.3 3.3l-1 .3c.2.9.3 1.8.6 2.6.5 1.7 2.4 1 3.5.3 2.8-1.6 3.2-5 5.5-6.8 1.3-1 4.8.5 5.4-1.4.7-2-3.5-2.1-4.7-2-2.6.5-4.4 3.4-5.2 5.6m-58.6 3.3c0-2 .7-6-.6-7.5-.7-1-2.2-.5-3.2-.6-1 0-2.6-.6-3.6-.3-2.3.6-1.8 4.5-1.7 6.1 0 1.4.2 3.1 1 4.2 1.6 1.4 6.8.6 9 .6 1.3 0 4.5.7 5.3-.9.9-2-5.2-1.6-6.2-1.6m34.5-1.6c.4 1 1 2.6 1.8 3.3.8.9 2.2.8 3.3.8 4.3-.4 7-6.4 3.7-9.7-1-1-2.1-.8-3.3-1.1-1.4-.3-2.6 0-3.8.8-1.9 1.2.2 4.6-1.7 5.9m40.9-6.8c-1.7 1-1 3.6-1 5.1 0 1.4-.4 3.1.2 4.3.7 1.6 5.1 1.4 6.3.4.6-.4 1-1.2.4-1.8-1-1-2.6.4-3.8-.8-1.4-1.7 0-4.2-.5-6.2 0-.7-.8-1.5-1.6-1m11.8 2.1c0 2-1 5.2 0 6.8 1.1 2 3.6.2 3.3-1.6l1.6-.8h-2.3l.3-3.9c1.2 0 3.5-.7 4.6-.3 1.4.6 1 3.3.3 4.2.5 1.3.2 3 1.7 3.8 1.3.7 8 .9 8.2-1.4 0-2.1-5.6-.5-6.5-1.5-2-1.9 1.7-5.8-1-7.2-1.4-.6-4.4.2-6 .2-2.4 0-5.1-.4-7.8-.4-1 0-3.6 0-3.8 1.3 0 .8.7 1 1.3 1l6-.2m24.1-2.3c-4 .7-3.7 6.1-2.2 9.2 1 2.3 3.7.8 4.7 2.5 1 1.3.1 3.9 0 5.3-.1 2.8.3 6.2.6 9 .2 1.3.8 3 .3 4.4-.4 1.2-2.2 1.3-3.4.9-1.7-.7 0-3.6-1.6-4.1-2-.4-2 2.9-1.8 3.9.5 1.7 3.1 2.6 4.6 2.5 1.3 0 4-.9 4.7-2 .6-1.7-.1-3.5 0-5 .2-5.8-1-11.4-.4-17.2.2-2.1 1.6-6.3.2-8.3-1-1.5-4.1-1.3-5.7-1M36.3 242c0 1.4-.7 6.8 1 7.3 3.1.7.3-6.6 2.8-7 1.2 0 4.7-.4 5.4.5 1.6 1.8-.5 5.8 2.2 7 1.2.6 4.5.7 5.6 0 1.6-1-.9-2.2-1.8-2l-2.2.1c0-2.6 1.3-5.8-1.4-7.9-1.3-1-3.6-.5-5.1-.5-3.1 0-6.4-.5-9.5-.7-1.1-.1-3.9-.6-4.4.7-1.2 3 6 2.5 7.4 2.5m76 27.9c0-1 .6-5-1.2-4.4-1.6.4-1.5 4.1-.8 5.1.7 1.4 2.4 1.4 3.8 1.2 5.4-.6 3.3-4.8 3.4-8.7.2-4.7.6-9.6.4-14.4-.3-3.4-.9-6.3 0-9.7-3.8-1-3 5.4-3.1 7.6l-6.2 1c.3-1.7 1.2-7.2-.6-8.2-1.7-1-4.8-.6-6.8-.7-.6 0-1.6.2-1.5 1 .3 2.8 6 1 6.9 2.9 1 1.8-1.3 5.1.5 6.6 2 1.6 6.1-1.5 7.8.4 1.1 1.3.6 3.3.5 4.8-.2 3.5-.3 6.9-.6 10.3 0 1.3 1.1 3 .8 4-.4 1.1-2.3 1.1-3.2 1.2m17.9-29.6c-1.9 0-3.6-1.5-5.4-1-1.7.3-2.1 2-2.4 3.5-.5 2-.8 4.8 1 6.4 3.4 2.4 7.5-1.2 7.4-4.6 0-1.5-.2-2.8-.6-4.3m184.3-.5l.6 7-3.1-1.6c.4-2.7-1-4.9 2.5-5.4m13.8 0l.3.7h-.8l.5-.7m10.3.2l1.4.5-1.3.8v-1.3m-48.9.5c.2 2.3 1.8 6.2-1.6 6.3-1-2.9-2.1-5.6 1.6-6.2m-3.4.4v.2-.2m-113 1c1 2.8-.2 4.3-3 4.8l-.3-5.5 3.3.7m43.2 0l1 4.8-2-.5.6.8c-2.6-.7-2.4-5.1.5-5.1m-148.1.2c.2 1.5 1 4.3-.8 5.3-1 .7-2.7.4-3.9.7l2.7-6h2m59.7 1.6c-.2 2.2-2 2.5-3.8 2.2 0-3.1 1.3-2.5 3.8-2m-52.7.1v.8l.6-.3v-.3l-.6-.2m211 .8l.1 1.4h-.2V245m-69.6.6l-.2.3v.2l.2.3h.3l.3-.3v-.2l-.6-.3m52 .3l1 1 .3-1h-1.4m12.9.4v.2-.2m38.8.9l.7-.5-.7.5m-29.2.3l-.2.2.2-.2m-91.5.2l-.3.3.3-.3M55.1 251v.3h2l-2-.3m3.8 0v.3h.8l-.8-.3m232.5 2.5l-.2.2.2-.2m-158.7 32.8c1.6-.5 4.8.5 5.8-1 .6-1-.6-1.3-1.3-1.5-1.6-.3-4.1-.9-5.5 0-1.7 1.3-.5 5.4-.3 7.2-1.3.2-3.7.8-4.7-.5-1.1-1.3-.1-4-.2-5.5-.4-6-.4-12-1-18-.3-1.4-.7-6.9-2.1-7.6-.5-.2-1 .2-1 .8.2 1 1.1 2.1 1.3 3.3.2 1.3-.2 2.5-.2 3.8.1 5.2 1.2 10.3 1 15.4 0 2.4-1.2 7.2-.2 9.3 1.3 2.3 4.5 1.3 6.6 1.1.8 0 2 .2 2.7-.6.7-1-.5-4.8-.9-6.2m-51.3 3.8c-3.5 3.5-2.6-5.2-3.4-6-1.7-1.8-6.5 1-7.8-1-.7-1-.4-3.9-.5-5.2-.2-4-.7-8-1.4-11.9 0-1-.2-5.4-1.5-5.4-.8 0-.8 1-.8 1.5l.8 5.7c1 6.3.8 12.8 1.7 19 .3 1.7-.2 4.9 1 6.2.7 1 1.7.3 1.8-.7.4-3-2.5-6 2.2-6.5h2c2.6.7.1 5.9 2.4 7.4 2.3 1.6 7.5-1 3.5-3M183.6 262c3.2 6.9 3.7 14.9 4.3 22.3.2 1.6-.4 7.6 1 8.5 1 .8 1.7-.8 1.8-1.6 0-2.4-.8-6 3-5.6 3.2.2.4 6.7 3.2 7.8 3 1.2 8-1.7 3.8-3.9-4.4 5.2-3-4.7-4.7-6.1-1.2-.9-4.5 0-5.8.4-1.8-5.5-1.6-11.5-3.1-17.2-.4-1.8-.7-5.6-3.5-4.6m44 3.6v.5c1.7 1 6.5.7 7.2 2.3.6 1.2.4 3.1.5 4.5.3 4.6-.4 9.2-.4 13.8 0 1.4-1 5.7.6 6.2 1.7.3 2.4-5 2.6-6.2.5-2.3 2-4 2.7-6.1 1-3.4 1-8 2.9-10.9.6-1 2.1-1 3.2-.6 1.4.5.9 3.2 1 4.4 0 4.5-.5 9.2-.7 13.9 0 1.1-1.4 5.4 1 5 1.6-.3 1.7-3 2.2-4.3 1.6-4.6 3.4-9 4.9-13.8.5-1.6.3-5.3 2.8-5.1 1.7 0 1 4.6 1 5.8 0 3.1.6 6.3.3 9.3-.2 2-.7 6 .6 7.8 1 1.4 4.1 1 5.4.4-.6-3-2.1-1-3.6-2.6-.6-.6-.5-1.5-.5-2.3 0-1.9-.7-6.4.6-7.6v-.9c-2-1.8-1-5.7-.9-8.2 0-.8.3-2.2-.4-3-.7-.7-2.1-.4-3-.5h-2.7l-1.5 8.3-3.4 9.2h-.3c-1-4.1 0-8.6 0-12.8 0-1.4.3-3.3-.2-4.6-.6-1.4-7-1-7.7 0-.4.9.2 2.1 0 3-.5 3.4-1.5 11-4.8 12.8.3-4 0-8.3 0-12.4 0-1-.2-3.8-1-4.7-1-1.2-6.8-1-8.2-.6m64.3 1l-.1.1m.2.5l.2.9-.2-.9m-48.7.2l.3.9-.3-.9m-35.6 19.3c0 2 .6 8.8 4.1 6 1.8-1.2-.7-2.3-1.7-2.4 0-1-.7-2.5-.2-3.4.6-1 3-.6 3-2.3-.2-1.5-2.8-.4-3.5-1.7-1.8-3-1.4-8.8-1.4-12.2 0-.7-.5-2.3-1.5-1.6-1 .6-.7 2.9-.5 3.8.4 3 1.5 6.9 1.3 10 0 1.4-2 1.4-1.8 2.5 0 1.1 1.3 1.3 2.2 1.3m113.3-4.3c-2.1 0-5.7-1-7.6.4-1.3 1.3-.9 4-.7 5.6.2 1-.2 2.4.4 3.2 1.6 2.3 7.8 2.2 10 1.1-1-3-.1-5.6-.1-8.6 0-2.9-.4-5.9-.6-8.8-.1-1.5 0-3.6-.6-5-.3-.7-1.2-1.6-1.8-.7-1 1.2.4 6 .5 7.7 0 1.7.4 3.4.5 5.1M53.8 271.3v.7l2 .2 1 9-.3 3.6-2.4.7c.3 1.7 2.1 1.8 3.5 2.2-.6 1.7-.6 4.4.6 6 .8 1 3.8 1 4.5-.4.4-.8-.3-1.6-1-1.8-1.8-.6-3.3-.7-2.7-3.2.6-2.5 4.4-.3 4.8-3l-4.6.2c-1-3.5-.7-7.2-1.1-10.9-.2-1 0-3-1-3.9-1-.7-2.4.2-3.3.6m37.3 1.2c-1 .6.7 2.8 1.7 2.1 1-.7-.7-2.6-1.7-2m70.2.5c-1 .6.3 2.3 1.3 1.8 1.4-.7-.4-2.4-1.3-1.8M.8 274c-1 .7 0 2 1 1.1.8-.7-.3-1.7-1-1m56.5 1v.6h-.6v-.7h.7m86.6 1.7c0 5.5 2.4 11 1.9 16.6-.3 2.6-1.9 5.8 1.3 6.8 1.4-4.3.3-9 .3-13.4 1.2-.2 2.8-1 3.7.2 1.8 2-1.4 5.5 2.3 6.8.6.2 1 .3 1.6.3h1.9c.8-.4 1-1.5.4-2.2-1.1-1.1-3 .6-4.1-1.3-1-1.8 1-4.7-1-6.2-1.4-1-3.7 1-4.7-.6-1.8-2.7 0-5.3-3.6-7m119.3 2.8l-.2.2v.3l.2.3h.3l.3-.3v-.3l-.6-.2m73.4 6.7c3-4.6-4.7-6.6-7.5-4-1 .9-.4 2.8-.4 4 0 1.7.3 5.3 1.8 6.3 1.4 1.1 3 0 4.7.1 1.1.1 2.2.8 3.3 1 1 0 6 1 5-1.3-.7-1.9-4-.6-5.4-2-1-1.4 0-3.1-1.5-4.2m-.6-4l-1.5 2 .2 6.8-2.7.5c-1-2.4-2-5.6-1-8.2l5.1-1m4.9 1.3l.6 1.7 2.8-.4 5.8 1.1c0 2.2-.3 7 2.2 8 1 .2 2-.2 3-.4-1.3 6.8 2.6 13.5 1.5 20.2-.3 1.4-3 1.5-3.7.4-1-1.3 0-4.1 0-5.6-3.6.1-2.3 5.2-2.7 7.6 2 .5 6.2 1.7 8 0 1.8-1.5.5-5.1.2-7-.3-2.5.2-5.2.1-7.7 0-2.7-.8-5.4-1.1-8.2-.4-2.2.1-4.6 0-7 0-.7.2-2-.3-2.5-.8-.8-1.6.5-1.8 1.2-.2 1.2 0 6.3-2.1 6-1.6-.2-.8-5.8-1.7-7.1-.6-1-1.7-.7-2.7-1-3.1-.5-5.2-.2-8.1.7m-59.3 6v1.4c-1.2 0-2 0-2.7 1.3-1-2.2 0-6.9-1.5-8.5-1.4-1.4-7-1.8-8 0-.7.9 0 2 .3 3 .5 2.1-.6 4.4 1.1 5.9 1.3 1 2.8.4 4.3.4 2.8 0 5.9.7 8.6.2 1.9-.3.9-2-.2-2.5a33.9 33.9 0 01-2-1.2M103.7 283c-1.4.5-2.5 1.8-1.4 3 1.5 1.5 5 1.8 3.8 4.7-.9 2.5-4.4-.5-5.8 1-.7.9 0 1.7 1 2 1.5.4 4 1 5.6.4 1.4-.5 1.4-2.3 1.3-3.6-.1-2.8-.6-8.6-4.5-7.5m76 17.5l2 12h-3.9c-.3-1.4-.8-2.6-1-4 0-.8.4-1.7.2-2.4 0-.6-.6-.6-1-.4-2 1-1.1 3.5-.7 5.2.8 3.3 4.2 4.8 7.4 3 1.6-1 .4-4.6 0-6-1-5.6-2.6-11.7-2.7-17.5 0-1.7 1.2-5.7-.6-7-1.9-1.2-6.5-.5-7.3 1.7-.7 1.6 0 4.2.3 6 .6 4.3 4.3 1.3 6 3.3 1.2 1.5-.3 5.2 1.3 6.2m115-7.4v9.6L297 314c-1.1.2-2.9 1-4 .4-2-.8-.2-5.2 0-6.6l-3.1 1c.5 2-.7 6.6 2 7.5 1 .3 2.6 0 3.8 0 1 0 2.5.2 3.3-.7.9-1 0-3.7-.2-4.8-.8-3.5-1.2-7.3-1.8-11-.8-4.3-.7-8.4-.5-13 0-.8.3-3.6-1.4-3.2-2.2.7 1.5 7.8-3.2 7.6-2.1-.1-1.4-5.4-2.1-6.7-.8-1.8-2.7-1.2-4.1-1.1-1 0-2.8 0-3 .9-1 2 4.4.6 5.2 1.1 2.4 1.8-.4 7 3 8.1 1 .4 2.5-.4 3.7-.4M5.3 283.6c1.4 2.6 4.4 1.4 6.4 2.5 2.1 1.2-.7 5.2 1.4 6.5.7.4 1.3-.4 1.3-1 .1-1.4-.6-2.6 0-4 .3-1.3 3.5-1.4 4.7-1.3 3.1.3-.6 6.7 2.1 8 .7.4 3.7.2 4.3-.4.8-.6.7-1.8 0-2.2-1.1-.4-2.4-.2-3.4-.2.3-1.7.5-5.7-.6-7-1.2-1.2-3.9-.3-5.3-.1-3.6.3-7.2-1.9-11-.8m-4.6.3c-1 .6-.4 2-.4 3 0 1.9-.5 9.3 4 6.2.5-.4.6-1.2.3-1.8-.6-.9-1.7-1-2.1-2-.5-1.1-.2-3-.5-4.3-.1-.6-.5-1.6-1.3-1m166.1 6.6c-.6.2-1.5.6-2 .3-2.3-1 0-6.6-2.6-7-1 0-1 1.1-1 2 .4 1.8.4 6.4 2 7.6 2.2 1.9 4.2-.6 3.6-2.9m135.6-6.5c-2 1 2.3 3.3 3.8 2.4 2.9-1.5-2.4-3-3.7-2.4M22 333c.3-4.4.3-8.7.3-13 0-1.7.5-3.6.1-5.2-.3-1.8-4-2.6-5.4-1.7-1.5 1-.7 3.7-1 5.2-.7 3.5-1 7.2-1.8 10.6-.3 1.4-1.2 2.4-1.4 3.8h-.3c-1-4.8.3-9.8-.3-14.6-.1-1.5 0-3.6-.9-5-1-1.6-8.5-2.2-9.4-.5 2.2 0 5.3-.4 7.3 1 .8.7.8 1.7 1.6 2.2-.6 1.5-.2 3.1 0 4.6V332c0 1.2-1 4.6.8 4.9 1.7.2 2.4-4 2.7-5.2 1.4-4.3 1.8-8.6 3-13 .3-1.2 0-3.7 1.7-4 1.3-.2 2.2 1 2.1 2.1-.2 5.2-.7 10.5-.7 15.9 0 1.2-1 4.6.8 5 1.8.5 2.8-3.3 3.3-4.5 1.6-4.3 2.3-9 3.4-13.6.2-1.1 0-3.9 1.4-4.1 1.9-.4 1 3.6 1 4.6 0 4.1.2 8.8 1 12.8.2 1-.3 2 .2 3a4.2 4.2 0 003 2.4c.8.1 2.8 0 2.2-1.3-.6-1.6-2-.9-3-1.8-.7-.7-.6-2.3-.8-3.4-.5-3.6-.2-7.6-.3-11.2 0-1-.8-3.2 0-4.2 1.7-1.7 5 .2 6.7-1.8 1-1 .8-5.2.9-6.7.2-3.6.2-7.7-.4-11.2-.2-1.2 1.6-2.9 0-3.2.6-2 1-5 .3-7-.5-2-1.9-.9-2 .4-1.3-1-2.4-2.3-4.2-2.5-4.2-.4-2.5 7.2-1.7 9.3 1 2.7 4.1.1 5.3 1.8.7.9 0 2.9 0 4 .4 3.5.7 6.8.3 10.3 0 1 .2 2.5-.5 3.4-.4.6-1 .8-1.7 1l-1.4.2c-4 0-.5-4.5-2-5.7-2-1.4-1.9 4-2.5 4.4-.9.8-2-1.2-2.7.2-.8 1.2-.6 3.3-.8 4.7-.5 3.4-1.4 6.6-2.2 10-.4 2-.2 3.8-2 5.2m299-48.3c0 1.4.5 3.5.1 5.1-.5 1.7-4.5 1.7-5.7.7-1.3-.9-1-5.4.2-6.1 1.4-1 3.8-.2 5.3.2m-215.2.5l-1 .3-.4-1 1.4.7m182-.7l-.2.3.2-.3m-196.9.6c-1 .6-.2 2.4 0 3.2.1 2.5-.3 7.8 4 5.1.5-.3 1-.8.8-1.4-.4-1-1.9-.4-2.5-1-.7-.9-.3-7-2.3-5.9m55.7-.3v.8h-.3l.3-.8m129.3.3l.5 6.2c-1.3-.3-2.7-.5-3.8.6-.7-1.1-1.8-5.9-.4-6.7 1-.6 2.7-.1 3.7-.1m-206.2 0v.8h-.3l.3-.8m180.1 0l-.3 1.9h-.2l.5-1.9m-71.8.2c0 1.5.6 4.3-.5 5.7-2.5 3.2-3.7-4-3.8-5.2l4.3-.5m157.7 0l-.3.3.3-.3m-145.6.3l.3.8-.3-.8m-152 3.1v3c-1.2 0-3.4 1.1-4.4.2-1-1-1.1-5.2.6-5.5 1.6-.2 2.5 1.9 3.8 2.2m257.7-1.3l-.4.5h-.2l-.3-.5h.9m-257.1.3v.5H38v-.5h.6m238.6.5l-.2 1h-.3v-1h.5m-6 .5l-.8 1 .3-1h.5m65 .8l.2.5h-.5l.2-.5m-244 .8v.9h-.6v-.9h.5m-89.7.3l-.2.3.2-.3m363.3.9c-1.2.8 1 3 2.2 2.3 1.4-.9-1-3.3-2.2-2.3m1 .2l.1.6h-.5l.3-.6m-84 .4c.2 0 0 0 0 0m39.1.2c.2 0 0 .2 0 0m-26 8.6v1.7h-.6l.6-1.7m0 2.2l.8.8-.8-.8m-109.5 1c.5 6.4 1.7 12.5 2.1 18.8.1 1.6 1 3.3.8 5-.3 2-2.3 7.8 0 9.5 1.6 1 2.4-1.6 1.4-2.5.4-1.2 0-3 .6-4 1-1.3 4.8-1 5.4.5.9 1.9-.5 4.1.8 6 .8 1.2 5.3 1.7 5.8 0 .3-.8-1-1.1-1.4-1.4-4.4-.9-1.3-4.3-3.2-7.1-1.8-2.4-6.2.5-7.4-1.9-1-1.5-.5-4.7-.6-6.5-.2-3.5-1-6.8-1.4-10.2-.2-2.6.4-6-3-6.2m-66.3 5.8c-.8 2-.4 4-.2 6.2a189 189 0 002 15.3c.5 1.5 0 5.8 1.8 6.5 1.2.5 1.3-1.4 1.2-2.2 0-2.2-1.5-5.6 2-5.6 4.2 0 .6 6.9 3.6 8.4 1 .5 2.5.7 3.5.2 1.2-.7 1-2.3-.2-2.9-.9-.2-1.8 0-2.5 0-.1-2.3.7-6.1-1.2-7.8-1.2-1-4.4-.7-5.9-.5l-2.7-16.2v-5.8c-3.5-1.8-3.5 3.1-1.4 4.4m227 18c2 2.2.4 6 2 8.6.7 1.2 5 1.3 4.9-.6-.2-1.7-3.1-.8-3.6-3-.5-2 0-4.2-.2-6.4-.4-4.3-1.9-8.4-2-12.7 0-1-.4-6.3-2-5.5-1.2.7-.5 4-.3 5.1.5 3.1.7 6.1 1 9.3.1 1.6.7 3.5.2 5.1M297 308.1v.8h-.2l.2-.8m65.7 18.2c-1.6-.1-3.8-.6-5.1.7-2.4 2.3.3 9.4 2.8 10.7 1.4.7 5.4.4 6-1.3.6-1.9-1-4.2-1.1-6-.3-5.8-1-11.6-.6-17.5-2.9.1-2 3-2 5 0 2.7-.5 5.6 0 8.4m-32 3.3c-.2-3.3-4.1-.6-5.2-3.1-1.8-4 .8-9.2-1.3-13.4-2 .9-1.3 3.3-1.3 5 0 4.6.4 9.2 1.3 13.6.3 1.5 0 4.3 1.6 5 .8.3 4.2.3 3.7-1-.4-1-2-.6-2.6-1.4-3.1-3.7.8-4.7 3.8-4.7m-29-8.4c-1.1 1.7.4 5 .5 7-1.4 0-3.9 0-4.4 1.6 1 .5 3.8 0 4.4.7 1.3 1.5-.7 4.8 1.4 6.2.9.4 6 .6 5.7-1-.2-1-2.8-.6-3.5-1-1.4-1.2-1.2-3.3-1.2-5h3.6c-.7-1.8-2.2-2.2-4.1-1.8-.4-3.1-.7-6.3-1.4-9.5 0-1-.3-2.8-1.4-3.1-1.4-.7-.3 5 .3 5.9m-234.5-3.8l.8 10.5c-.9 0-5.1 1.3-3 2.7 1 .7 2.4-.4 3.2.6 1.3 1.7 0 4.1 1 5.7 1.5 2 3.8.5 3.5-1.7h-2c0-1-.5-3.4.2-4 .7-.9 3.2.2 3.2-1.4 0-2-2.8-1.4-3.4-2.8-1.2-2.4-1.2-7.5-1.3-10.3l-2.2.7m1 1l-.7.8.2-.8h.6m185.1 3.5c-2 .2 0 2.2 1.3 2 1.6-.2-.1-2.1-1.3-2M83.1 328c-.4-.6-.9-1.5-.5-2.3.5-.8 2-1 1.6-2.5-1-1.8-4.4-1-4.2 1 0 1.7-.9 3.5-.7 5 .1 1 1 1.6 1.2 2.6 0 1.8-.5 3.5.3 5.2.8 1.5 5.2 2.7 6.3 1 1.6-2.4-3.5-1.8-4-3-1.3-3 1.6-3.7 2-5.8 0-1.5-1-2.5-2-1m68.9-5c-.4 1.6-.6 4-.3 5.5.3 1 1 1.6 1.3 2.6.5 3.3.2 6.6.6 9.8 0 .8.7 6 2.4 4.2 1-1 .2-2.9 0-4.1-.2-2.4-.3-4.6-.8-6.9-.2-1-.7-2.7 0-3.7s2.2-1 3.2-1.4c.4 2.3-.9 5.8.1 7.9.8 1.5 3.5 2.8 4.9.9 1.3-2-2-2.3-3.1-2.4.2-2 1.5-7.5-1-8.5-1.5-.5-3.1 1.1-4.3.4-1.8-1-.9-3.7-3-4.3m-5.8 5.5l-3 .8c-.2-1.5.2-2.4 1.4-3.3v-.5c-2-1-3.5.6-3.6 2.6 0 1.4 1.3 1.9 1.6 3.1.6 2.3-.8 5.2 1.2 7 1.3 1 5.9 1.2 5.2-1.3-.4-2.3-2.9-.5-4.1-1.8-1.9-2 1-4.8 1.3-6.6m81.2 6.1c-1 2.7 2.2 3.8 4.4 3 2-.8 2.6-5.3 1.4-7-.8-1-2.4-1.5-3.6-2v-.5l1.6-.3c.9-.3 2.1-1.6.8-2.2-1.4-.6-3.5 0-4.4 1.2-2.7 3.3 2.6 3.5 3.6 5.1 2.1 3.4-2 3.1-3.8 2.8m61-7.4c.5.1 2.4.4 2-.7-.8-2-4.1.5-4.1 2 .2 2.5 5.1 2.2 4.8 5-.2 2.1-5.4.7-4.3 2.9 1.5 2.8 6.9 0 6.6-3-.3-3.3-5.8-3-5.1-6m50.3-1.1c-4.1.5-3.8 8.2-1.2 10.6 1 1 3.3.8 4.7.6 2.8-.4 1.8-3.6 1.2-5.3-.8-3-.4-6.4-4.7-5.9m-222.9 3.7c-.3-2.5-2.9-4.4-5-2-2.7 3 0 12.6 5.2 10.2 1-.5 1-1.4.3-2-1-1-2.4 0-3.3-1-1-.8-1.6-4.7-.4-5.5 1-.5 2.3.2 3.3.3m93.5-3c-2.5.3-1.5 8.1-.3 9.7.8 1 2 .9 3.2.9 3 0 7.1.6 9.8-.5.6-.2 1.3-1 .6-1.7-1.3-1-3.6.8-5.1-.8-1.1-1-.6-3.5-1-5-.9-3-4.4-3.2-7.2-2.7m51.5 2.8c1.7 0 6.2-.8 7 .8 1 1.9-1.3 5.8 1.2 6.7 2.4.8 6.7.3 9.3 0 .6 0 3.2 0 2.4-1.2-.7-1-4.2-.8-5.4-1 .2-1.1.3-2.1.2-3.2l-.2-2.1c0-1-1.6-3.8-2.3-1.7-.5 1.6 1.6 7.2-1.5 7.2-2.5 0-1-5.6-1.8-7.2-1.7-3-7.8-1-8.9 1.7m-159.5 6.5c.2-2 0-7-1.5-8.6-1.5-1.4-7.2-1-8 1-.3.9.2 2 .5 2.7.5 2 0 5.8 2 6.8 1.6.8 4.1.1 6 .3 1.3 0 4.8.6 5.7-.7 2-2.5-3.8-1.5-4.7-1.5m262.6-9.3v.6l-.6-.6h.6m-321 2.5c.7 2.2.5 5.4 1.4 7.4 1.2 2.3 4 .6 5.1 2.2 1 1.5.5 4 .4 5.6 0 2.5.8 5 .8 7.4 0 1 .3 2.8-.7 3.6-3.6 3-3.5-2.9-4.2-4.7-.3-1-1.6-1.3-2.2-.3-.7 1.6.3 5.8 1.7 6.8 1 .7 2.8.5 4 .5 1.3 0 3.5-.2 4.1-1.6.9-1.9-.3-5.1-.5-7l-1.2-15.3c-.2-2-1.3-3.5-.8-5.6-1.9-.7-2 1.2-2 2.6-.2 2.8.5 4.4-2.6 5.2-.1-2.3 0-6.6-1.8-8.3-1-1-6-.7-6.5.8-.7 2 4.1 1 5 .7m294 1.4l.7-2.2c2.8-1.9 3 .9 3.5 3 .2.9 1 2.2.6 3.1-.3 1-2.3.8-3 .2-1-1.1-.4-3-1.8-4M98.6 328l-.3.3.3-.3m265 7c-4.3.2-4.4-2.7-4.4-6.3l3.7.3.7 6m-99.5-6.1l-.2.3.2-.3m-54 .3l-.8.8.8-.8m93.5 0v.8h-.3l.3-.8m-207.4.3c2.5-.2 4.4 6 2 6.3-.9 0-2.8.3-3.5-.4-2-1.7-1-5.6 1.5-6m3 0v.6h-.6v-.5h.6m111.1.2l2-.2c1.8.4 3.6 3.9 2 5.5-.8 1-3.2 1.5-3.8.1-.3-.8-.2-1.8-.3-2.6a6.2 6.2 0 01.1-2.8m93.5 1l-.2.4.2-.3m21.2 0c.2 0 0 .2 0 .2m-70.1 1c-2.6.4-1 4.7-.6 6.2.4 1.4 0 3 0 4.5 0 2.9.8 5.9.9 8.8 0 1.3.8 3 .4 4.3-.2 1-2 1.8-3 1.3-1.8-1 .2-4-1.6-4.6-1-.4-1.5.8-1.6 1.6-.3 2-.5 5.2 2.2 5.2 1.4 0 5.2-.5 6.1-1.7.8-1 .4-4 .3-5.3-.5-4.2-.5-8.5-1-12.8-.2-1.8.9-7.8-2.1-7.5m82.4.1v.6l-.6-.6h.6m-237.3.6l.3.6h-.6l.3-.6m168.7 0l-.2.3.2-.3m69 2.4l-.1.3.2-.3M218.2 337v.5h-.5v-.5h.5m-169 .5l-.3.3.2-.3m103 5l.4.2-.3-.3m-67.7 32.4c0 2-.5 4.9.4 6.6.6 1.4 3.7 2.1 4.8 1 2.3-2-1.6-2.7-3-2.5-.6-2 .4-5.4-1.1-7.2-1.6-1.7-5.4 1-6.8-.7-.8-1-.8-4.1-.8-5.4l-.3-11.1c0-1.5 2-6-1-5-2.4.9-1.5 5.4-1 7.2.2 1.7-.2 3.1 0 4.8.1 4.8.2 9.8 1.2 14.4.3 1.6-.3 4.9 1.4 5.7 2.3 1 1.2-6.2 1.9-7.2.9-1.3 3-.8 4.3-.6m210.8-24.3c-.4 2.6.5 5.5.8 8 .7 4.9 1.7 9.7 2.4 14.6.4 2.4-.2 5.8 1 7.8 1 2 6 1.9 6.8-.2.9-1.6-.3-5-.6-6.8 1.2 0 4.1 1 5 .3.8-.6.4-2.1-.5-2.4-1-.4-3.6 0-4.8 0-2 0-2.9 3.4-.8 4.1-.7 1-.2 3.6-1.9 3.8-2 .2-1.8-3.7-2-5-.2-5.9-1.5-11.7-2.4-17.6-.3-1.8 0-5.9-2-6.6l.2 1h-.3l-.2-1h-.7m-82 24.4c1.3 0 3.7-1 4.8 0 2.6 2.1-.7 7.9 3.4 8h1.8c1.2-.1 2-.3 2.5-1.4-1.3-.6-3.8-.9-4.5-2.1-1-1.9.4-5.3-1.6-6.9-1.6-1.2-6.6 1.3-7.6-.8-.4-1-.2-2.2-.3-3.2-.4-3.5-.3-7.2-1-10.6-.4-1.3-.4-3.9-1.8-4.4-2-.7-.5 4.3-.2 5.1.4 1.7 0 3.1.3 4.8.4 4 1 8 1.2 12.2.1 1.4 0 5.6 1 6.6.8.8 1.9 0 2-1 .5-1.8 0-4.3 0-6.1M63.9 358.2l-.4 3.5 1 10-1.6 1.7 1.3 1c.3 1.8 0 6.1 1 7.3.8 1 5.2 1.2 5.6-.1.7-3-5-1.2-3.9-4.6.2-.8.6-2 1.4-2.3 1-.4 3.6-.3 3.6-2 0-2-4.7 1.3-5.4-1.4-.8-2.9-.6-6.2-.8-9.3-.2-1.5 0-3.3-1.8-3.8m48.7 15.2v1.7c4.8.2 0 8.2 6 7.7.6 0 1.3 0 1.8-.3.8-.3 1.6-1.6.8-2.4-.5-.7-2 0-3-.2-1.2-.3-2.6-3.9-1.6-4.8.8-.8 4.5 0 4.5-1.7 0-2-3.8.2-4.5-1.3-1.1-2.5-.5-6.2-.8-8.7-.1-.7-.3-2.6-1.5-2.4-1.3.2-.7 2.4-.7 3.2.2 2.7 2.6 8.7-1 9.2m185.3-10.7c.2 0 0 .2 0 0m25 17c0-1.4-.2-3.2.3-4.6 1-2.4 3.8-3.4-.2-4.1v-4.3c2.6 1 1.1-3-1.4-1.3s-.6 6.7-.6 9.2c0 1.4-.5 2.8-.4 4.3 0 1 .5 2.7 1.3 3.3 1 .7 3.1 1 4.2.2.6-.5.6-2.4-.3-2.8-.8-.3-2 .1-2.8.1m11.9-5c0 2.3-1 5.2.3 7.2 1 1.6 4.4 1.6 5.1-.2 1.3-3.1-2.7-1.4-3.2-2.8-.3-1-.4-3.1.4-4 .6-.4 1.6-.4 2-1.3 1-1.5-.8-1.8-1.8-1.4l-1.7.7.2-5.7c4 .5 1.5-2.8-.5-1.9-2.5 1.3-3.8 8.7-.8 9.5m-55.5 7.4c0-.8 0-2-.8-2.3-1.1-.5-3.2 1.3-3.8-.5-1-2.8 1.7-4.6 1.1-7l-2.6.8.2-3.3 2.1-2.1c-1.5-.5-3.5 0-4 1.6-1.4 3.1.6 4.1 1.2 6.5.9 3-1 8.4 4.5 7.2.8-.2 1.4-.6 2.1-1m-237.8-2c0-2.7 1.2-3.4 2-5.5.8-2.2-.7-6-3.2-3.5-1.7 1.6-.4 2.7-.3 4.5.2 2-1.6 5.2.5 6.9 1.1.8 4.1.7 5.2 0 .8-.6 1-2.2 0-2.6-1-.5-3 0-4 0m299.7-6.7c2.8 1.4 6.3.6 9.4.9 0 1.5-.5 7.3 1.4 7.9 1.4.3 1.8-2.2 1.8-3.1 0-2.8-1-5.5 3.3-5.2 1.2.1 1.4 1.8 1.4 2.7.1 2.3-.6 5.2 2 6.2a8 8 0 005.1.2c1-.5 1.2-2.4.2-3.1-1.1-.6-3.6 0-4.8 0 0-1.4.4-7.2-.7-8.1-1.3-1-4.1.2-5.6.3-1.5 0-3-.7-4.6-.8-1 0-2 .5-3 .4-2.3-.2-4.7-1.3-6 1.7m-104 8.1h.5c.6 1.3 4.4 2.5 5.8 1.4.5-.4.4-1.8.4-2.5-1.1 0-2.4.5-3.5 0-2.9-1.5-.2-6.1-2.3-7.8-.7-.5-2-.7-2.8-.8-5.2-.5-4.5 3.5-4 7 .2 1.1 0 2.8.8 3.7 1.3 1.4 4 .4 5.1-1m18.2-4c0-1.4 0-2.6-1.1-3.6 1.5-2.5-6.2-2-7.6-2-.8 0-1.9-.1-2.1.7-.3 1 1 1.6 1.8 1.7 1.6.2 4.8-1 6.1 0 1.3 1 1.2 4.3 1.5 6 0 .6 0 1.9.9 2 1.1.4 1.5-1.4 2-2 1-2 2.4-5.1 4.7-5.7 1-.3 3.5.2 4-1.3.3-.8-1-1-1.6-1.1-1.6-.2-3.6.2-4.8 1.2-1.4 1.3-2 3.3-3.8 4.1M9.4 374.6c0 1.7-1.8 4.6-1.1 6.1.5 1.7 2.2.6 2.6-.5.6-1.5-.2-3.7-.2-5.4 1.5 0 5.2-.7 6.2.2 1.7 1.3 0 4.6 1 6.2.6 1 1.7.6 1.8-.4.3-1.8 0-3.9 0-5.7 1.4 0 4.3-.5 5.3.4 1.5 1.5.4 4.6 1.5 6.3 1 1.6 5.8.8 6.5-.8-1.1-.6-4.1-.6-4.8-1.6-1.2-1.9 1-6-2-6.9-2-.6-4.4 0-6.4 0l-11.2.2c-1.5 0-4.9-1.4-6.2-.5-.7.5.1 1.5.7 1.6 2 .6 4.3.8 6.3.8m93.3 7h.2v.9c2.7-.2 8 1.3 8.4-2.5-1.4 0-4.8.7-5.9-.2-2-1.7.6-6.3-2.2-7.6-1.4-.6-6.6-.6-7.6.5-1.2 1.3-.4 7.7.6 9.2.9 1 6.1 1.3 6.5-.2M42.6 372l-1.4 1.7 1.4-1.6m108.8 29.6c-4.7 0-3-4.7-2.8-8.1-4.2.6-3.7 9.6.5 10.2 1 0 3.9 0 4.4-1 .7-1.6-.2-4.3-.3-6-.4-5.5-1-11.1-1.3-16.6-.2-1.7.4-6-.9-7.4-.8-.9-1.3 1-1.3 1.5.1 2.2 2 8.2-2.5 7-2.4-.7-1-6.2-2.2-8-1-1.5-4.1-.9-5.7-.9-.8 0-3.7-.8-3.7.5 0 3.6 7.2.8 8.4 3.1 1 2-.3 4.7 1.3 6.6 1.3 1.6 4.3-.7 5.2 1.2 1 1.9.1 4.1.2 6 .1 4 .7 8 .8 11.9m23.7-29.6c.2 3 3 1 4.4 2.6 1.7 2-.1 6 1.6 7.5 1.3 1 2.6.5 4 .5 1.9 0 4.7 1.4 6.5 0 .5-.4 1-2.5 0-2.6-1 0-3.4.4-4.3.7-.7-2 0-4-.2-6.2 0-.7-.2-2.3-1.4-1.7-1.4.8.3 3.3 0 4.4 0 2.3-1.4 2.4-3 3.2l-1.5-5.7-.6-2-5.5-.7m-14.6.5c-1.9 1-.7 3.4-.4 5 .2 1.2-.1 2.8.4 4 .8 1.7 4.4 1.8 5.8 1 1.9-1 1.3-3.2 1-4.7-.6-3.4-.8-5.5-4.8-5.5-.6 0-1.4 0-2 .2m-58.3.8c0 1.5 1 5-.2 6.1-1 1-3.4.5-4.7.5l-.2-6.3 5.1-.3m60.1.2c3.6-.8 5.2 6.6 2 7.3-3.2.8-4.5-6.7-2-7.3m71 0c3.7-1.5 4.3 5.5 1.2 6.7-2.4 1-2.5-6.1-1.2-6.7m21 .9v.2-.2m-150.4.9v.8h-.3l.3-.8m133.7.8v.5h-.6v-.5h.6m-51.3 1.7l-.3.2.2-.2m69 .2l-.2.3.3-.3m-245.7.6l-.3.2.3-.2m246.2.2l-.3.8h-.2l-.3-.8h.8m-151 1.6l-.6.8.6-.8m46.3 1v.3-.2m58.3 1.7v.5h.6v-.5h-.6m-76 42.3h-.3l.3-1c-1.2-1-1.2-1.7-1.2-3h-.5l-.3 1.3h-.3l1.1-1.6-1.3-4.3 1 1.3h.3l-.8-12.5-2.1-15.7c-2.7 1-1.2 5.1-.9 7.3.9 7 1.7 14.1 1.8 21.1 0 1.7-.7 7.2.7 8 2 1.2 7.4.6 8-2 .3-1.3-1-3.8 0-5.1 1.1-1.3 3.6 0 5 0 .8-.1 1.5-.8 1-1.6-1.4-1.7-7.7-1.8-8.7.3-.8 1.8.7 4.1-.3 5.9-.6 1-2 .3-2.5 1.6M190 421v.2c-2.4.4-1.2 4.4 0 5.5 1.4 1.2 4.2.5 5.6.5l-3.9-2.7-1.2-3.3c1-.6 1.6-3 .2-3.8-2.3-1-6.5 1-8.5-.7-1.6-1.4-1-4.7-1-6.6 0-5.1-.4-11-1.3-16-3.5 0-2 3.7-1.8 6 .7 3.3.5 6.8.8 10.2.2 2.3 1 5.1.7 7.2-.2 1.8-1 7.4.2 8.7.6.7 1.4.3 1.6-.4.4-1.5.2-5.4 1.8-6.3 2.4-1.5 5 .3 6.8 1.5m143.4-2l5.5-.3c0 1.9-.6 5.9.4 7.4 2 3.1 5.6 1.3 6.2-1.6-1.4-.2-3.3 1-4.2-.1-1.2-1.5.2-4.5 0-6.2-.6-2.7-6.2-1.6-8.2-1-1.5-5.7-1.3-11.5-2-17.2-.1-1.3.7-4.9-1-5.3-2.6-.7-1.5 5.9-1.3 7.2.5 6.3 1.5 12.5 2.4 18.8.2 1.2-.1 5.4 1.4 5.6 1 .2 1-1 1-1.5.2-2-.2-3.8-.2-5.8m-116.8-20l-.2 1 .7-1h-.5m-2.5.7v.3l1.1-.5-1 .2m-61.5.3v1.4h-.5l.5-1.4m-22.6.6l.3 1.3h-.5l.3-1.3m88.8 19.3c1.4 0 4.1-.9 5.2.2.8.6.5 2 .7 2.7.7 3.2 1 5 4.5 5.4.6 0 1.4.2 2 0 .8-.4.9-1 .3-1.7-1-1-3.3-.4-4.1-1.8-1-1.4.5-6-1.6-6.8-1.6-.7-6.9 1.7-7.8-.8-1.4-3.7-.1-9-.6-13-.1-1.3-.5-4-2.6-3.3-.9.3-1 1.7-1 2.5-.1 2.6.4 5.8.8 8.4 1.4 10 2.4 19.6 4 29.3.1 1 .4 3 1.2 3.8.8.8 2.4.4 2.6-.8.7-4.3-3.4-8.4-2.5-13 .3-2-.8-3.7-1-5.7-.2-1.7.1-3.6 0-5.4m-39.5-17.6c.2 0 0 .1 0 0m186.2 15.4l-1-.3c-.8 2.5.6 2.2 1.8 3.6 1 1.4.4 3.8 1.7 5 .8.7 3.5 1 3.3-.7-.2-.8-1-1.1-1.6-1.7-1-1-.5-3-1.7-3.7v-.3c.9-.1 2.3-.1 3-1 1.3-1.6-2-1.1-2.5-.9-1-3.9-1.5-8.2-1.9-12.3 0-.7-.8-3.7-2.2-2.2-.8.8 0 2.9 0 4 .4 3 1.7 7.4 1 10.5m-185.8-14.7l.3.3-.8.5.5-.8m138 .5l1.4 13.7c-1.8.5-3.4 2-.5 2.4.3 2-.7 5 .7 6.4 1 1 5.7 1.8 6-.4 0-2-3.5-.6-4.4-1.5-1.4-1.6.2-4.3.6-5.9h.3v1l4.2-.5v-.5c-1.8-.8-2.8-1.3-4.8-1-.2-3.6-.2-7.2-.6-10.7-.2-2-.3-4.1-2.9-3m12.6-.5v.5h-.6v-.5h.6m-31.9 13.4c-1.4 0-3.7.2-4.7 1.3-1.6 1.9-.7 7.7 1.2 9 2 1.4 6.6 1.7 7.5-1 .5-2-1-3.5-.9-5.2 0-1.9 1.1-2.5.5-4.4l-.8.5c-.3-2.7-1-6.5-2-9-.5-.8-2.1-2.4-3-1.4-.7.7.4 2 .7 2.8 1 2.1 1 5 1.5 7.4m-234.2-3.1v.3l-.6 2.8c-4.6-1.2-5.7 2-6 6 0 1.4-1 3.5.7 4.3 1.5.8 6.4 1.5 7.6 0 1.2-1.7 0-3.8 0-5.5 0-1.2 1-2.3 1.1-3.5.1-1-.4-1.8-.6-2.8-.3-2.2.3-5.6-.8-7.7-.4-1-2-.7-2.5.2-.7 1.7-.2 4.8 1 6m92.8-5c-1.2-3-4.5 1-1.1.4.4 0 .7-.2 1-.3m209.3 1.3l-.3.3.3-.3m-200 9.2l-.6-2.6v-.3c1.2 0 2-.2 2.5-1.4-2.9-.9-6.5 1.9-4 4.9 1.1 1.2 3.7.6 4 2.4.7 4.3-2.4 2.5-4.8 3.1-1 .3-1.4 1.4-.6 2 1.5 1 5.8 1 7.2-.2 1.6-1.3 1.3-5.6-.3-6.8-.8-.8-2.3-.9-3.4-1m-3.8-4.4v.2l1 .3-.1-.8-.9.3m93.7 1.9c-1.7-.4-4.1-1.4-5.6 0-1.7 1.6-.7 9.4 1.4 10.6.8.5 2-.1 2.9 0h6.5c.8 0 2 .3 2.5-.3 1.8-1.5-3.3-1.5-3.8-1.3l-.3-2-1.3-.8 1 .6c0-2.3.3-5.4-.4-7.5-.6-1.9-2.4-.2-2.9.7M77 425.7c0-1-.2-2.2.7-3 .8-.7 2.5-.4 2.7-1.6.5-2-3-1.4-2.6-2.9 0-1 2-1.2 1.6-2.4-1-2.1-4-.4-4.7 1-.8 1.7.4 2.7.5 4.3.1 1.6-1 3-.6 4.6.6 2.5 4.3 1.9 6.2 1.8.8-.1 2 0 2.2-1 .9-2.1-5.1-.9-6-.8m-73.4-8.4l5.2.8c-.6 1.8-1.5 4.7-1.3 6.6 0 1 1.4 1.6 2.2.8.5-.5.2-1.3.3-2 .2-3 .8-5.4 4.2-5.2.7.1 1.4 0 2.2.2 2.2.6 1 3.5.9 5.2 0 .5 0 2 1 1.8.6 0 .5-1.1.5-1.6 0-1.4.4-3.8 1.4-4.9.9-1 3.9-.2 5.1 0 0 3.6-.5 9 4.6 7.5-.7-.9-2-1.4-2.3-2.6-.4-1.9 1-5.6-.5-7-1-1-4.2-.8-5.6-.7-4.4.3-8.8-.5-13.3-.2-1.7 0-3.6-.4-4.6 1.3m36-1.1c-4.7.7-4.1 8.3-1.4 10.8 1.8 1.4 4 .3 5.9.2 2.4-.1 5.2.8 7.6-.2.6-.4.8-1 .2-1.5-1.5-1-4.1.7-5.4-1-1-1.5 0-3.8-.2-5.6-.4-1.5-5.2-3-6.8-2.7m260-.2l-.5 2 .6-2m57 10.2c.8.8 4.8 3.2 5 .9.3-1.6-2.6-2-3.3-3.1-1.4-2-.5-6.8-3.6-7.8-.7-.2-1.6 0-2.5 0-1 0-2.4.2-3 1.4-.8 2 .7 7.4 2 9 1.5 1.5 4.3 1.6 5.5-.3M203 416.5c-2.3 1-2 2.9-2 5 .3 3.7 2.1 8 6.8 6 1.7-.8 1-2.4.6-3.6-.6-2.5-1.3-9.3-5.4-7.4M113.8 427v-.3l-1.8-.3.2-1.3c-1 0-2 .2-3-.2-2.3-1-.4-5.8-2-7.6-.6-1-1.7 0-2.6 0-1.5.1-3-.7-4.6-.3-2.3.6-1.6 8.6 0 9.9 1.2.9 3 .4 4.3.4 3.3 0 6.4.3 9.5-.3m141.9-10.3v.8h-.2l.2-.8m9.5.8v.8l7.3.5c.1 1.6-.4 7.5 1.5 8 1.3.4 1.3-2 1.3-2.8 0-2.7.1-5.2 3.5-4.9 3.6.4.1 6.2 2.5 7.5 1.2.8 3.6.8 4.8.6.7-.1 1.5-1 1-1.7-.8-.8-3.7-.5-4.8-.7.3-1.6.7-5.7-.6-7-1.3-1.2-3.5-.4-5.2-.4-3.7.2-7.5-1.3-11.3 0m32.6-.4v.5h-.5v-.5h.5m-145.3.5c-1 .1-1.6 1-1.7 1.9-.2 2.2-1 8.9 3 8.2 3.7-.7-.3-3-.6-4s.6-2.7.6-4c0-.7-.3-2.2-1.3-2.1m104.5 1.6l.6-1 .6 2.7-.9-.3.3 1.3-.3 3.1c-3 1.4-4.6-.1-4.9-3 0-.9-.4-3 .5-3.6 1-.6 3.3.3 4.1.8m43.3 5.7l-.3.3c-1 0-2.5.3-3.4-.4-3.5-3 1-10 2.9-3.7.3 1.3.4 2.6.8 3.8m53.8.8c-1.9-.6-4.8-5.8-2.4-7.3 1.4-.8 2 .6 2.6 1.7 1.3 2.6 1.2 3.4-.2 5.6m-315-7.2c3.4-1.5 5.7 5.7 2.4 7.2-2.8 1.6-3-3-2.8-4.8 0-.7-.2-2 .5-2.4m24.6.1v6.3l-3.8.3.8-6.8 3.1.2m210.6 0c.2 1.4-.2 2.3-1.3 2.8l1.3-2.8m.8.1c.2 0 0 .2 0 .1M105 425l-3.5.7a15 15 0 01-.3-6.8c4.1.7 4.1 2 3.8 6m99.8-6c.5 1 2.3 5.2 1.2 6-.7.5-1.7-.2-2-.8-.7-1.6 0-3.5 0-5.2h.8m95 0l-.4.9-.3-.3.3-.6h.5m-48.6.6l.2 1.4-1-.3.3-1h.5m-210.4 1v.8h1v-.8h-1m162 .5l-.3.3.3-.3m-102.5.6v1h-.5v-1h.5m200.6.3c.2 0 0 .1 0 .1m-163.3 0l.5 1.2c-.7-.1-1-.5-.5-1m120.4 1.6v1.6h-.3l-.3-1.6h.6m16 .5l-.3.3.3-.3m7.6.3l-.5.5v-.5h.5m-168.3.5v.3l1.5.5-1.5-.8m182.7-.3v.6h-.5v-.6h.5m-36.7.3v.5h-.5v-.5h.5m22.8 0l.6 1-.6-1m-114 .5l-.3.3.2-.3m-57.3.6c.2 0 0 .2 0 .1m131.8 7.7c.2-.9.3-1.7.2-2.6l-.2-2.2c0-.6-.6-3.4-1.7-2-1 1.3.1 6.4 1.7 6.8M92.7 451c2.2-.1 5.3.3 5.4-2.7l-5.7.5-1.7-11.7 3.1.3h2c1.2.2 3.2-1 1.6-2s-5.7-.5-7.7-.8c-.8 0-1.7-.3-2.4.4-.6.6 0 1.7.3 2.4.6 1.9 1 4.1 1.4 6 1.2 6 1.8 12.1 2 18.2.1 2-1 5.5.1 7.3 1 1.5 2-.3 2.1-1.3.3-3 .2-5.5 0-8.4-.2-2.8-.5-5.4-.5-8.2M328 438.8c0 8.6 1.5 17.3 2 25.8.2 1.2.8 7.6 2.8 6.7.6-.2.8-1 .6-1.5 0-2.4-.3-3.4.4-5.8 5-.2 1 6.2 4.3 8.2 3.9 2.1 5.1-2.5.8-2.7-.3-2 .5-6-1.2-7.7-1.5-1.4-4 .8-4.9-1.3-1-2.1-1-5.3-1.3-7.6-.6-4.7-1.3-9.3-1.3-14.1H328m1 .8v.5h-.5l.6-.5m-108.7 1.3l.3.6-.3-.6m109 .3v.5h-.6v-.5h.5m0 2.5l-.2.3.2-.3m-206.7 4.1c-.1.7-.5 1.4-.4 2 .2.9 2 3.8 3 2.6 1.5-1.6-1-4.5-2.6-4.6m57.8 13.6a3 3 0 00-4.6 1.6c-.7 2.3 0 7.4 2.2 8.7 1.3.9 2.4.1 3.7 0 1.2 0 3.1 1.3 4 .3 1-1-.3-3.8-.5-5-.3-1.7.3-3 .3-4.8-.2-2.3-1-5.2-1.4-7.4-.2-.7-.6-6.4-2.5-5-1 .9 0 3.1 0 4.2.6 3.1 1.4 5.3-1.2 7.4m149.5-12v.6h-.6v-.7h.6m-147.9.8c.3 0 0 0 0 0m-57.8 0v.9l-.6-.8h.6m58.4 2.2v.5h-.6v-.5h.6m0 1.4l.3.5-.3-.5m43.7 15.7l-2 .8c-.7-.2-1.2-.3-1.7-.6-1.2-.6-.8-1.8 0-2.5 1.2-1 4.5-1.6 3.6-3.7-1.6-3.7-4 1-5.6 0-.6-.3-.3-2.3-.4-3l-1.5.3.3 1-1-1 1-1.9.8.5c.6-1.8.6-2.4 2.5-3-2.2-4.3-5.6 1.2-5.7 3.8 0 1.5.2 3.1.9 4.3.4.9 1.3 1.3 1.5 2.1.6 1.8-.3 3.5 1.3 5.2 2 2.5 6.1.4 6.1-2.3m-6.6-14.4v.5h-.5v-.5h.5m36.7 13.3c1 3.1 4.7 6 8.1 3.5.8-.6.5-1.6-.3-2-1.3-1-4-.4-5.6-.6.5-1.6.4-3.2 1-4.7.3-.8 1.2-1.4 1.2-2.2 0-.7-.8-1.4-1-2-.6-2-.3-3.4.2-5-3-1-3 1.2-2.8 3.5.2 2.4.9 7.9-.8 9.5m-153-12.3c-1 .7-1 4-1 5-.3 4.9-.2 10.2.3 15.2 0 1-.9 6.3 1.7 5.3 1.3-.6 1-3.3 1-4.5-.2-3.5-1.3-9 .1-12.1.5-1.4 4.8-1.5 5.2 0 .8 2.1.6 4 2 6.1.4 1 3.4 3.8 4 1.4.5-1.7-2.2-1.6-2.9-2.6-.9-1.9.6-6.7-1-8-2-1.5-5.2.8-7.2-.5-.8-.7 0-7-2.3-5.2M275 464c0 2.8-1 6.7 1.2 8.9 2.3 2.2 5.2-.3 4.6-2.8l-1.2.7-2.4-.2c0-1.5.8-7-.7-7.9-1.3-.7-4.2.5-5.6.8-.3-1.7-.4-3.8-1.3-5.4-.4-.7-1.5-1.8-2-.5-.8 1.3.4 3 .4 4.3.1 3 1.2 6.1 1.5 9.2 0 1.6-.5 3.1-.2 4.6 0 1 .3 6.2 2.1 5.7 1.9-.6.1-4.1 0-5.4v-7.3c-.2-.9-1-2-.5-2.7.8-1.4 2.8-1.7 4.1-2m84 7.6c1 .6 7.2 4 6.5.3-.3-2-2.3-2.1-3-3.8-.6-1.5.1-4-1-5.2-.8-1-2-1-3-.7-.5-1-1.8-6.2-3.7-5-.7.7 0 1.8 0 2.5.3 1 0 2 .2 3.1.2 1 1 1.6 1.1 2.7.9 3.6 0 7.2-.5 10.8-.2 1.3-1 3.5-.4 4.9 1 1.7 2-.5 2.2-1.4 1-3 1.1-5 1.6-8.2m14.1 1.7v-1.7h.3l1.3 1.2c-.2-1 .9-3.7-.2-4.4-1-.7-3 2.4-3.7.6-1-3 2.5-3.4 3.2-5.2 1-2.2-2.3-2.5-3.6-2 .2-1.6 1.5-2.4 3-2.9-.7-2.2-4.8-1.9-6-.2-1 1.4.5 5 .8 6.5.2 1.4-.9 2.2-1 3.5-.4 4 3.3 4 5.9 4.6M141 469.5v-5.2c1-.3 3.8-3.2 1.4-3.3-1 0-1.7 1-2.5 1.4v-3.2l3.3 1c0-2.2-4.4-3.9-5.6-1.5-1 2 1.1 4.6 1.5 6.5.3 1.7-.5 3.5 0 5.1.1 1 .7 1.8 1.7 2 1.6.6 6.5-1 3.5-2.8-.9-.4-2.3 0-3.2 0m-71 0c0-1.9 1-7.4-1.7-7.8-1.5-.2-3 1-4.6 1.3 0-1-.5-6-2.4-3.9-1.5 1.4 0 4.1.4 5.5 1 3 .2 6.7.6 9.8 0 1.1-.3 4.1 1.4 4.2 1.5 0 1-2.2 1-3 .4-2.1.3-4.7 0-6.6-.3-1.4-.9-3.1.7-4 .9-.5 1.8-.2 2 .7.7 2.3-.7 5.6 2.6 6.4 3.9 1 3.8-2.3 0-2.6m128.8.3c-1 0-6.2-.5-6.2.6-.2.8 1 1.5 1.6 1.7 1.4.4 6 .9 6.5-.8.8-1.6.3-5.4-1.4-6.4-1.2-.7-3.9-.6-4.3-2.2-.4-1.7 2-2.2 2.5-3.5-3.7-1-5.8 2.7-3.4 5.7 1 1.2 3 .8 4 2.2.7.7.7 1.7.7 2.7m150.6.3c-.4-1.8-.4-3 .7-4.3.4-.6 1.3-1 1.4-1.8.3-1.5-2.2-.5-2.8-1-1-.8.7-2.4 1.2-3-2.3-.9-5 .6-4.1 3.5.3 1 1.5 1.5 1.7 2.5.3 1-.5 2.2-.5 3.3-.2 2.1 2 4.9 4.5 3.9 2.4-1-.3-3.6-2.1-3.1m-334.6 1.3c.3 2.3-.2 4.5 0 6.8.3 2.9 1.3 5.8 1 8.7-.2 1.3-1.7 2-2.8 1.5-2.3-1 .5-4.9-2-6.2-.6 1.3-1.4 5-.9 6.3 1 2.2 5.1 2 6.8 1 1.2-.7.7-4.6.6-5.9-.4-6-.8-11.7-.8-17.6 0-1.4.6-6.2-1.4-6.2-1 0-1.3 1.5-1.2 2.4.2 1.6 2 5.8-.4 6.9-2.7 1-2.4-6.2-3.4-7.3-1-1.2-7.6-1.6-9-1.2-1.2.4-.5 1.4.3 1.8 2 1 5 0 6.9 1.6 2 1.7.8 5.7 3.1 7.1.9.5 2.3.3 3.2.3m243.3-11.7l-.3.3.3-.3m-234.2.8c-1.2.7-1.7 2.7-1.9 3.8-.8 4.7 3.8 9.9 8.5 7.4 2.4-1.2 1.3-3 .9-4.9-.9-4.1-.7-5.7-5.5-6.2-.6 0-1.3-.4-2 0m133 1.6h-.5c-.8-1.5-5.2-2-6.8-1.9-.8.1-2 .9-1.9 1.9 0 1 1.4 1.4 2.2 1.5 1.5.2 4.1-.6 5.1 1 1.2 1.6.1 6.2 2.7 6.6 1.2 0 1.1-1.5 1-2.3-.2-2.6-.4-7 3.7-5.3 3.1 1.2.4 6.2 2.7 8.2 1 .9 4.6 1.3 5.3-.3 1.3-2.6-3.6-1.5-4.3-2.4-1-1.5.3-5-.7-7-.8-1.9-7.8-1.7-8.4 0m81.4 3.5c-.8-4.1-2.5-4.1-6.1-4.9-.8-.2-3.5-1.2-4 0-.2 1 .9 1.5 1.5 1.8 1.8.6 4.4.5 5.9 1.8a9.2 9.2 0 012.2 4.3c.1.7.2 2 1 2.2 1 0 1-1.1 1.3-1.6.5-1.8 1.2-4.1 2.7-5.4 2-1.4 5 1 7-.5.7-.8 0-1.7-.8-2-1.6-.4-4-.6-5.7-.2-2.6.6-2.8 3.4-5 4.5m58 6.2c0 4 .8 8 1.4 12 .3 1.4 0 3.6 1.3 4.4-.5 1.3.1 4-.8 5.2-.8 1-2.4.6-3-.4-.8-1.3-.6-3.6-.6-5.1-2.8.7-2.7 7.2.3 7.8 1.4.3 5 .5 5.8-1 1-2.1-.3-6.4-.5-8.7-.8-7.9-3.2-16.4-1.8-24.2-3.6-1-2.5 2.4-3 4.6-.3 1.8-1 3-2.6 4.1-.7-2.3-1-7-2.9-8.5-1-.7-6.4-1.1-7.7-1.1-.6 0-1.2.3-1.3 1-.4 3.2 6.2 2 7.8 3 2.7 1.5.7 8.4 5.4 7.6l2.2-.7m-248.6-1c-.7-1-2-1.3-2.6-2.2-.8-1.3-.5-3.1-.7-4.7-.4-2.6-2.2-3-4.7-2.8-.7 0-3.5-.4-3 1.2.5 2 4 0 5 1.2 1.9 1.9.3 4.8 1.7 7s3.6 1.3 5.8 1.6c2.1.4 3.5 1.2 5.8 1 1 0 3 0 3.5-1 .4-1-.4-1.8-1.3-1.7-1.9.2-4.9 1.7-5.9-.5-1.1-2.2.4-5.8-1-7.7-.5-1-1.8-.5-2 .4-.5 1.5.2 3 .1 4.5 0 1.4-.6 2.4-.8 3.6m276.3-6.5c3 0 5 .6 5.5-2.6-2.1.4-5.5-.9-7.1 1-1.5 1.7.5 5.9-1.9 6.9-3.7 1.6-1.8-5.8-3.2-7.2-1.4-1.6-2.3 1.1-2 2.2l.3 2.1c0 1 0 2 .4 3-1-.1-3.5.4-4.2-.3-1.7-1.7.4-6-2-7.4-1-.6-7.5-.3-6.5 1.7.8 2 3.9 0 5.3 1.3 2 1.8 0 5 2 7.1.9.8 1.9.5 3 .5 2 0 7.4 1.3 9.2-.6 1.3-1.3 1.2-5.8 1.3-7.7m-294.8 6c-1 0-2.4-.2-3.2-1-1-1-1.1-5.5 0-6.4 2.8-2.4 3.1 2.6 3.1 3.9v3.5m302.8-7.6l1 .8-1-.8m-201.3 9.2c-.8-2.8-2.5-1.5-4-3-1.4-1.2 0-4.6-1.7-5.7-1.2-.8-1.8.6-1.7 1.7.3 2.1.2 5 2 6.7 1.3 1.3 3.5.3 5.3.3m-106-8.7l-.1.3.2-.3m157.7.3l1.3 6.2c-1.3.2-3.3.7-4.4-.2-1.2-.8-1.8-5.2-.4-6 1-.6 2.4 0 3.5 0m177 1v.1m-.7.6c.7.8 1.3 1.7.3 2.4l-.3-2.4m-42 .8v1h-.4l.3-1m-292.7.8l-.5.8v-.8h.5m252.2.3v.1s-.2 0 0 0m83.2 1l-.3.2.2-.3m-333.7 2l-.2.2-.6-.8.8.6m-9.7 0l-.6.5v-.5h.6m242.4 0c.2 0 0 .2 0 0m57.3.2l-1 .5 1-.5m43.7 0l.3.5h-.5l.2-.5m-231.5.3l-.3.2.3-.2m56.3 0v1h-.3l.3-1m9.8.2l-.3.3.3-.3m123 0l.3.8-.3-.8m3.3.3v.3l-1-.6 1 .3m-204 .3l.2 1-1-.8.7-.2m24.8 0v.5h-.6v-.5h.6m231.3 0v.2s-.2 0 0 0m-74.8 1l-.3.2.3-.3m-233.6 4.3v.2-.2M236 508c2 .7 5.1 1 7.3.7.8 0 2.1-1 1.4-2-1.3-1.7-7.5-.5-9.5-.8-.9 0-1.8 0-2.1.8-.6 1 1 5.1 1.2 6.4-1 .3-3 1-3.9.1-1.2-1.3-.4-4.9-.5-6.5a117 117 0 00-2-15.9c-.1-1 0-6.7-1.5-7-1-.1-1.3 1.2-1.2 2l.2 7.2c.2 5.2 1.2 10.6 1.8 15.8.2 2-.3 4.7.7 6.5 1 2 7.4 2.6 8.5.6 1.2-2.4-.4-5.4-.4-7.9m-219.2-22l-.2.2.2-.2m147.6 7.3c-2.2-.6-5 1.7-4.1 4.1.4 1.1 1.8 1.2 2.4.2.4-.6.4-1.4.8-2l1-2.3m-35.7 2.2c3.3 0 3.6 2.4 5.7-1.4-2-1.1-4.4-1-5.7 1.4m-26.5 1c-1.2 1 1.5 4.1 2.7 3 1-.7-1.3-4-2.7-3m148 2.6v.5h1.9l-.3-.8-1.6.3M25.8 523.3c-.3-2 0-4.5-.4-6.5s-1.3-4-1.6-6c-.2-1 .2-3 1.7-3 1.6 0 1.5 3.4 1.6 4.4.6 3.4 1.4 4.7 5 4.6.8 0 3 .2 3.3-1 .4-1.2-4.1-1.7-4.9-2.6-1.5-2-.6-6-2.6-7.7-1.6-1.2-3.3 1.4-4.8.2-.7-.5-.5-6.2-2.5-4.3-.6.7-.5 2-.6 2.9-.5 4 2.6 7.4 2.2 11.4-.2 2.5-1.7 4.8-.3 7 1 1.4 2.5.8 4 .6m226.3-14.4c-2.6 1.6-1.4 8 1.9 8.1 3.1.1 2.3-3-.6-3l.3-5.4c2.7-.7 1.9-2.7-.6-2.7v-2.1h1.7c0-1.8-2.3-4.2-3.8-2-1.6 2 0 5 1 7.1m-206.9-7.7c-2.2.1-5.1 2.2-5.1 4.6-.1 1.4.6 2.5.6 3.8.1 2-.4 4.5 1.3 6.2 1.3 1 7.3 1.3 7.3-1 0-2.6-5.3.6-6.1-1.7-.8-2.7 2.6-3.5 3-5.6.4-2.6-3.3 0-3.4-1.8-.1-1.4 2.2-2.7 2.4-4.5m46.4 12.9c-.4-3.2 1.8-3.8 2.7-6.5.4-1.3-.5-2-1.6-1.6l-2.2 1.6c-.7-2.6 1.7-2.9 1.7-5 0-2-3.1-.5-3.6.6-1.4 2.8.4 4.3.8 6.8.4 2.4-1.3 6.1 2.2 7 2.7.6 5.4-3 2-3.4-.7 0-1.4.4-2 .5m-25-11.9c0 1 .8 2.1.7 3-.2 1-1.1 1.6-1 2.7.7 2.9 2.1 5.6 2.5 8.7 0 1.7-1.6 4 0 5.3 2 1.6 2.6-1.3 2.6-2.6 0-3.7 0-7.2-1.6-10.8 1.1 0 3.4-.5 4.3.1 2.4 1.9-.4 6.7 3 8 1.1.4 7.5.5 7.5-.8 0-2.3-4.8-.8-5.9-2.3-1.5-1.6-.8-5.8-1.2-8l-6.6.1-4.3-3.4m38.3.2c0 1.4-.8 2.6-.7 3.8 0 3.3 1.4 6.5 2 9.6a49.3 49.3 0 01.9 18.8c.6 1-.5 1.5-1.3.7-2-2-.4-4.7-4.2-4.3v1.3l-.8-.8h-.3c-1 2-1.5 5.6-.3 7.7 2 3.1 8.6 3.7 11.3 1 1.8-1.7 1-7.8.5-10-2.4-9.2-3.7-18.6-6.3-27.8h-.8m239.1 9.3c-1.7 3.5-6.9 1.2-2.6-1.9-.3-1.4-1-2-2.5-2.1l1-3.8c-2.5-1-4.7 1.4-4.4 4 0 1.4 1 2.4.8 3.8-.2 1.3-2 4.5-.6 5.4.7.7 2 .5 2.9.7 2.3 0 7.2.8 9.2-.7 2.5-1.7-2.3-4.9-3.8-5.4m-331.7-8c-1.5 0-7.6.8-8.3 2-.5.5 0 1.3 0 2-.4 2-.5 3.8-.5 6 0 .6-.2 2.2.6 2.4 1.2.4 3.5 0 4.9 0 2.4 0 4.8.6 7.3.5 1 0 3.8 0 3.2-1.6-1-2.7-5.5 0-7-2-.5-.7-1-5.1-.8-6 .4-.8 1.3-1.2 1.5-2 0-.7-.4-1.1-1-1.2m107.4 1c-1.6.2-4.6.4-5.5 1.8-1 1.3.3 3.2.8 4.6 1.5 4.2 2.3 6.8 7.7 5.5.9-.2 1.6-.7 1.7-1.7.2-1.4-.6-3.1-1-4.3-.5-2.3-.2-6.5-3.7-5.9m145 2c1.3 0 2.3 0 3.3.7.6.3 1.5 1.3 2.2 1.2 1.3-.2.5-2 0-2.6-1.4-1-6.2-2.2-7.6-.5-.4.6-.1 1.9 0 2.6 0 3 1.5 7.4 4.6 8.5 1.3.4 5.2.6 4.4-2-.5-1.5-3.5-.4-4.6-1.3-1.4-1-1.9-4.8-2.3-6.5M147 508.6c1-.2 2.8.7 3.7.3 1-.6.3-2.4-.3-3-1.4-1.3-4.8-1-6 .3-1.9 2.3.3 10.3 3.4 10.5 1 .1 6.6.1 6.2-1.2-.5-2.4-4.2-.7-5.6-1.7-1.3-.8-1-3.8-1.4-5m32.4.4c1.3-.2 3.6-.8 4.8.1 1.9 1.6.4 5.2 2.3 7 1.7 1.3 4.7.5 6.7.5v-.8l-4.9-1.6c0-1.8-.5-7.1-2-8.3-.9-.5-2.2 0-3.1 0-1 0-2 0-2.8.7-2.9-2-5.8-1.6-9.2-1.4-1.3 0-3.2.7-2.8 2.4.8 2.8 5.3-.5 7 1.2 1.4 1.4.8 4.1 1.8 5.9.6 1 2.5 1.7 2.9 0 .3-1.7-.7-4-.7-5.7m143.8-.3c2-4.6-4.7-4.6-6-1.6-1.2 2.7 5.7 2.6 5.6 5.4-.1 2.6-5.2.2-6.2 1.8-.7.8.3 1.8 1 2.2 1.6.8 4.4 1.5 6 1 4.6-1.3 2.6-7.1-.5-8.8m-116 24.7l-1.1 1.1h.3l.5-.5-.3 2.5-1-2h-2.2c-.6-2-4.1-3.6-4.8-.7-.4 1.4-.2 5.4 1 6.5 1.9 1.5 6.5.5 8.4 0 1-.4 2 0 2.7-1 2-2.5.8-5.3 0-8-1.3-5.6-2.4-11.4-3-17.1-.4-2.2 0-5.8-1.3-7.6-1.6-2.3-9.3-2-9.3 1.3.1 2 .7 7.2 2.5 8.3 1.8 1 5.1-.7 6 1.2.4 1 0 2.2.2 3.2.3 3.7-.3 9.6 1.4 12.9m71.7-17.2l1-.3 2.8.6 7.6-.6c0-2.5-2-2.4-4.1-1.8 0-1.9.1-6.4-1.4-7.7-1.4-1-4-.7-5.6-.8l-.6 1 .3-1c-5.8 0-1.5 7.6 0 10.6M296 509c2.4 1.9 1 5.7 3.2 7.4 1.7 1.2 4.2 0 6 .2 1.7.2 3 1.1 4.8 1 1.3-.2 3.2-.4 3-2.1-.5-2.8-4.8 0-6-2-.8-1.4 1-7.2-2-6.8-2 0-1.6 2.4-1.3 3.7.5 2.5-.7 3.7-3.1 3.8-.2-2.1-.2-5.5-1.8-7-1.6-1.6-8.6-1.3-9.6 1-.3.8.4 1.2 1 1.3 1.4.2 4.8.6 5.8-.5m-161.3 4.6c-.1-1-.2-2.1-.5-3.2l-.3-2.5c-.2-1-2-2-2.8-.7-.4.9.2 2 .3 2.8.4 2.8 1 8.8 5.5 6.7 2.3-1-.5-3.4-2.1-3m25.5-6.8c.2 2.3 1.2 8.4 3.6 9.6 1 .6 6.6.6 5.4-1.7-1-1.8-3.5.2-4.6-1.5-1.7-2.4 0-7.3-4.4-6.4m93.2.5l-.8-.5.8.5m-244.8 0l.5 5.4-2.4.3c-.2-2.6-1.3-4.8 1.9-5.7m142.1 0l-1 .8 1-.8m170.1 0l.5 1-1.3-.2v-.5l.3-.3h.5m-202 7l-2.3-6.5c1 0 2-.1 2.9.5 2.3 1.9 3 5.9-.5 6m159.2-6.5c1.2 0 3-.3 4.1.5 2 1.9.3 7.8-2 4.8-.7-.6-.9-1.7-1.3-2.5-.3-1-.6-1.9-.7-2.8m-144.8.3l-.3.3.3-.3m70.3.3c0 1.5 1 3.8.4 5.3-.5 1-2.6 1.4-3.4.5-1-1.4-.8-4.5-.8-6.2l3.8.4m-198.1.2l-.3.3.3-.3m172 .6l-.5.5v-.5h.5m164.7 1.4v.5h.5v-.5h-.5m-135.8 1.3l-.2.3.2-.3m-128.4 2.2l-.2.3.2-.3m231.1 1l-.3.3.2-.2M208 532l-.3.2.3-.2m-99.3.7v.3-.3m101.7 1l-.2 1.3h-.3l.5-1.3m-109.5.4l-.3.3.3-.3m108.2.8l-.3 1.6h-.3l.6-1.6m-106 .3l-.2.2.2-.2m7.6.2v.5h-.6v-.5h.6m91.6.3l-.3.2.3-.2m-97 .5l.5 2h-.3l-.5-1.7.2-.3m100.9.6l-.3.3.3-.3m-96.8.3l.3.8-.3-.8m99.5.3l-.8.8.2-.8h.6m-106 .5l.3.8-.2-.8m2.6.5l-.3.3.3-.3m-2.1.6l-.3.2.3-.2m102.2 0l-.3.2.3-.2m-98.6.8l.2.5h-.5z"/>
</svg>
